<svg width="174" height="330" viewBox="0 0 174 330" fill="none" xmlns="http://www.w3.org/2000/svg">
<path d="M40.6744 304.613C34.991 283.728 34.7719 261.423 39.7749 240.38C44.2614 221.509 53.1311 203.987 45.2388 184.33C40.2447 171.891 31.2456 161.205 23.5925 150.286C18.6502 143.234 13.9316 135.626 11.5605 127.276C10.1444 122.289 7.84597 109.446 12.0755 105.387C13.8724 103.663 16.5693 103.379 19.052 103.187C37.9084 101.727 57.0565 99.959 74.488 92.044C89.7539 85.1123 99.9086 65.5952 105.135 50.2269C108.738 39.6333 110.188 27.692 105.723 17.4322C101.258 7.17231 89.5055 -0.409651 78.7592 2.70868C71.7545 4.74133 66.449 10.8172 63.7861 17.6076C61.1233 24.3979 60.7691 31.8651 60.9889 39.1553C61.0901 42.5113 61.2601 46.0728 59.6127 48.9983C57.9652 51.9238 53.7075 53.6377 51.1567 51.4548C49.8906 50.371 49.3748 48.6498 49.1484 46.9989C48.7659 44.2105 49.2829 40.9156 51.681 39.4366C60.4936 34.0009 61.4842 48.7688 63.6814 53.7764C65.7597 58.5125 67.7997 63.405 70.8635 67.6093C78.323 77.8464 91.4338 78.0457 102.542 74.8617C118.674 70.2378 162.018 44.6397 168.949 39.1372C170.466 37.9325 172.073 36.3874 171.997 34.4518C171.892 31.7886 168.821 30.4093 166.235 29.7679C157.742 27.6611 148.983 26.8853 140.265 26.1334C102.399 22.8679 64.2668 19.9261 26.4412 23.6329C19.0586 24.3561 9.57108 24.3619 3.98429 29.9704C2.70041 31.2593 1.8025 33.0624 2.03741 34.8667C2.27502 36.6919 3.58479 38.1709 4.85515 39.5027C16.9328 52.1657 31.1703 61.6265 45.2199 71.8095C56.5318 80.0081 68.5195 88.7526 81.1295 94.8571C92.3958 100.311 104.109 104.749 115.655 109.56C124.18 113.112 134.577 117.299 129.032 128.766C125.292 136.502 119.479 140.753 114.149 147.044C105.618 157.114 97.2451 166.739 93.7887 179.636C88.8452 198.081 100.677 211.004 114.736 221.306C125.195 228.97 136.774 236.224 142.775 247.719C150.028 261.614 147.307 279.024 139.722 292.74C132.138 306.457 120.321 317.254 108.714 327.787" stroke="#8AB4E4" stroke-width="4" stroke-miterlimit="10"/>
</svg>
