<svg width="102" height="102" viewBox="0 0 102 102" fill="none" xmlns="http://www.w3.org/2000/svg">
<path d="M53.1846 43.3972H50.1261L48.4011 46.1942H51.4581L53.1846 43.3972ZM61.1186 50.7566C59.5164 50.8891 56.6857 52.3224 55.1439 55.454C53.6021 58.5857 53.5965 60.5189 53.5965 60.5189C53.5965 60.5189 54.4096 59.6275 55.6561 58.6942C56.9026 57.7608 57.8303 57.4292 57.8303 57.4292C57.8303 57.4292 58.0616 56.2794 58.6373 55.0769C59.1971 53.9071 60.0854 52.6893 61.1846 52.413C63.4126 51.8521 62.3456 55.9187 60.7092 58.5703C59.8296 59.9954 56.7097 64.0911 54.0238 64.0911C51.3378 64.0911 50.8195 61.5014 51.3859 59.08C51.9519 56.6591 52.7353 53.5832 56.6539 47.9944C60.5726 42.4055 64.8141 39.0922 67.2693 37.6999C69.791 36.2707 70.8185 36.897 70.8185 36.897C70.8185 36.897 67.5993 38.8799 65.7679 41.2654C64.0169 43.5456 62.972 46.1113 63.7846 47.3686C64.5583 48.5665 67.2857 48.589 70.2889 44.2528C73.2532 39.9723 72.5046 37.4271 72.5046 37.4271C72.5046 37.4271 72.8628 37.3104 73.1033 37.2782C74.5488 37.0858 75.7068 37.467 77.4998 38.3866C79.3783 39.3501 81.1805 40.8955 83.65 42.1599C84.3936 41.3453 85.221 40.48 86.0914 39.6356C82.7622 38.0151 80.2349 35.7052 76.9697 35.4837C74.1277 35.2913 71.8869 36.3269 71.8869 36.3269C71.8869 36.3269 71.0201 35.1464 68.3459 35.5318C65.6717 35.9176 57.4328 39.3624 50.4229 50.5882C44.0849 60.7379 47.0712 66.5545 51.6269 66.488C56.5654 66.4153 61.2634 60.9232 62.8533 56.394C64.4431 51.8649 62.5641 50.6373 61.1186 50.7566ZM70.8134 41.3253C69.9834 43.3486 68.7614 44.7624 67.5589 45.8421C66.0166 47.2273 65.1703 47.1808 64.8039 46.9024C63.847 46.1737 65.1309 43.4259 67.3594 40.9686C69.5786 38.5211 71.4893 37.7597 71.4893 37.7597C71.4893 37.7884 71.8071 38.8993 70.8134 41.3253ZM98.314 38.3748C96.0543 39.8286 92.9211 41.1452 89.9138 40.855C89.1534 41.6446 88.3378 42.5544 87.5196 43.5497C92.739 44.5792 97.3044 41.3458 99.735 38.5907C101.251 36.8729 102 35.3394 102 35.3394C102 35.3394 100.552 36.9349 98.314 38.3748Z" fill="#5381B5"/>
<path d="M95.8452 51.1309H92.6291L92.1067 51.9384C92.1067 51.9384 91.4507 50.7548 90.3397 50.7737C88.4362 50.8065 86.5311 52.2597 84.3175 54.7804C82.6948 56.6271 80.0053 60.7387 80.0053 60.7387C80.0053 60.7387 77.9416 63.919 76.8977 63.6698C75.118 63.2445 78.3914 56.6594 78.3914 56.6594C78.3914 56.6594 80.1123 55.5966 82.3423 53.7201C83.7464 52.5391 85.3619 50.9144 86.8468 49.4085C88.1972 48.0387 89.7886 46.1786 91.3012 44.141C90.9139 44.2024 90.5168 44.2438 90.112 44.2638C88.7555 46.0527 87.3074 47.6538 86.0757 48.9265C84.2423 50.8208 82.5557 52.3708 81.3301 53.3594C80.1558 54.306 79.4025 54.7323 79.4025 54.7323C79.4025 54.7323 81.6428 50.1315 85.3767 45.0482C89.1106 39.9655 94.3387 35.2434 93.9289 37.4837C93.8117 38.1269 93.412 39.0495 92.8087 40.1446C93.2334 40.056 93.6459 39.9455 94.044 39.8196C94.9436 37.9626 95.2501 36.4321 94.5787 35.99C91.839 34.1857 84.8706 41.6515 81.3772 45.9877C77.8843 50.3239 74.723 56.9505 74.723 56.9505C74.723 56.9505 74.1765 57.1798 73.5721 57.2944C73.1909 57.3671 73.0282 57.3512 72.9658 57.3266C72.9346 57.3138 72.931 57.2924 72.931 57.2924C72.931 57.2924 76.0038 51.5479 72.8578 50.786C69.8218 50.0512 64.5615 55.6677 62.6912 59.5746C61.4079 62.2549 60.6838 65.6291 62.8846 66.4325C65.2682 67.3029 69.3168 62.9513 70.2686 61.6869C71.2203 60.4219 72.4085 58.3188 72.4085 58.3188C72.4085 58.3188 72.9898 58.2881 73.3076 58.2416C73.9155 58.152 74.2 58.0773 74.2 58.0773C74.2 58.0773 73.806 59.1094 73.3797 60.4179C72.5851 62.8577 71.8682 66.3485 74.7291 66.5128C76.5518 66.6167 79.226 63.3249 79.226 63.3249C79.226 63.3249 78.5065 66.2518 80.8721 66.5128C82.6186 66.7052 85.1603 64.007 85.1603 64.007C85.1603 64.007 84.6066 66.3316 86.3771 66.5363C87.8928 66.7118 90.0445 64.9347 91.8089 62.9795C93.7354 60.8446 95.2132 58.5066 95.2132 58.5066H94.0931C94.0931 58.5066 91.6139 62.2697 89.8731 63.2768C88.4439 64.1037 88.9336 62.7789 89.367 62.0845C89.8449 61.3185 95.8437 51.1309 95.8437 51.1314L95.8452 51.1309ZM71.3421 58.2185C71.2981 58.3193 70.4932 59.7199 69.632 60.8211C68.7043 62.0077 67.0059 63.7936 65.9851 63.4159C64.3891 62.8254 66.1452 59.3484 67.2935 57.6618C68.4418 55.9752 68.5723 55.8611 68.6045 55.8171C68.6367 55.7731 68.669 55.7327 68.6971 55.7849C68.7253 55.8371 69.0906 56.5299 69.8121 57.1312C70.5367 57.735 71.2336 58.0538 71.2899 58.0737C71.3462 58.0937 71.3866 58.1177 71.3421 58.218V58.2185ZM72.0601 56.9654C71.9592 57.1332 71.8871 57.1414 71.6778 57.0856C71.3094 56.9858 69.783 56.2802 69.7947 54.7149C69.8055 53.1895 71.9557 51.6953 72.799 52.3339C73.586 52.9295 73.2099 54.4524 72.9131 55.2292C72.6168 56.0054 72.1261 56.8554 72.0601 56.9654ZM86.6703 60.7387C86.2456 61.321 85.8905 61.8471 85.5701 62.2165C84.8855 63.0071 84.4387 63.375 84.0406 63.4722C83.84 63.5208 83.5914 63.5091 83.4266 63.4093C82.8422 63.0537 83.2516 61.669 84.2689 59.8074C85.1997 58.106 86.2753 56.4035 88.0432 54.4437C89.8183 52.4762 90.4974 52.3815 90.9942 52.404C91.4123 52.4219 91.4716 52.8615 91.4716 52.8615C91.4716 52.8615 91.442 52.9633 91.3754 53.0784C90.7895 54.0942 87.838 59.1376 86.6698 60.7387H86.6703ZM39.2315 63.2C37.2814 61.9949 34.7797 61.2217 31.9054 61.1967C24.501 61.1322 16.4391 64.7295 10.9787 64.7781C4.53832 64.8344 4.21748 59.8795 4.69491 57.1588C5.72241 51.2972 9.88003 45.7053 12.5532 42.7568C15.2269 39.8084 18.0284 37.5205 20.3577 36.9356C22.687 36.3508 22.468 38.1223 22.183 38.3643C21.8888 38.3705 21.3243 38.4339 21.004 38.6555C20.5025 39.0014 19.8327 39.6349 19.7908 40.6394C19.7186 42.1868 21.7184 42.458 23.1639 39.2179C24.15 37.0078 22.5862 35.508 21.2875 35.3637C19.5063 35.1651 16.784 35.7843 13.5346 37.8726C7.87926 41.5067 0.314697 49.5768 0.121783 58.5307C0.0117664 63.6385 3.34861 66.5128 7.92684 66.5128C12.5051 66.5128 18.7208 63.7092 24.7901 63.6375C28.5481 63.6053 30.9802 64.9224 32.2119 67.0675C32.2119 67.0675 33.4359 65.0314 36.1618 64.9224C38.8585 64.8139 41.8274 65.5697 44.2647 67.2829C43.4516 66.108 41.153 64.3872 39.231 63.2H39.2315Z" fill="#5381B5"/>
<path d="M22.3694 43.0842C19.2653 42.2931 14.1104 47.577 11.9382 51.8774C10.5986 54.5301 10.0111 57.8638 12.3962 58.7312C14.7813 59.5985 18.8278 55.25 19.7796 53.9856C20.7314 52.7207 22.289 50.1872 22.289 50.1872C22.289 50.1872 22.767 50.0951 23.0801 50.0224C23.3933 49.9498 23.8994 49.8055 23.8994 49.8055C23.8994 49.8055 23.3124 50.8514 22.7828 51.9234C22.155 53.1945 20.4489 57.4258 23.7428 58.6948C26.8898 59.9071 31.3698 54.8519 31.6051 54.7562C31.6051 54.7562 30.2716 58.2011 32.343 58.7312C34.616 59.3125 37.107 56.4004 37.107 56.4004C37.107 56.4004 36.5825 58.5864 38.3535 58.7916C41.5251 59.1585 47.1349 51.0464 47.1349 51.0464H46.0143C46.0143 51.0464 43.1595 54.7199 41.7866 55.4788C40.4137 56.2376 40.9075 54.8893 41.2805 54.2865C41.7564 53.5194 47.8211 43.3856 47.8211 43.3856H44.6051L44.232 43.9756C44.232 43.9756 43.5694 42.964 42.4615 43.0361C39.2383 43.2464 35.403 48.384 33.7165 50.6483C32.0304 52.9131 28.3927 57.237 26.4773 56.4664C24.3901 55.6261 26.4656 51.7689 27.8385 49.5041C29.3332 47.0387 31.9823 44.5968 33.0297 44.5779C34.3187 44.5538 33.8127 45.7221 33.8127 45.7221C33.8127 45.7221 32.8491 45.6018 32.1506 46.4809C31.6563 47.1026 31.247 48.0104 31.7167 48.5042C32.4756 49.302 33.4637 48.4919 34.0537 47.5883C35.8932 44.7723 34.5475 43.2884 33.1024 43.0719C30.024 42.6099 27.1881 46.5648 25.0323 48.0345C23.5366 49.0533 22.9118 48.974 22.9118 48.974C22.9118 48.974 25.5066 43.8835 22.3699 43.0837L22.3694 43.0842ZM36.3057 52.1905C37.2365 50.4886 38.5045 48.8455 40.1547 46.7859C41.805 44.7263 42.6263 44.5595 43.1232 44.582C43.5412 44.6004 43.6006 45.0394 43.6006 45.0394C43.6006 45.0394 40.015 51.2869 38.7143 53.0697C38.2896 53.652 37.9263 54.1453 37.6059 54.5152C36.9213 55.3058 36.4239 55.6881 36.0401 55.7832C35.8395 55.8324 35.5908 55.8201 35.4255 55.7198C34.8412 55.3641 35.2869 54.0516 36.3052 52.1905H36.3057ZM21.0886 50.1632C21.044 50.2635 20.0201 51.9567 19.1594 53.0579C18.2322 54.2445 16.5185 56.0376 15.4976 55.6599C13.9016 55.0694 15.6041 51.6164 16.7524 49.9303C17.9006 48.2438 18.069 48.0268 18.1017 47.9833C18.134 47.9388 18.1657 47.8984 18.1938 47.9511C18.222 48.0033 18.5873 48.7544 19.3784 49.26C20.1695 49.7661 20.9806 49.9989 21.0369 50.0189C21.0932 50.0388 21.1336 50.0634 21.0891 50.1632H21.0886ZM22.4236 47.5274C22.1268 48.3046 21.8617 48.7943 21.807 48.91C21.719 49.0952 21.4984 49.0359 21.4984 49.0359C21.2472 49.0246 19.294 48.5789 19.3053 47.0136C19.316 45.4882 21.4667 43.994 22.3095 44.6326C23.0965 45.2283 22.7204 46.7511 22.4236 47.5274ZM93.4254 64.6557C93.2377 64.5493 93.0289 64.4966 92.7991 64.4966C92.5694 64.4966 92.3606 64.5498 92.1728 64.6557C91.985 64.7622 91.8376 64.9065 91.7297 65.0902C91.6222 65.2733 91.568 65.4729 91.568 65.6878C91.568 65.9027 91.6217 66.1059 91.7297 66.2881C91.8371 66.4697 91.985 66.614 92.1728 66.7199C92.3606 66.8264 92.5694 66.8791 92.7991 66.8791C93.0289 66.8791 93.2377 66.8259 93.4254 66.7199C93.6132 66.614 93.7606 66.4697 93.8686 66.2881C93.976 66.1064 94.0303 65.9063 94.0303 65.6878C94.0303 65.4693 93.9766 65.2733 93.8686 65.0902C93.7611 64.907 93.6132 64.7622 93.4254 64.6557ZM93.646 66.1811C93.5646 66.3264 93.45 66.4405 93.3032 66.524C93.1563 66.6069 92.9879 66.6483 92.7991 66.6483C92.6103 66.6483 92.4419 66.6069 92.2951 66.524C92.1482 66.4411 92.0341 66.3269 91.9522 66.1811C91.8709 66.0358 91.8299 65.871 91.8299 65.6878C91.8299 65.5046 91.8709 65.3445 91.9522 65.1991C92.0336 65.0538 92.1487 64.9397 92.2971 64.8563C92.4455 64.7729 92.6129 64.732 92.7991 64.732C92.9854 64.732 93.1527 64.7734 93.3011 64.8563C93.4495 64.9392 93.5646 65.0533 93.646 65.1991C93.7274 65.3445 93.7683 65.5077 93.7683 65.6878C93.7683 65.8679 93.7274 66.0358 93.646 66.1811Z" fill="#5381B5"/>
<path d="M93.2617 65.6683C93.2965 65.6115 93.3139 65.5481 93.3139 65.4785C93.3139 65.3823 93.2827 65.3019 93.2202 65.2364C93.1578 65.1709 93.0739 65.1382 92.9695 65.1382H92.3452V66.2163H92.62V65.8234H92.8293L93.0826 66.2163H93.3968L93.1133 65.7973C93.1773 65.7681 93.2269 65.7251 93.2617 65.6683ZM92.9997 65.5547C92.9792 65.5736 92.9516 65.5829 92.9168 65.5829H92.62V65.3736H92.9168C92.9516 65.3736 92.9792 65.3833 92.9997 65.4017C93.0202 65.4206 93.0304 65.4462 93.0304 65.478C93.0304 65.5097 93.0202 65.5353 92.9997 65.5542V65.5547Z" fill="#5381B5"/>
</svg>
