<svg width="102" height="102" viewBox="0 0 102 102" fill="none" xmlns="http://www.w3.org/2000/svg">
<g clip-path="url(#clip0_126_75)">
<path d="M94.1846 83.9012C89.4142 83.9012 86.5854 81.46 86.3688 77.9443H90.9297C90.9297 79.1163 91.5791 80.6762 94.4012 80.7731C96.3569 80.7731 97.4391 79.6015 97.4391 78.7205C97.2225 77.3544 95.4834 77.2575 93.7514 76.9589C91.7957 76.6754 90.2803 76.2796 89.1905 75.7944C87.6751 75.0107 86.8016 73.346 86.8016 71.5919C86.8016 68.4638 89.4142 66.0225 93.968 66.0225C98.3126 66.0225 101.134 68.27 101.343 71.6888H97.0063C97.0063 70.815 96.7897 69.3448 94.1842 69.3448C92.4451 69.3448 91.3628 69.6358 91.1462 70.9047C91.1462 72.6667 94.834 72.5694 97.6557 73.2488C100.261 73.9356 102 75.5928 102 77.9443C102 82.244 98.5289 83.9012 94.1846 83.9012ZM11.0708 55.0532L26.0455 46.3564L34.0775 60.137H13.8925" fill="#5381B5"/>
<path d="M42.5601 83.3829V65.9897Z" fill="#5381B5"/>
<path d="M42.5601 83.3829V65.9897" stroke="#5381B5" stroke-width="4.38189"/>
<path d="M4.12091 74.9432C4.12091 77.6752 6.50947 79.9223 9.10713 79.9223C11.9363 79.9223 14.1012 77.6752 14.1012 74.9432C14.1012 72.3081 11.9363 69.9641 9.10713 69.9641C6.50947 69.9641 4.12091 72.3081 4.12091 74.9432ZM8.89089 83.931C4.12057 83.931 0 79.9223 0 74.9432C0 69.9641 4.12091 66.0526 8.89089 66.0526C10.8466 66.0526 12.5858 66.5453 14.1012 67.6126V66.2464H18.4458V83.5352H14.1015V82.4604C12.8027 83.4383 10.8466 83.931 8.89089 83.931ZM66.8505 60.1328L46.0161 23.7936L60.9904 15L87.0354 60.1328M24.0893 74.9432C24.0893 77.6752 26.2619 79.9223 29.0833 79.9223C31.681 79.9223 34.0774 77.6752 34.0774 74.9432C34.0774 72.3081 31.681 69.9641 29.0833 69.9641C26.2616 69.9641 24.0893 72.3081 24.0893 74.9432ZM28.8667 83.931C23.8727 83.931 19.9687 79.9223 19.9687 74.9432C19.9687 69.9641 23.8727 66.0526 28.8667 66.0526C30.815 66.0526 32.5545 66.5453 34.0774 67.6126V60.2895H38.4145V83.5352H34.077V82.4604C32.5541 83.4383 30.8153 83.931 28.8667 83.931ZM28.6529 39.5211L43.8438 30.9291L60.5579 60.1317H44.7101V64.4315H40.3726V60.1317M99.186 64.5668C98.0962 64.5668 97.014 63.5889 97.014 62.4169C97.014 61.2449 98.0962 60.2671 99.186 60.2671C100.485 60.2671 101.359 61.2453 101.359 62.4169C101.359 63.5886 100.485 64.5668 99.186 64.5668ZM99.186 60.5659C98.0962 60.5659 97.4468 61.4391 97.4468 62.4169C97.4468 63.3948 98.0962 64.2758 99.186 64.2758C100.269 64.2758 100.918 63.3951 100.918 62.4169C100.918 61.4387 100.269 60.5659 99.186 60.5659Z" fill="#5381B5"/>
<path d="M99.6339 63.5965L99.2007 62.6186H98.7679V63.5965H98.4394V61.2525H99.4173C99.6338 61.2525 100.067 61.5513 100.067 61.9393C100.067 62.3272 99.8501 62.5217 99.6339 62.6186L100.067 63.5965M99.2007 61.5513H98.7679V62.3276H99.2007C99.6338 62.3276 99.6339 62.2307 99.6339 61.9393C99.6339 61.738 99.6338 61.5513 99.2007 61.5513ZM70.5206 74.9432C70.5206 77.6752 72.6933 79.9223 75.5147 79.9223C78.1198 79.9223 80.5012 77.6752 80.5012 74.9432C80.5012 72.3082 78.1198 69.9642 75.5147 69.9642C72.6929 69.9642 70.5206 72.3082 70.5206 74.9432ZM75.2909 83.931C70.3044 83.931 66.4 79.9223 66.4 74.9432C66.4 69.9642 70.3044 66.0527 75.2906 66.0527C77.2467 66.0527 78.9858 66.5454 80.5012 67.6127V66.2465H84.6293V83.5353H80.5016V82.4605C78.9858 83.4384 77.247 83.931 75.2909 83.931ZM50.5672 74.9432C50.5672 77.6752 52.9558 79.9223 55.5609 79.9223C58.383 79.9223 60.5549 77.6752 60.5549 74.9432C60.5549 72.3082 58.3826 69.9642 55.5609 69.9642C52.9558 69.9642 50.5672 72.3082 50.5672 74.9432ZM60.5549 60.2896H64.8921V83.5353H60.5549V82.4605C59.2486 83.4384 57.5095 83.931 55.5609 83.931C50.5672 83.931 46.4463 79.9223 46.4463 74.9432C46.4463 69.9642 50.5672 66.0527 55.5609 66.0527C57.5091 66.0527 59.2486 66.5454 60.5549 67.6127V60.2896Z" fill="#5381B5"/>
</g>
<defs>
<clipPath id="clip0_126_75">
<rect width="102" height="102" fill="white"/>
</clipPath>
</defs>
</svg>
