<svg width="102" height="102" viewBox="0 0 102 102" fill="none" xmlns="http://www.w3.org/2000/svg">
<g clip-path="url(#clip0_126_110)">
<path d="M10.1707 87.3286C9.77116 87.138 9.3257 87.1771 8.90551 87.076C7.11221 86.6398 5.43832 85.9854 4.21677 84.5181C2.92633 82.9659 2.69442 81.1772 3.36719 79.3518C4.02389 77.57 5.53705 76.6286 7.33724 76.3438C10.1179 75.9053 12.2051 77.1498 13.2246 79.687C13.5736 80.5527 13.9134 81.4275 14.6023 82.1003C15.5529 83.0187 16.7009 82.9062 17.3898 81.7811C17.8533 81.006 18.0918 80.1171 18.0786 79.214C18.0863 64.4038 18.0863 49.5944 18.0786 34.7858C18.0817 34.5558 18.0389 34.3276 17.9526 34.1144C17.8664 33.9012 17.7385 33.7073 17.5764 33.5442C17.4143 33.3811 17.2213 33.2519 17.0087 33.1642C16.7961 33.0766 16.5681 33.0323 16.3382 33.0338C15.5161 33.0177 14.6918 33.0338 13.8698 33.0338C13.2442 33.0269 12.6399 32.8056 12.1576 32.407C11.6754 32.0084 11.3445 31.4564 11.22 30.8433C11.1043 30.2076 11.2241 29.5516 11.5572 28.9979C11.8902 28.4442 12.4136 28.0309 13.0294 27.8353C13.4879 27.6991 13.9659 27.6402 14.4438 27.6608H37.5753C38.868 27.6608 39.4788 27.2337 39.9426 26.0099C40.4064 24.786 41.6532 23.9939 43.1251 23.9893C45.0952 23.9893 47.0676 23.9893 49.0377 23.9893H79.5765C80.4352 23.9893 80.4352 23.9893 80.4375 24.8457C80.4375 26.1851 80.4375 27.5246 80.4375 28.864C80.4375 29.585 80.4375 29.5873 79.689 29.5873H70.16C68.5527 29.5873 67.6916 30.4598 67.6916 32.0694C67.6916 43.2823 67.6916 54.4944 67.6916 65.7058C67.6916 67.1661 67.1635 68.2866 65.8776 69.1041C62.2566 71.4002 58.6769 73.763 55.0857 76.0958C54.8485 76.2556 54.5953 76.3902 54.3303 76.4977C52.8585 77.0625 51.506 76.1923 51.3935 74.6171C51.3774 74.4082 51.3935 74.1969 51.3935 73.9857C51.3935 60.2669 51.3935 46.5482 51.3935 32.8294C51.3923 32.4861 51.3685 32.1433 51.3223 31.8031C51.1249 30.3175 50.3258 29.6011 48.8287 29.5896C47.0308 29.5758 45.2306 29.5896 43.4328 29.5896C42.2066 29.5896 41.6693 29.9822 41.2468 31.1257C41.0432 31.6869 40.6708 32.1713 40.1806 32.5122C39.6905 32.853 39.1068 33.0337 38.5098 33.0292C37.9541 33.043 37.4008 33.0292 36.8451 33.0292C36.6149 33.0218 36.3855 33.0609 36.1708 33.1443C35.9561 33.2276 35.7605 33.3535 35.5956 33.5143C35.4307 33.6751 35.3 33.8676 35.2113 34.0802C35.1226 34.2927 35.0777 34.521 35.0794 34.7513C35.0794 34.9235 35.0794 35.0957 35.0794 35.268C35.0794 46.4043 35.0794 57.5399 35.0794 68.6747C35.1151 70.5806 34.553 72.4499 33.472 74.0201C32.6569 75.1843 31.5318 76.0155 30.3745 76.7962C26.5813 79.3518 22.7559 81.8638 18.981 84.447C17.0798 85.7489 15.0776 86.7684 12.7998 87.1656C12.4324 87.2299 12.0398 87.1128 11.6953 87.3263L10.1707 87.3286Z" fill="#5381B5"/>
<path d="M82.7293 44.5538C82.7293 37.9532 82.7254 31.3517 82.7178 24.7495C82.7178 24.2053 82.8487 24.0446 83.4066 24.0469C88.4383 24.0683 93.4707 24.0683 98.5038 24.0469C99.025 24.0469 99.1284 24.1961 99.1284 24.6875C99.1146 35.1534 99.11 45.62 99.1146 56.0874C99.1146 57.5317 98.6003 58.6752 97.3052 59.4972C93.6521 61.8163 90.0402 64.1997 86.41 66.5533C86.0482 66.8056 85.6291 66.9635 85.1907 67.0125C83.7832 67.1296 82.9612 66.3902 82.7568 64.8128C82.733 64.584 82.7238 64.3539 82.7293 64.1239C82.7293 57.6029 82.7293 51.0795 82.7293 44.5538Z" fill="#5381B5"/>
<path d="M90.8921 15.0002C92.9556 15.0002 95.0221 15.0002 97.0917 15.0002C97.7578 14.9846 98.4042 15.2269 98.8959 15.6766C99.3875 16.1263 99.6863 16.7486 99.73 17.4135C99.8356 18.9519 98.924 20.0977 97.4338 20.2997C97.1517 20.3408 96.8671 20.363 96.582 20.3663C92.755 20.3663 88.9327 20.3663 85.115 20.3663C84.1276 20.3663 83.2184 20.1643 82.6122 19.2688C82.006 18.3733 81.8981 17.4181 82.3826 16.4514C82.5813 16.007 82.9077 15.6318 83.3202 15.3734C83.7328 15.115 84.2128 14.9851 84.6994 15.0002H90.8921Z" fill="#5381B5"/>
</g>
<defs>
<clipPath id="clip0_126_110">
<rect width="96.73" height="72.3334" fill="white" transform="translate(3 15)"/>
</clipPath>
</defs>
</svg>
