<svg width="102" height="102" viewBox="0 0 102 102" fill="none" xmlns="http://www.w3.org/2000/svg">
<g clip-path="url(#clip0_126_107)">
<g clip-path="url(#clip1_126_107)">
<path fill-rule="evenodd" clip-rule="evenodd" d="M9.76969 12.7888C10.0884 12.7729 10.3753 13.4901 13.3716 21.9848C15.1566 27.0529 16.83 31.7385 17.0691 32.392C17.3081 33.0454 17.7544 33.8582 18.0412 34.1929C18.3441 34.5276 18.8381 34.8941 19.2047 35.0216C19.6509 35.1651 19.8581 35.3244 19.89 35.5635C19.9219 35.8982 19.8741 35.8982 17.0531 35.8982C14.2959 35.8982 14.1844 35.8823 14.1844 35.5794C14.1844 35.3563 14.3119 35.2448 14.6625 35.181C15.0291 35.1173 15.1406 35.0216 15.1406 34.7507C15.1406 34.5435 14.6147 32.8541 12.8297 27.6107H6.375L5.32313 30.8301C4.31906 33.8741 4.27125 34.0973 4.47844 34.5435C4.65375 34.9101 4.82906 35.0376 5.2275 35.0535C5.65781 35.1013 5.7375 35.1651 5.7375 35.8982H0L0.0478125 35.5476C0.06375 35.3244 0.207187 35.1651 0.398437 35.1332C0.57375 35.1013 0.95625 34.9579 1.25906 34.8144C1.54594 34.6551 1.92844 34.3363 2.08781 34.0654C2.24719 33.7944 3.9525 28.9176 5.89687 23.2279C7.82531 17.5223 9.40312 12.8526 9.40312 12.8207C9.40312 12.8048 9.5625 12.7888 9.76969 12.7888ZM6.78937 26.0648C6.82125 26.1285 7.98469 26.1763 9.37125 26.1763C10.7578 26.1763 11.9372 26.1285 12.0009 26.0488C12.0488 25.9851 11.5069 24.2479 10.8056 22.192C10.0884 20.136 9.45094 18.367 9.38719 18.2873C9.32344 18.2076 8.70187 19.881 8.00062 22.0326C7.31531 24.1841 6.77344 25.9851 6.78937 26.0648ZM100.167 12.9482L100.279 13.5379C100.343 13.8726 100.406 14.7651 100.406 15.5301C100.406 16.9166 100.406 16.9326 100.008 16.9326C99.6891 16.9326 99.5775 16.821 99.4819 16.4066C99.4022 16.1357 99.195 15.6576 99.0038 15.3707C98.8125 15.0998 98.43 14.7491 98.175 14.6216C97.8084 14.4463 97.1231 14.3826 93.075 14.3826V23.467H94.9556C95.9756 23.451 97.1391 23.3873 97.5375 23.3076C97.9359 23.2279 98.3822 23.0366 98.5416 22.8773C98.685 22.7179 98.9081 22.3035 99.0356 21.9529C99.195 21.5226 99.3544 21.3154 99.5616 21.3154C99.8325 21.3154 99.8484 21.5066 99.8962 24.0566C99.9281 26.4154 99.8962 26.8138 99.6891 26.8138C99.5456 26.8138 99.4181 26.6066 99.3703 26.2879C99.3225 26.017 99.0834 25.5866 98.8444 25.3316C98.5097 24.997 98.175 24.8695 97.3781 24.742C96.8044 24.6623 95.6409 24.5826 93.2344 24.5826V29.2363C93.2344 33.141 93.2662 33.9698 93.4734 34.2566C93.7125 34.6073 93.7763 34.6232 96.0872 34.5754C98.4459 34.5435 98.4778 34.5435 99.1631 34.0654C99.5456 33.7944 100.135 33.141 100.486 32.5991C101.012 31.8023 101.203 31.611 101.57 31.611C101.936 31.5951 101.984 31.6429 101.92 31.9457C101.872 32.1529 101.649 33.0773 100.964 35.7388H94.8759C88.8834 35.7388 88.7719 35.7388 88.7719 35.4201C88.7719 35.2288 88.8834 35.1013 89.0587 35.1013C89.2022 35.1013 89.5687 34.9579 89.8556 34.7826C90.2222 34.5435 90.4134 34.2885 90.5409 33.7785C90.6525 33.3323 90.6844 30.1129 90.6525 24.0248C90.6206 16.566 90.5569 14.8766 90.3816 14.542C90.2541 14.3188 90.0469 14.0638 89.9034 13.9523C89.76 13.8566 89.4094 13.7291 89.1384 13.6813C88.7559 13.6176 88.6125 13.506 88.6125 13.267C88.6125 12.9482 88.7241 12.9482 100.167 12.9482ZM67.2722 48.4888H69.4875L82.1578 64.1873C89.1225 72.8254 94.9078 79.8857 94.9875 79.8857C95.0991 79.8857 95.1309 75.3595 95.0991 66.5301C95.0513 55.2941 95.0034 53.0469 94.8122 52.3138C94.6688 51.8357 94.4775 51.2779 94.3819 51.0707C94.2703 50.8794 93.8878 50.5448 93.5212 50.3216C93.1387 50.0985 92.4216 49.8754 91.0031 49.6841V48.4888H101.362V49.0466C101.362 49.5248 101.315 49.6044 101.012 49.6044C100.805 49.6044 100.374 49.6841 100.056 49.7638C99.7209 49.8594 99.1631 50.1941 98.8284 50.5129C98.4937 50.8476 98.1113 51.4054 97.9997 51.756C97.8244 52.266 97.7766 56.0751 97.6172 89.3685H97.0594C96.5175 89.3685 96.2466 89.0338 83.5125 73.3991C76.3725 64.6176 70.4278 57.3341 70.3163 57.2226C70.1569 57.0473 70.125 59.5654 70.1728 70.9607C70.2047 82.4835 70.2684 85.0335 70.4437 85.6232C70.5712 86.0216 70.89 86.5635 71.1609 86.8345C71.4159 87.1213 71.9259 87.4241 72.2766 87.5198C72.6272 87.6154 73.2487 87.6951 74.4281 87.6951V88.9701L63.3516 88.8904L63.2719 87.6951H64.0369C64.4512 87.6951 65.0569 87.5516 65.4234 87.3763C65.7741 87.201 66.2203 86.8344 66.4116 86.5476C66.6188 86.2607 66.8578 85.7666 66.9694 85.4638C67.1288 85.0335 67.1766 80.7623 67.2244 66.6895L67.2722 48.4888ZM23.2687 12.9482L24.6234 12.9801L39.1266 31.1488L39.1744 23.9291C39.2062 19.9448 39.1744 16.2313 39.1106 15.6576C39.0309 14.8129 38.9194 14.5579 38.5528 14.1913C38.2978 13.9523 37.9312 13.7451 37.74 13.7451C37.5328 13.7451 37.2619 13.6813 37.1344 13.6016C36.9909 13.522 36.9431 13.3626 37.0228 13.2032C37.1184 12.996 37.5328 12.9482 42.7125 12.9482L42.6806 13.3148C42.6487 13.5698 42.5212 13.6813 42.2344 13.7132C42.0112 13.7451 41.6447 13.9204 41.3897 14.1116C41.055 14.3985 40.9116 14.6854 40.8 15.4185C40.7044 15.9763 40.6406 20.6938 40.6406 26.3835C40.6406 36.2807 40.6406 36.3763 40.3219 36.3763C40.0987 36.3763 37.8675 33.7626 24.9422 17.9207L24.8944 25.4432C24.8625 29.571 24.8944 33.2844 24.9581 33.6669C25.0378 34.161 25.1972 34.5116 25.4841 34.7507C25.7231 34.9579 26.1853 35.1491 26.5837 35.197C27.1256 35.2607 27.2531 35.3244 27.2531 35.5794C27.2531 35.8982 27.1416 35.8982 24.1453 35.8982C21.1491 35.8982 21.0375 35.8982 21.0375 35.5794C21.0375 35.3404 21.165 35.2448 21.6431 35.197C21.9619 35.1491 22.4081 34.9419 22.6312 34.7348C22.8544 34.5276 23.0775 34.1132 23.1572 33.8263C23.2209 33.5235 23.2687 28.7104 23.2687 23.1163V12.9482ZM46.9837 12.9641C48.2747 12.9641 51.0159 13.0279 53.0719 13.1076C55.6856 13.2032 57.1041 13.3307 57.7734 13.506C58.2994 13.6495 59.1919 13.9841 59.7656 14.2551C60.5147 14.6057 61.1522 15.0998 62.0447 15.9923C63.0009 16.9645 63.4153 17.5541 63.8934 18.5582C64.2441 19.2913 64.6584 20.3432 64.8178 20.917C65.0409 21.7138 65.1047 22.4948 65.0887 24.2638C65.0728 26.3038 65.025 26.7501 64.6425 28.0091C64.4034 28.7901 63.9094 30.0173 63.5428 30.7185C63.1125 31.5632 62.5387 32.3441 61.8534 33.0454C61.2797 33.6191 60.4509 34.3045 60.0047 34.5595C59.5744 34.7985 58.7616 35.181 58.2197 35.3723C57.6619 35.5794 56.7375 35.8185 56.1478 35.9141C55.4147 36.0257 53.3587 36.0416 49.8525 35.946C45.0234 35.8344 44.625 35.8026 44.625 35.5316C44.625 35.3244 44.8162 35.2288 45.39 35.1651C45.8681 35.1013 46.2506 34.926 46.4578 34.7029C46.6331 34.5116 46.8244 34.0813 46.9041 33.7307C46.9678 33.396 47.0156 29.1566 47.0156 24.3435C47.0156 19.0363 46.9519 15.3388 46.8562 14.9723C46.7606 14.6376 46.5056 14.2391 46.2666 14.0638C46.0275 13.8885 45.5494 13.7132 45.2306 13.6654C44.7525 13.6016 44.625 13.522 44.625 13.267C44.625 12.9641 44.7366 12.9482 46.9837 12.9641ZM49.9003 14.4304C49.7888 14.5579 49.7409 17.6657 49.7728 24.0407C49.8047 33.2207 49.8206 33.4916 50.1234 33.8263C50.2987 34.0335 50.6972 34.3044 51 34.4319C51.3347 34.5754 52.2909 34.7029 53.3906 34.7507C54.7772 34.7985 55.4784 34.7507 56.2594 34.5595C56.8331 34.416 57.6937 34.0973 58.1719 33.8582C58.65 33.6191 59.4787 33.0295 60.0047 32.5354C60.6103 31.9616 61.1362 31.2923 61.4231 30.7026C61.6781 30.1766 62.0287 29.2204 62.2041 28.567C62.4591 27.6266 62.5228 26.8616 62.5228 24.981C62.5387 22.8932 62.4909 22.431 62.1403 21.3154C61.9331 20.6141 61.4869 19.5782 61.1841 19.0045C60.8653 18.4307 60.2437 17.5701 59.8134 17.092C59.3831 16.6138 58.6341 15.9604 58.1559 15.6257C57.6937 15.307 56.7216 14.8607 56.0203 14.6216C54.9525 14.2551 54.4106 14.1754 52.7531 14.1435C51.6534 14.1116 50.6016 14.1276 50.4103 14.1595C50.2191 14.2073 49.9959 14.3348 49.9003 14.4304ZM72.0056 13.1076C75.5756 13.1076 76.7709 13.1713 77.4562 13.3466C77.9344 13.4741 78.6197 13.761 78.9703 13.9682C79.3209 14.1754 79.815 14.6216 80.0859 14.9563C80.3409 15.307 80.7234 15.9763 80.9466 16.4545C81.2016 17.0282 81.3609 17.7295 81.4087 18.5263C81.4406 19.1798 81.3928 20.152 81.2972 20.6779C81.2016 21.2038 80.9147 22.0645 80.6756 22.5904C80.4206 23.1163 79.815 23.977 79.3209 24.5029C78.8269 25.0288 78.4284 25.507 78.4284 25.5707C78.4125 25.6504 79.2253 26.8935 80.1975 28.3598C81.1856 29.842 82.4766 31.6429 83.0822 32.392C83.6719 33.141 84.4687 33.9857 84.8353 34.2726C85.2019 34.5594 85.8872 34.8941 86.3494 35.0216C87.0028 35.2129 87.1781 35.3244 87.1781 35.5794C87.1781 35.8823 87.0825 35.8982 85.3134 35.8504C83.7675 35.8185 83.3212 35.7388 82.7953 35.4679C82.4447 35.2926 81.8391 34.7826 81.4406 34.3682C81.0422 33.9379 80.0222 32.6151 79.1934 31.4357C78.3647 30.2563 77.3287 28.7104 76.8984 28.0091C76.4681 27.3079 76.0219 26.6066 75.8784 26.4473C75.6712 26.2082 75.3525 26.1604 72.1969 26.1763L72.2766 34.2726L72.675 34.6869C72.9459 34.9579 73.2966 35.1332 73.7587 35.181C74.3006 35.2448 74.4281 35.3244 74.4281 35.5794C74.4281 35.8823 74.3166 35.8982 70.8422 35.8982C67.3678 35.8982 67.2562 35.8823 67.2562 35.5794C67.2562 35.3404 67.3997 35.2448 67.8619 35.1651C68.1806 35.1173 68.6747 34.9419 68.9297 34.7826C69.2484 34.5913 69.4556 34.3044 69.5353 33.9698C69.5991 33.6669 69.6469 29.4435 69.6469 24.5826C69.6469 19.7216 69.5991 15.4982 69.5353 15.1954C69.4716 14.8926 69.2484 14.4782 69.0572 14.271C68.85 14.0798 68.4037 13.8566 68.0531 13.777C67.5909 13.6973 67.4156 13.5857 67.4156 13.3785C67.4156 13.1235 67.7503 13.1076 72.0056 13.1076ZM72.165 19.371C72.1809 23.212 72.2288 24.3913 72.3881 24.5348C72.4997 24.6463 73.0575 24.7738 73.6312 24.8376C74.205 24.9013 75.0497 24.8695 75.5437 24.7579C76.0219 24.6623 76.7072 24.3913 77.0578 24.1363C77.52 23.8176 77.8228 23.4032 78.1575 22.6541C78.5081 21.8891 78.6356 21.3154 78.6994 20.3591C78.7472 19.4985 78.6834 18.7176 78.5081 17.9685C78.3487 17.2991 78.0141 16.5182 77.6953 16.0082C77.3447 15.4823 76.8666 15.0201 76.3884 14.7491C75.7191 14.3666 75.4322 14.3029 74.1094 14.271C73.2806 14.2551 72.4997 14.271 72.3722 14.3188C72.165 14.3985 72.1331 15.1635 72.165 19.371ZM43.5572 48.1541L44.8322 48.2498L47.3663 55.5013C48.7528 59.4857 51 65.9404 52.3706 69.8451C53.7413 73.7498 55.3828 78.3716 56.0203 80.1248C56.6578 81.8779 57.4069 83.7745 57.6619 84.3482C57.9328 84.922 58.3153 85.6551 58.5225 85.9738C58.7297 86.3085 59.16 86.7548 59.4947 86.9779C59.8134 87.201 60.4828 87.4719 60.9609 87.5835C61.8375 87.7748 61.8375 87.7748 61.8375 88.9701H51.7969V88.3804C51.7969 87.8066 51.8288 87.7748 52.3866 87.6473C52.7213 87.5835 53.0878 87.4401 53.1994 87.3285C53.3109 87.2329 53.4066 86.9779 53.4066 86.7866C53.3906 86.5794 52.4344 83.5991 49.1353 73.9091L38.1703 73.8135L37.9791 74.2598C37.8675 74.4988 37.0547 76.9691 36.1781 79.7263C35.2059 82.7226 34.5525 85.0335 34.5525 85.4638C34.5366 85.8782 34.6322 86.3563 34.7916 86.6273C34.9509 86.8663 35.2378 87.1213 35.4609 87.217C35.6841 87.3126 36.0666 87.3763 36.3056 87.3763C36.5447 87.3763 36.8316 87.4401 36.9431 87.5038C37.0866 87.5835 37.1184 87.8066 36.975 88.8107H26.9344L27.0141 87.5038L28.2253 87.0735C28.8947 86.8504 29.6437 86.4838 29.8828 86.2607C30.1219 86.0376 30.6159 85.2088 30.9984 84.4279C31.3809 83.631 34.0106 76.2041 36.9113 67.6935C39.78 59.2785 42.4416 51.4373 42.84 50.2738L43.5572 48.1541ZM38.7281 71.4866C38.7281 71.5504 40.8159 71.5982 43.35 71.5982C45.9 71.5982 48.0037 71.5504 48.0356 71.4866C48.0675 71.4069 47.0634 68.2194 45.8044 64.3944C44.5453 60.5535 43.4616 57.4138 43.3978 57.4138C43.3341 57.4138 42.2503 60.5535 40.9913 64.3944C39.7481 68.2194 38.7281 71.4069 38.7281 71.4866ZM1.02 48.3294H28.9266L29.3887 51.7082C29.6278 53.5729 29.8509 55.2145 29.8669 55.342C29.8828 55.5013 29.7075 55.5969 29.325 55.6288C28.7831 55.6766 28.7672 55.6766 28.3847 54.6726C28.1138 53.9554 27.7631 53.4294 27.1894 52.8716C26.6634 52.3457 26.0419 51.9313 25.4203 51.6763C24.5278 51.3098 24.2569 51.2938 17.0531 51.1982V68.2513C17.0531 82.5791 17.085 85.3682 17.2762 85.7507C17.4037 85.9898 17.6747 86.3404 17.8819 86.5157C18.0891 86.707 18.5034 86.9938 18.8062 87.1373C19.1091 87.2966 19.9219 87.456 21.8344 87.6154V88.8107L8.36719 88.731L8.2875 87.5357H9.08437C9.53062 87.5357 10.2638 87.456 10.7259 87.3444C11.1881 87.2488 11.7619 86.9779 12.0169 86.7548C12.2719 86.5316 12.6066 86.0854 12.7341 85.7826C12.9572 85.2885 12.9891 83.3123 13.0687 51.1982L9.29156 51.246C6.19969 51.2938 5.37094 51.3416 4.78125 51.5648C4.38281 51.7241 3.71344 52.1066 3.28312 52.4413C2.85281 52.7601 2.37469 53.2063 2.19937 53.4294C2.04 53.6526 1.76906 54.2263 1.60969 54.7045C1.32281 55.5332 1.275 55.581 0.733125 55.6288C0.239062 55.6607 0.159375 55.6129 0.159375 55.3101C0.159375 55.1029 0.350625 53.4613 0.589687 51.6444L1.02 48.3294Z" fill="#5381B5"/>
</g>
</g>
<defs>
<clipPath id="clip0_126_107">
<rect width="102" height="102" fill="white"/>
</clipPath>
<clipPath id="clip1_126_107">
<rect width="102" height="76.6594" fill="white" transform="translate(0 12.7891)"/>
</clipPath>
</defs>
</svg>
