<svg width="102" height="102" viewBox="0 0 102 102" fill="none" xmlns="http://www.w3.org/2000/svg">
<g clip-path="url(#clip0_126_100)">
<path fill-rule="evenodd" clip-rule="evenodd" d="M2.73695 37.8906C3.20075 37.8906 3.58607 37.962 3.89289 38.1047C4.28891 38.2867 4.33172 38.351 4.23539 38.533C4.18188 38.6507 4.06414 38.7685 3.98922 38.8006C3.925 38.8327 3.67883 38.7899 3.45406 38.6936C3.24 38.6079 2.86538 38.533 2.62991 38.533C2.29811 38.533 2.16968 38.5865 2.04124 38.7792C1.95561 38.9184 1.9235 39.079 1.97702 39.1753C2.03053 39.261 2.20178 39.3894 2.37304 39.4537C2.54429 39.5179 2.97242 39.6571 3.32562 39.7641C3.67883 39.8712 4.07485 40.0746 4.20328 40.2138C4.37454 40.3851 4.44946 40.5885 4.44946 40.8882C4.44946 41.188 4.36383 41.4128 4.18188 41.6376C4.02133 41.8303 3.73234 42.0016 3.45406 42.0766C3.19718 42.1408 2.76905 42.1622 2.46936 42.1194C2.16968 42.0766 1.68803 41.9267 0.863884 41.5092L1.39904 40.9846L1.82717 41.2094C2.06264 41.3272 2.48007 41.4449 2.75835 41.4556C3.16507 41.477 3.31492 41.4235 3.50758 41.2308C3.70023 41.0381 3.73234 40.9525 3.63601 40.8026C3.57179 40.7062 3.24 40.5349 2.88679 40.4279C2.54429 40.3208 2.07335 40.1495 1.83788 40.0532C1.61311 39.9461 1.35623 39.7748 1.28131 39.6571C1.19568 39.5393 1.13146 39.2824 1.13146 39.1004C1.13146 38.9077 1.18498 38.6507 1.2385 38.533C1.29201 38.4152 1.50608 38.2225 1.69873 38.1047C1.94491 37.9442 2.22319 37.8906 2.73695 37.8906V37.8906ZM8.62371 37.8906H9.37293V42.0659H8.62371V37.8906ZM14.3392 37.8906C14.6282 37.8906 14.8102 38.0512 17.0257 40.6848L17.1328 37.9442L17.9355 37.8906V42.0659H17.593C17.2719 42.0659 17.1221 41.9374 14.7781 39.1967L14.7245 42.0659H13.8683L13.8469 40.0532C13.8362 38.9398 13.8683 37.9977 13.9218 37.9656C13.9753 37.9227 14.1573 37.8906 14.3392 37.8906ZM24.1969 37.912C24.8926 37.9334 25.1281 37.9977 25.8773 38.4794L25.3742 38.9826L24.8926 38.7471C24.5501 38.5758 24.2718 38.5223 23.9079 38.5437C23.5654 38.5758 23.3299 38.6721 23.1266 38.8541C22.966 39.004 22.7733 39.2503 22.6877 39.4215C22.6021 39.5821 22.5379 39.8284 22.5379 39.9782C22.5379 40.1281 22.6235 40.4279 22.7305 40.642C22.8269 40.8561 23.0623 41.1238 23.2336 41.2308C23.4369 41.3486 23.758 41.4235 24.0898 41.4235C24.443 41.4128 24.7534 41.3379 25.417 40.9418L25.6418 41.1559C25.7595 41.2736 25.8666 41.4021 25.8559 41.4556C25.8559 41.4985 25.6525 41.6483 25.4063 41.7875C25.1495 41.9374 24.7106 42.0873 24.4109 42.1194C24.122 42.1622 23.6831 42.1408 23.4476 42.0766C23.2122 42.023 22.8483 41.8625 22.6449 41.7233C22.4415 41.5841 22.1633 41.3058 22.0348 41.1023C21.8957 40.8989 21.7565 40.5564 21.7137 40.3529C21.6816 40.1495 21.703 39.7641 21.778 39.4965C21.8529 39.2288 22.0134 38.8756 22.1526 38.6936C22.281 38.5116 22.6021 38.2653 22.8697 38.1262C23.2657 37.9227 23.4691 37.8799 24.1969 37.912V37.912ZM29.9231 37.8906H33.3481V38.533H30.7793V39.6035H33.027V40.3529H30.7793V41.4235H33.3481V42.0659H29.9231V37.8906ZM66.7421 37.8906V42.0659L65.9394 42.0123L65.8859 38.64L65.5969 38.7043C65.4256 38.7364 65.2544 38.7685 65.2009 38.7792C65.1473 38.7899 65.0617 38.6721 65.0189 38.5116C64.9226 38.2225 64.944 38.2011 65.4363 38.0619C65.7146 37.9763 66.1213 37.9013 66.7421 37.8906V37.8906ZM76.1395 37.8906C76.4499 37.8906 76.8674 37.9763 77.0814 38.0833C77.2955 38.1797 77.5417 38.3938 77.6166 38.5651C77.7022 38.7257 77.7664 38.9505 77.7664 39.0683C77.7664 39.186 77.6487 39.4215 77.2313 39.9247L77.5524 40.1924C77.8199 40.4172 77.8735 40.5456 77.8735 40.9203C77.8735 41.2736 77.8199 41.4342 77.5845 41.659C77.4132 41.8089 77.0921 41.9909 76.8567 42.0552C76.6212 42.1194 76.3108 42.1729 76.1609 42.1729C76.0111 42.1729 75.7007 42.1194 75.4652 42.0552C75.2298 41.9802 74.9087 41.7875 74.7481 41.6269C74.5341 41.4128 74.4484 41.2094 74.4484 40.9418C74.4484 40.6634 74.5341 40.4814 75.0906 39.9247L74.823 39.6035C74.6732 39.4215 74.5555 39.186 74.5555 39.0683C74.5555 38.9505 74.6197 38.7257 74.7053 38.5651C74.7802 38.3938 75.0157 38.1797 75.2084 38.0833C75.4117 37.9763 75.8184 37.8906 76.1395 37.8906ZM75.3903 39.0468C75.401 39.2074 75.4866 39.4108 75.583 39.4965C75.6793 39.5821 75.9576 39.6571 76.1823 39.6571C76.5141 39.6571 76.6533 39.5928 76.8138 39.3894C76.9316 39.2395 77.0279 39.0897 77.0172 39.0468C77.0172 38.9933 76.9209 38.8648 76.8031 38.7471C76.664 38.6079 76.4499 38.533 76.1931 38.533C75.9683 38.533 75.69 38.5865 75.583 38.6507C75.4438 38.715 75.3796 38.8648 75.3903 39.0468V39.0468ZM75.3796 40.5564C75.2726 40.6527 75.187 40.8133 75.1977 40.9203C75.1977 41.0167 75.3261 41.1987 75.4973 41.3165C75.6579 41.4449 75.9469 41.5413 76.1395 41.5306C76.3215 41.5306 76.6105 41.4663 76.7603 41.4021C76.9102 41.3272 77.06 41.1452 77.0921 40.9953C77.1278 40.8169 77.0814 40.6634 76.953 40.5349C76.8352 40.4279 76.557 40.3208 76.3215 40.2994C76.086 40.278 75.8184 40.278 75.7328 40.3208C75.6472 40.3529 75.4866 40.46 75.3796 40.5564V40.5564ZM87.0033 37.9013C87.2816 37.8906 87.6883 37.9763 87.9024 38.0833C88.1485 38.2011 88.3412 38.3938 88.4375 38.6186C88.5124 38.8006 88.5767 39.0683 88.5767 39.2074C88.5767 39.3359 88.4803 39.6035 88.3626 39.7962C88.2449 39.9782 87.7739 40.4172 86.5002 41.37L88.5767 41.4235V42.0659H85.2587V41.7982C85.2587 41.5841 85.4834 41.3593 86.3183 40.7062C86.8963 40.2459 87.4528 39.7427 87.5492 39.5821C87.6455 39.4108 87.7204 39.2074 87.7204 39.1218C87.7204 39.0361 87.6241 38.8648 87.5063 38.7471C87.3886 38.6293 87.1638 38.533 87.0033 38.533C86.832 38.533 86.5216 38.6507 86.3076 38.8006C86.0828 38.9505 85.8688 39.0683 85.8259 39.0683C85.7724 39.079 85.6547 38.9933 85.5584 38.8863C85.3764 38.7043 85.3764 38.6828 85.6654 38.4045C85.8259 38.2439 86.0721 38.0726 86.222 38.0084C86.3718 37.9549 86.7143 37.9013 87.0033 37.9013V37.9013ZM97.3319 37.8906C97.6316 37.8906 98.0383 37.9656 98.2096 38.0512C98.3808 38.1369 98.6056 38.3189 98.6912 38.458C98.7768 38.5865 98.8517 38.8863 98.8517 39.1218C98.8517 39.3573 98.7661 39.6785 98.6591 39.8391C98.5628 39.9889 98.1132 40.4065 96.8717 41.37L98.9588 41.4235V42.0659H95.6408V41.7661C95.6301 41.5413 95.7478 41.3914 96.1438 41.1023C96.4221 40.8989 96.9359 40.5028 97.2784 40.2245C97.6102 39.9354 97.942 39.5928 97.9955 39.443C98.0704 39.261 98.0704 39.1004 97.9848 38.9291C97.9099 38.8006 97.8028 38.6614 97.7386 38.6186C97.6744 38.5758 97.4603 38.533 97.2784 38.533C97.0429 38.533 96.8074 38.6293 96.5827 38.8434C96.2295 39.1539 96.2295 39.1539 95.994 38.9505C95.8227 38.8113 95.7692 38.6936 95.8334 38.5758C95.8763 38.4794 96.101 38.2867 96.3365 38.1476C96.6362 37.9656 96.9252 37.8906 97.3319 37.8906V37.8906ZM5.89439 48.9282C6.12986 48.9282 6.65432 48.9711 7.07174 49.0246C7.47847 49.0888 8.37753 49.2601 9.05184 49.41C9.72614 49.5599 10.3683 49.699 10.4647 49.7312C10.5717 49.7526 10.7751 49.6776 10.9249 49.5599C11.0747 49.4421 11.2246 49.3779 11.2674 49.41C11.3209 49.4421 11.4065 50.0095 11.4815 50.6733C11.5564 51.3263 11.6099 52.2149 11.6206 53.4139H11.246C10.9142 53.4139 10.85 53.3604 10.6573 52.9857C10.5396 52.7502 10.2292 52.3434 9.96161 52.0757C9.69403 51.8081 9.13746 51.4334 8.69863 51.2193C8.28121 51.0159 7.5855 50.791 7.17878 50.7268C6.76135 50.6626 6.11916 50.6304 5.73384 50.6626C5.34853 50.6947 4.77055 50.8231 4.44946 50.9409C4.10696 51.0694 3.70023 51.3263 3.47547 51.5618C3.2614 51.7867 3.02593 52.0757 2.96171 52.2149C2.89749 52.3434 2.84398 52.7181 2.84398 53.0392C2.84398 53.5424 2.89749 53.6923 3.18648 54.0777C3.37914 54.3239 3.85008 54.7307 4.23539 54.9877C4.62071 55.2446 5.99072 55.994 7.28581 56.6364C8.5809 57.2894 9.9295 58.0281 10.2827 58.2743C10.6359 58.5313 11.1069 58.9488 11.3423 59.2057C11.5671 59.4627 11.8989 59.9873 12.0915 60.3727C12.3805 60.9936 12.4233 61.1756 12.4233 62.032C12.4233 62.8992 12.3912 63.0705 12.0808 63.6914C11.8668 64.1304 11.535 64.58 11.1711 64.9226C10.85 65.2224 10.2613 65.6399 9.85458 65.854C9.43715 66.0681 8.72004 66.3572 8.2491 66.4963C7.52128 66.6997 7.15737 66.7426 5.78736 66.7319C4.43875 66.7319 3.97852 66.6783 2.89749 66.4321C2.19108 66.2715 1.40975 66.1109 1.16357 66.0681C0.821071 66.0146 0.671226 66.036 0.499975 66.1859C0.371536 66.2822 0.243098 66.3465 0.189582 66.325C0.146769 66.3036 0.0825497 65.4472 0.0397369 64.4301C-0.0244824 62.9956 -0.0137791 62.5352 0.0932529 62.4282C0.157472 62.3532 0.31802 62.289 0.435756 62.2997C0.574897 62.2997 0.767555 62.5031 0.992322 62.8885C1.18498 63.2097 1.60241 63.6807 1.90209 63.927C2.21249 64.1625 2.75835 64.4944 3.11156 64.6657C3.46476 64.8262 4.06414 65.0189 4.44946 65.0939C4.85618 65.1688 5.49837 65.2009 6.00142 65.1688C6.49377 65.126 7.13596 64.9975 7.49987 64.8691C7.9387 64.6978 8.31332 64.4515 8.68793 64.0768C9.08395 63.6914 9.2766 63.3917 9.37293 63.0491C9.44786 62.7814 9.46926 62.3853 9.43715 62.1712C9.40504 61.9464 9.2766 61.5824 9.16957 61.3683C9.05184 61.1435 8.77355 60.7902 8.54879 60.5761C8.32402 60.3512 7.87448 60.0087 7.55339 59.8053C7.23229 59.6018 6.07635 59.013 4.98462 58.4777C3.89289 57.9532 2.71554 57.3322 2.36233 57.086C2.00913 56.8505 1.49537 56.4008 1.20639 56.1011C0.928103 55.8013 0.574897 55.2767 0.414349 54.9449C0.210988 54.4952 0.114659 54.0991 0.0825497 53.521C0.0504401 52.8679 0.0825497 52.6003 0.285911 52.0757C0.446459 51.6689 0.735445 51.2193 1.08865 50.8446C1.42045 50.4913 1.9235 50.1059 2.37304 49.8703C2.77976 49.6562 3.34703 49.3993 3.64672 49.3029C3.9357 49.2066 4.47086 49.0888 4.82407 49.0353C5.17728 48.9818 5.65892 48.9389 5.89439 48.9282ZM92.7509 48.9711C93.8641 48.9925 94.442 49.0674 95.2662 49.2815C95.8548 49.4314 96.7646 49.774 97.2998 50.0416C97.8349 50.2986 98.5949 50.791 99.0123 51.1336C99.419 51.4869 99.9863 52.0543 100.275 52.4076C100.554 52.7502 100.95 53.3818 101.153 53.7886C101.356 54.1955 101.624 54.9234 101.752 55.3945C101.956 56.0904 101.998 56.54 101.998 57.8568C102.009 59.2164 101.966 59.5911 101.763 60.3191C101.624 60.7902 101.324 61.561 101.099 62.032C100.864 62.5031 100.414 63.2097 100.083 63.6165C99.7615 64.0126 99.1728 64.5693 98.7661 64.8691C98.3701 65.1581 97.6851 65.5756 97.2463 65.7898C96.8074 66.0039 95.9833 66.3036 95.4267 66.4535C94.5384 66.689 94.1744 66.7212 92.5369 66.7319C91.0705 66.7426 90.4818 66.6997 89.8075 66.5392C89.3366 66.4321 88.5874 66.1966 88.1485 66.0146C87.7097 65.8326 87.0568 65.5221 86.7036 65.3187C86.3504 65.1153 85.6761 64.5479 85.2052 64.0768C84.7342 63.5951 84.1776 62.9206 83.9743 62.5673C83.7709 62.214 83.4712 61.561 83.3214 61.1221C83.1608 60.6831 82.9789 59.9551 82.904 59.5162C82.8183 59.013 82.7969 58.2101 82.829 57.3751C82.8719 56.4651 82.9575 55.7799 83.118 55.2339C83.2465 54.795 83.5462 54.0456 83.7923 53.5852C84.0706 53.0606 84.5309 52.4183 84.9911 51.9365C85.3978 51.4976 86.0079 50.9516 86.329 50.7375C86.6501 50.5127 87.2067 50.1915 87.5599 50.0095C87.9131 49.8382 88.6088 49.5599 89.1118 49.41C89.6149 49.2494 90.3106 49.0781 90.6638 49.0246C91.017 48.9711 91.9589 48.9496 92.7509 48.9711V48.9711ZM89.3794 51.2728C89.0262 51.4441 88.5017 51.7974 88.2128 52.0436C87.9131 52.3005 87.4635 52.8465 87.1852 53.2533C86.9177 53.6602 86.5645 54.3989 86.4039 54.8913C86.2434 55.3731 86.0614 56.1225 85.9972 56.54C85.9223 56.9896 85.9009 57.7819 85.933 58.3921C85.9651 58.9809 86.0935 59.8481 86.222 60.3191C86.3504 60.7902 86.6501 61.561 86.8963 62.0213C87.1852 62.5673 87.5813 63.1133 87.988 63.5094C88.384 63.9056 88.9085 64.2803 89.3794 64.5051C89.7861 64.7085 90.4604 64.944 90.8779 65.0297C91.2846 65.1153 91.991 65.1902 92.4298 65.1902C92.8687 65.1902 93.5644 65.1153 93.9818 65.0297C94.3885 64.944 95.0414 64.7192 95.4267 64.5265C95.887 64.3124 96.3793 63.927 96.8824 63.4345C97.4175 62.8885 97.7493 62.4389 98.0276 61.8715C98.2524 61.4325 98.5306 60.6831 98.6484 60.2121C98.8303 59.5376 98.8839 59.0451 98.8839 57.9103C98.8839 56.7648 98.8303 56.2831 98.6484 55.6086C98.5199 55.1376 98.2417 54.3882 98.0169 53.9492C97.7493 53.3925 97.3854 52.9108 96.8717 52.3862C96.4114 51.9151 95.8763 51.4976 95.4802 51.2942C95.127 51.1229 94.5491 50.8981 94.1959 50.8017C93.7891 50.6947 93.1255 50.6411 92.3763 50.6411C91.702 50.6411 90.9421 50.7161 90.6103 50.8017C90.2892 50.8874 89.7326 51.1015 89.3794 51.2728V51.2728ZM48.2684 49.1316H50.2057L58.5542 65.7791L59.0037 65.9932C59.2499 66.1109 59.4532 66.2715 59.4639 66.3358C59.4639 66.4428 58.8753 66.4749 56.8417 66.4749C54.8188 66.4749 54.2194 66.4428 54.2194 66.3358C54.2194 66.2715 54.3264 66.1645 54.4548 66.1002C54.594 66.036 54.7438 65.8754 54.7866 65.7255C54.8616 65.5007 54.7117 65.1046 52.935 61.4432L44.244 61.4968L43.3449 63.3703C42.6706 64.7727 42.4565 65.3401 42.478 65.6185C42.4887 65.8861 42.5636 66.0253 42.7455 66.1002C42.874 66.1645 42.981 66.2715 42.981 66.3358C42.981 66.4428 42.4994 66.4749 40.9474 66.4749C39.663 66.4749 38.9138 66.4321 38.9138 66.3679C38.9138 66.3036 39.085 66.1859 39.2884 66.1002C39.4918 66.0146 39.8129 65.7362 39.9948 65.4793C40.1768 65.2331 42.114 61.4539 44.2975 57.0753L48.2684 49.1316ZM45.1431 59.6768C47.8189 59.7303 49.4029 59.7303 50.3769 59.7089L52.1429 59.6768C49.5207 54.1633 48.7179 52.5575 48.6751 52.5575C48.6216 52.5575 47.8081 54.1633 46.8663 56.1225L45.1431 59.6768ZM20.4936 49.2387C22.0562 49.2387 22.5272 49.2708 22.5272 49.3672C22.5272 49.4421 22.3987 49.6134 21.992 49.9881V56.8398H31.1968V53.4139C31.1968 51.5297 31.1754 49.9132 31.1433 49.8275C31.1218 49.7419 31.0255 49.6669 30.9292 49.6669C30.8436 49.6669 30.7686 49.5706 30.7686 49.4528C30.7686 49.2494 30.8436 49.2387 32.7487 49.2387C34.2686 49.2387 34.7288 49.2708 34.7288 49.3672C34.7288 49.4421 34.6325 49.592 34.5148 49.6883C34.397 49.7954 34.2793 50.0416 34.2472 50.2236C34.2151 50.4163 34.2044 54.0135 34.2472 65.854L34.4934 66.0574C34.6218 66.1645 34.7288 66.3036 34.7288 66.3679C34.7288 66.4321 34.001 66.4749 32.7487 66.4749C31.2396 66.4749 30.7686 66.4428 30.7686 66.3358C30.7686 66.2715 30.865 66.143 30.9827 66.0681C31.1968 65.9396 31.1968 65.8219 31.1968 58.5527H21.992V62.0856C21.992 64.1946 22.0348 65.7255 22.099 65.8861C22.1633 66.036 22.281 66.1538 22.3666 66.1538C22.463 66.1538 22.5272 66.2287 22.5272 66.3143C22.5272 66.4535 22.2382 66.4749 20.4936 66.4749C18.7596 66.4749 18.46 66.4535 18.46 66.3143C18.46 66.2287 18.5349 66.1538 18.6205 66.1538C18.7168 66.1538 18.8346 66.0574 18.8881 65.9396C18.963 65.8005 18.9951 62.8885 18.9951 49.9881L18.7382 49.7419C18.5884 49.6134 18.4707 49.4421 18.4707 49.3672C18.46 49.2708 18.9416 49.2387 20.4936 49.2387V49.2387ZM67.8446 49.2708C71.4729 49.3136 72.0402 49.3458 72.9393 49.5492C73.5065 49.6669 74.3093 49.9453 74.7374 50.1487C75.1655 50.3521 75.7114 50.7054 75.9683 50.9409C76.2145 51.1657 76.5463 51.5833 76.7068 51.8723C76.8674 52.1614 77.0493 52.7074 77.1135 53.0928C77.1885 53.4782 77.2099 54.0242 77.167 54.3239C77.1242 54.6237 76.9958 55.0947 76.8674 55.3838C76.7282 55.6943 76.4178 56.1118 76.0967 56.4008C75.797 56.6685 75.2833 57.0004 74.9515 57.1288C74.609 57.268 74.3307 57.4179 74.3307 57.4821C74.3307 57.5463 74.3949 57.5892 74.4698 57.5892C74.5448 57.5892 74.9194 57.739 75.294 57.921C75.6793 58.103 76.2359 58.4242 76.5249 58.649C76.8245 58.8739 77.2206 59.2914 77.4025 59.5804C77.5952 59.8695 77.8306 60.4155 77.927 60.8009C78.0447 61.2934 78.0768 61.6681 78.0233 62.0856C77.9805 62.4067 77.852 62.942 77.7343 63.2632C77.5738 63.6807 77.3169 64.0447 76.8567 64.5051C76.4713 64.8905 75.9255 65.2973 75.508 65.5114C75.1334 65.7041 74.3628 65.9825 73.7955 66.1323C72.7894 66.4107 72.7359 66.4107 68.262 66.4428C64.3018 66.4749 63.7345 66.4535 63.7345 66.3143C63.7345 66.2287 63.8201 66.1323 63.9272 66.1002C64.0235 66.0788 64.1519 65.9503 64.1948 65.8112C64.2376 65.672 64.2697 62.0642 64.2697 49.9881L64.0128 49.7526C63.863 49.6134 63.7452 49.4421 63.7559 49.3565C63.7666 49.2387 64.4409 49.228 67.8446 49.2708V49.2708ZM67.6519 51.0051L67.2345 51.0694L67.2666 56.6257C70.6167 56.6257 71.3552 56.5828 71.794 56.4651C72.1258 56.3794 72.5861 56.2081 72.8108 56.1011C73.0249 55.994 73.346 55.7585 73.5173 55.5979C73.6885 55.4266 73.8919 55.1483 73.9882 54.9663C74.0738 54.795 74.1809 54.356 74.213 54.0027C74.2558 53.4568 74.2237 53.2641 73.9775 52.7502C73.7848 52.3219 73.5494 52.0329 73.239 51.8081C72.9821 51.6261 72.4897 51.3798 72.1365 51.2728C71.7833 51.155 70.9485 51.0051 70.2635 50.9516C69.5892 50.8981 68.8721 50.8553 68.658 50.8553C68.4546 50.8553 68.2406 50.8767 68.1764 50.8981C68.1228 50.9195 67.8874 50.9623 67.6519 51.0051V51.0051ZM67.2666 64.5479C67.6519 64.7513 68.3155 64.8262 69.0861 64.8477C69.9638 64.8798 70.7451 64.8369 71.3338 64.7299C71.8368 64.6442 72.5111 64.473 72.8322 64.3445C73.164 64.2267 73.635 63.9484 73.8919 63.7236C74.1487 63.4987 74.4698 63.124 74.5876 62.8885C74.7588 62.5566 74.8123 62.2676 74.8123 61.6573C74.8016 61.0578 74.7481 60.7474 74.5769 60.4262C74.4591 60.1907 74.213 59.8695 74.0524 59.7089C73.8812 59.5483 73.5065 59.3021 73.2069 59.1522C72.9179 59.0023 72.3399 58.8096 71.9225 58.7133C71.5158 58.6169 70.5739 58.4992 69.8353 58.4456C69.1075 58.3921 68.2192 58.3386 67.8874 58.3386H67.2666V64.5479Z" fill="#5381B5"/>
<path d="M42.6063 37.3874C42.5742 37.3338 42.5528 36.7879 42.5528 36.1562V35H56.2529V36.1562C56.2529 36.7879 56.2315 37.3338 56.1994 37.3874C56.1673 37.4302 56.0175 37.3767 55.8569 37.2803C55.6107 37.1197 55.2575 37.0876 51.2224 37.0341V39.2823H53.1169C54.1765 39.2823 55.2147 39.2288 55.4502 39.1645C55.6857 39.1003 55.9104 38.9932 55.9425 38.9183C55.9854 38.8541 56.071 38.8327 56.1352 38.8862C56.2101 38.929 56.2529 39.4536 56.2529 40.3529C56.2529 41.2093 56.2101 41.7446 56.1459 41.7446C56.0924 41.7446 55.9104 41.659 55.7499 41.5626C55.5037 41.402 55.1505 41.3699 51.2224 41.3164V43.5646L54.0802 43.5325C55.9104 43.5111 57.0771 43.4468 57.2911 43.3719C57.4838 43.2969 57.6444 43.2006 57.6444 43.1364C57.6444 43.0721 57.6979 43.0507 57.7514 43.0828C57.8156 43.1149 57.8584 43.6395 57.8584 45.4916L41.1079 45.4381L41.0758 44.3675C41.0651 43.7787 41.0758 43.2327 41.1079 43.1685C41.1507 43.0614 41.2792 43.0935 41.611 43.2755C42.0498 43.5004 42.1782 43.5111 47.5298 43.5111L47.5833 41.3164L45.4641 41.3485C43.6553 41.3699 43.3021 41.402 43.0559 41.5626C42.8953 41.659 42.7241 41.7446 42.6599 41.7446C42.5956 41.7446 42.5528 41.22 42.5528 40.385C42.5528 39.6249 42.5742 38.9825 42.6063 38.9397C42.6385 38.8862 42.8204 38.9397 43.0024 39.0468C43.3021 39.1966 43.6981 39.2288 47.5833 39.2823V37.0341L45.4106 37.0662C43.5482 37.0876 43.195 37.1197 42.9489 37.2803C42.7883 37.3767 42.6385 37.4302 42.6063 37.3874Z" fill="#5381B5"/>
</g>
<defs>
<clipPath id="clip0_126_100">
<rect width="102" height="102" fill="white"/>
</clipPath>
</defs>
</svg>
