<svg width="102" height="102" viewBox="0 0 102 102" fill="none" xmlns="http://www.w3.org/2000/svg">
<path fill-rule="evenodd" clip-rule="evenodd" d="M52.5702 35.6339C52.1173 35.6789 51.6632 35.5433 51.2103 35.4528C50.5756 35.3166 49.8954 35.4528 49.2602 35.6795C48.8067 35.7707 48.3082 35.7707 47.8997 35.9968C47.3107 36.3142 46.721 36.4503 46.3126 36.9944C45.9952 37.4029 45.6323 37.6752 45.5418 38.1281C45.4962 38.7177 45.5873 39.2618 46.0402 39.6247C46.2214 39.8059 46.4487 39.8059 46.4937 39.9876C46.4481 40.3955 46.2214 40.7584 46.1308 41.1213C45.8585 41.5298 46.4937 41.8015 46.267 42.2094L45.405 43.751C45.2694 43.9778 45.1333 44.2045 45.1333 44.4768C45.2239 44.8853 45.7685 44.7486 46.0402 44.9759C46.2214 45.2482 45.9047 45.4294 45.9047 45.6561C45.8591 45.8373 46.1764 45.9284 46.0402 46.0646C45.8591 46.3819 46.1764 46.5637 46.267 46.8354C46.3126 47.1527 46.0858 47.5612 46.3126 47.833C46.9928 48.332 48.0809 47.9235 48.8067 48.2864C49.124 48.5588 49.0785 49.0572 49.0785 49.4201C48.8517 51.1435 48.0353 52.594 46.9922 53.955C46.9016 54.0906 46.7655 54.3179 46.8566 54.499C46.9922 54.5896 47.2195 54.5896 47.4007 54.499C49.3052 53.8638 50.8468 52.186 52.7063 51.3697C53.4771 51.0073 54.2479 50.9162 55.0649 50.735C55.246 50.5533 55.1549 50.3265 55.1099 50.0998C54.702 49.0567 54.2479 48.0591 54.3391 46.8343C54.3841 46.4264 54.837 46.3358 55.1549 46.154C55.6539 46.0179 55.9719 45.5188 56.153 45.0659C56.5609 44.5218 57.105 43.9772 57.1506 43.252C57.1956 42.6168 57.1506 41.9365 57.3317 41.3475C57.5585 40.7122 57.4217 40.0326 57.2406 39.443C57.1506 38.6721 56.9238 37.9913 56.4248 37.4023C55.9257 36.7221 55.1549 36.6315 54.5653 36.1774C54.0218 35.6789 53.296 35.6339 52.5702 35.6339ZM4.86447 59.0333L4.13924 59.3956V59.1689C4.13924 58.7154 4.04866 58.3981 3.86692 58.2619C3.73076 58.0807 3.41344 57.9896 3.00496 57.9896C2.64263 57.9896 2.37031 58.0802 2.14357 58.2619C1.96241 58.3981 1.82625 58.6248 1.82625 58.8971C1.82625 59.305 2.23415 59.7135 3.09554 60.167C3.2317 60.212 3.36786 60.3026 3.41286 60.3482C4.13867 60.7105 4.59215 61.0734 4.81889 61.3457C5.04563 61.6636 5.13621 62.0715 5.13621 62.57C5.13621 63.2052 4.90947 63.7493 4.45599 64.1122C3.95693 64.5201 3.32228 64.7012 2.46089 64.7012C2.27973 64.7012 2.00741 64.6562 1.64451 64.6562C1.23603 64.6562 0.919285 64.6107 0.692543 64.6107V62.3432L1.41777 61.9803V62.2527C1.41777 62.8879 1.50835 63.3414 1.69009 63.5675C1.87183 63.7937 2.23415 63.9304 2.73322 63.9304C3.09612 63.9304 3.41344 63.7943 3.59518 63.6125C3.82192 63.4314 3.9125 63.1141 3.9125 62.7512C3.9125 62.2527 3.5496 61.7992 2.82437 61.3913C2.73322 61.3457 2.68821 61.3457 2.64321 61.3007L2.55263 61.2551C1.23718 60.5749 0.602539 59.8491 0.602539 59.1694C0.602539 58.5798 0.82928 58.1263 1.23718 57.7634C1.64566 57.4455 2.18973 57.2644 2.91495 57.2644C3.00554 57.2644 3.27786 57.2644 3.73134 57.3099C4.18482 57.3099 4.54772 57.3555 4.86505 57.3555L4.86447 59.0333ZM9.67162 60.4393C9.3993 60.3487 9.12755 60.2582 8.85523 60.212C8.62849 60.167 8.35617 60.1214 8.12943 60.1214C7.90269 60.1214 7.72152 60.167 7.58536 60.212C7.44978 60.212 7.35862 60.3026 7.31362 60.3482C7.17746 60.5287 7.08688 60.7105 6.9963 60.9828C6.95072 61.2551 6.90572 61.5269 6.90572 61.8442C6.90572 62.4794 7.04188 62.9785 7.3142 63.2502C7.58594 63.5231 8.03942 63.7043 8.62907 63.7043C8.76523 63.7043 8.90081 63.6587 9.08255 63.6587C9.26371 63.6587 9.53603 63.6131 9.85335 63.5681L9.53603 64.5657C9.26429 64.6107 9.03755 64.6562 8.81081 64.6562C8.62964 64.6562 8.49348 64.7012 8.35732 64.7012C7.54094 64.7012 6.90629 64.4745 6.45281 63.9754C5.95433 63.5225 5.72759 62.8873 5.72759 62.1159C5.72759 61.2545 5.99933 60.5743 6.49839 60.0753C6.99688 59.5768 7.6771 59.3045 8.53906 59.3045H8.94754C9.12871 59.35 9.26487 59.35 9.44603 59.395L9.67162 60.4393ZM11.8934 58.4892V60.2576C12.1202 59.9397 12.3925 59.7135 12.6643 59.5318C12.945 59.3876 13.2551 59.3098 13.5706 59.3045C14.1153 59.3045 14.5232 59.4856 14.7499 59.8035C14.9767 60.1208 15.1128 60.6649 15.1128 61.4813V62.7962C15.1128 63.2946 15.1584 63.612 15.249 63.7031C15.3396 63.8387 15.5207 63.9299 15.7931 63.9749L15.5663 64.5645H13.1177L13.2989 63.9749C13.5706 63.9299 13.7524 63.8393 13.843 63.7481C13.9335 63.612 13.9791 63.2491 13.9791 62.7506V61.7074C13.9791 61.1634 13.8885 60.8005 13.7518 60.5737C13.6162 60.347 13.4345 60.2564 13.1172 60.2564C12.7087 60.2564 12.3914 60.392 12.1646 60.6643C11.9829 60.9816 11.8923 61.3901 11.8923 61.9792V62.9312C11.8923 63.3846 11.9379 63.657 12.0285 63.7475C12.1646 63.8831 12.3914 63.9287 12.7087 63.9743L12.5275 64.5639H9.94278L10.1239 63.9743C10.3963 63.9293 10.5324 63.8387 10.623 63.7025C10.7136 63.5664 10.7592 63.2485 10.7592 62.7956V58.1246C10.7592 57.6711 10.7136 57.3988 10.623 57.3082C10.4868 57.172 10.2601 57.0815 9.8972 57.0815L10.0784 56.4918C10.3957 56.4468 10.7136 56.3562 11.0309 56.3107C11.3482 56.2207 11.62 56.1295 11.9379 56.0383C11.9379 56.6736 11.8923 57.172 11.8923 57.5355C11.8934 57.899 11.8934 58.2169 11.8934 58.4892ZM18.3328 59.4412L18.1516 60.0303C17.9249 60.0303 17.7887 60.0753 17.7431 60.1208C17.6526 60.1664 17.607 60.257 17.607 60.3932C17.607 60.4837 17.6976 60.6655 17.7881 61.0284C17.8787 61.2095 17.9243 61.3913 17.9693 61.4819L18.6045 63.2958L19.4659 61.3913L19.6021 60.9828C19.6477 60.8472 19.6477 60.7105 19.6477 60.5749C19.6477 60.3937 19.6021 60.212 19.5115 60.167C19.3753 60.0758 19.1942 60.0308 18.9219 60.0308H18.7863L18.9674 59.4418H21.5066L21.2798 60.0308C21.0531 60.0308 20.9169 60.0758 20.8264 60.167C20.7358 60.212 20.6902 60.3482 20.6902 60.5293C20.6902 60.6199 20.7808 60.8928 20.9169 61.3457L20.9625 61.4819L21.5977 63.2496L22.278 61.5724C22.4141 61.2545 22.5047 61.0284 22.5953 60.8466C22.6409 60.6655 22.6859 60.5287 22.6859 60.4387C22.6859 60.3026 22.5953 60.1664 22.5047 60.1208C22.3149 60.0575 22.1157 60.0269 21.9156 60.0303L22.1424 59.4412H24.0925C23.6423 60.2584 23.2188 61.0901 22.8226 61.9348C22.4597 62.7967 22.0974 63.6581 21.7795 64.5657L21.0087 64.7012C20.9181 64.3839 20.8275 64.066 20.7364 63.7943C20.6458 63.5225 20.5552 63.2958 20.5096 63.1141L20.0111 61.708L19.3309 63.0685C19.2403 63.2041 19.0586 63.612 18.7868 64.2928L18.6957 64.5651L17.9249 64.7007L17.8343 64.3378C16.9273 61.4357 16.2927 60.0297 15.8842 60.0297H15.7931L15.9742 59.4406L18.3328 59.4412ZM26.8584 62.4344V61.8903L25.9964 62.2532C25.6791 62.3894 25.4524 62.5256 25.3162 62.6611C25.18 62.7973 25.0894 62.979 25.0894 63.1602C25.0894 63.3869 25.18 63.5231 25.3162 63.6587C25.4524 63.7943 25.6335 63.8399 25.8153 63.8399C26.1782 63.8399 26.4505 63.7493 26.5861 63.5225C26.7678 63.2958 26.8584 62.9329 26.8584 62.4344ZM27.9465 62.6156V62.8423C27.9465 63.3414 27.9921 63.6131 28.0827 63.7043C28.1732 63.8399 28.355 63.931 28.6267 63.931L28.3994 64.5662H26.8578V63.931C26.6934 64.1729 26.4762 64.3744 26.2226 64.5201C25.9503 64.6107 25.7241 64.7012 25.4062 64.7012C24.9983 64.7012 24.6354 64.5657 24.3631 64.3383C24.0907 64.066 23.9552 63.7493 23.9552 63.3408C23.9552 63.0229 24.0457 62.7056 24.2725 62.4788C24.4536 62.2521 24.8166 62.0259 25.3606 61.7986L26.8572 61.1634V60.8916C26.8572 60.6187 26.7666 60.4382 26.6755 60.3476C26.5399 60.257 26.3132 60.2114 25.9503 60.2114C25.7691 60.2114 25.5874 60.2114 25.315 60.257C25.0883 60.257 24.771 60.302 24.3631 60.3926L24.726 59.5312C24.9983 59.4406 25.27 59.395 25.5424 59.35C25.8147 59.3045 26.0414 59.3045 26.2682 59.3045C26.5405 59.3045 26.8122 59.3044 27.039 59.395C27.2657 59.4406 27.4469 59.5762 27.583 59.7129C27.7192 59.8035 27.8098 59.9397 27.8553 60.1664C27.9009 60.3476 27.9459 60.7099 27.9459 61.2545L27.9465 62.6156ZM29.7604 62.7973V61.3007C29.7604 60.8472 29.7149 60.5749 29.6243 60.4843C29.5337 60.3937 29.307 60.3032 28.944 60.3032L29.1708 59.7141C29.3975 59.6685 29.6699 59.6235 29.9416 59.5779C30.1683 59.5329 30.4401 59.4423 30.758 59.3512V60.7572C30.8941 60.2587 31.1209 59.8958 31.4382 59.6685C31.7555 59.3962 32.1634 59.3056 32.6625 59.3056H32.7081L32.2996 60.4399H31.9367C31.5288 60.4399 31.2565 60.5755 31.1203 60.8478C30.9391 61.1201 30.848 61.6186 30.848 62.3444V62.9335C30.848 63.387 30.9386 63.6593 31.0747 63.7949C31.1653 63.8854 31.4376 63.976 31.8455 63.976L31.6644 64.5657H28.9435L29.1246 63.976C29.3514 63.931 29.5331 63.8404 29.6237 63.7043C29.7149 63.5681 29.7604 63.2958 29.7604 62.7973ZM36.4265 59.4412L36.6533 60.0303C36.1542 60.6655 35.6557 61.3001 35.2478 61.9348C34.7943 62.57 34.4314 63.2046 34.0685 63.8849H35.0205C35.2928 63.8849 35.5196 63.7943 35.6557 63.6581C35.7919 63.522 35.928 63.2046 36.0642 62.7512H36.7444L36.3821 64.5657H32.8448L32.6175 63.976C33.1166 63.2958 33.57 62.6611 33.9779 62.0265C34.4178 61.4125 34.8265 60.7766 35.2022 60.1214H34.477C34.1141 60.1214 33.8874 60.167 33.7512 60.2576C33.615 60.3932 33.4795 60.6199 33.3883 60.9828H32.7537L33.071 59.4412H36.4265ZM38.9663 58.5792V61.2551C39.4197 61.0284 39.7371 60.8016 39.9638 60.6661C40.145 60.4849 40.2361 60.3487 40.2361 60.2582C40.2361 60.1676 40.1905 60.122 40.1455 60.0764C40.055 60.0314 39.9644 60.0314 39.8732 60.0314H39.7371L39.9638 59.4423H42.458L42.2312 60.0314C41.8227 60.0314 41.1881 60.3493 40.4173 60.9834C40.3267 61.029 40.2361 61.1195 40.145 61.1645C40.4623 61.3457 40.8252 61.7998 41.2787 62.525C41.596 62.9785 41.8227 63.3414 41.9589 63.5681C42.095 63.7043 42.1856 63.7949 42.3212 63.8404C42.4124 63.931 42.5935 63.931 42.7747 63.976L42.548 64.5657H41.1881C41.025 64.2916 40.8589 64.0195 40.6896 63.7493C39.8732 62.3894 39.3292 61.573 38.9663 61.3913V62.7512C38.9663 63.2952 39.0118 63.6581 39.1474 63.7487C39.238 63.8843 39.4647 63.9299 39.7821 63.9754L39.6009 64.5651H37.0612L37.2423 63.9754C37.5146 63.9304 37.6502 63.8399 37.7408 63.7037C37.832 63.5675 37.877 63.2496 37.877 62.7967V58.1257C37.877 57.6723 37.8314 57.3999 37.6958 57.3094C37.6052 57.1732 37.3785 57.0826 37.0156 57.0826L37.1967 56.493C37.5141 56.448 37.832 56.3574 38.1037 56.3118C38.421 56.2218 38.7389 56.1307 39.0107 56.0395C39.0107 56.4024 39.0107 56.7203 38.9651 57.0832C38.9663 57.4455 38.9663 57.9446 38.9663 58.5792ZM46.5849 62.2527C46.5849 61.4819 46.4487 60.9378 46.222 60.6199C45.9497 60.3026 45.5417 60.1214 44.9521 60.1214C44.5436 60.1214 44.2269 60.2576 44.0901 60.4843C43.909 60.6655 43.8184 61.1195 43.8184 61.7086C43.8184 62.4794 43.9546 63.0235 44.1807 63.3414C44.453 63.6587 44.8609 63.7943 45.4506 63.7943C45.8585 63.7943 46.1758 63.7043 46.312 63.477C46.4937 63.2502 46.5849 62.8423 46.5849 62.2527ZM45.4056 59.305C46.1314 59.305 46.721 59.5324 47.1289 59.9403C47.5368 60.3937 47.7636 61.029 47.7636 61.7998C47.7636 62.6611 47.4913 63.387 46.9928 63.8854C46.4943 64.4295 45.8591 64.6568 44.9977 64.6568C44.2719 64.6568 43.6828 64.4757 43.2743 64.0216C42.8209 63.5681 42.6391 62.9785 42.6391 62.1621C42.6391 61.3007 42.8659 60.5749 43.3649 60.0758C43.864 59.5318 44.5442 59.305 45.4056 59.305ZM50.076 63.7493L50.6201 63.7943H51.028C51.4814 63.7943 51.8438 63.6587 52.0717 63.2958C52.3434 62.9785 52.4346 62.525 52.4346 61.8898C52.4346 61.3007 52.3434 60.8922 52.1617 60.5749C51.9805 60.2576 51.7088 60.1214 51.3003 60.1214C50.8918 60.1214 50.5751 60.3026 50.3477 60.6199C50.1666 60.9378 50.0754 61.4819 50.0754 62.2077L50.076 63.7493ZM50.031 60.167C50.3033 59.8491 50.5295 59.6229 50.8018 59.4862C51.0741 59.3506 51.3459 59.305 51.7093 59.305C52.2534 59.305 52.7069 59.5323 53.0692 59.9858C53.4321 60.3937 53.6133 60.9834 53.6133 61.6636C53.6133 62.1165 53.5683 62.525 53.3865 62.9329C53.1976 63.3514 52.9186 63.7232 52.5696 64.0216C52.3428 64.2939 52.0255 64.4295 51.7088 64.5201C51.3909 64.6562 50.8918 64.7012 50.3027 64.7012H50.0754V65.2903C50.0754 65.7894 50.1666 66.1067 50.3477 66.2429C50.4839 66.424 50.8918 66.5152 51.4814 66.5152L51.2547 67.1042H48.0803L48.2615 66.5152C48.5338 66.5152 48.715 66.4246 48.8056 66.2879C48.8961 66.1523 48.9411 65.8799 48.9411 65.517V61.254C48.9411 60.8005 48.8961 60.4832 48.8056 60.3926C48.715 60.302 48.4882 60.257 48.1703 60.257L48.3515 59.6218C48.6688 59.6218 48.9406 59.5312 49.2129 59.4856C49.4852 59.4406 49.7569 59.35 50.0293 59.3045V60.167H50.031ZM57.7852 56.9926H56.7877C56.4698 56.9926 56.2436 57.0376 56.153 57.1732C56.0619 57.3094 56.0169 57.6267 56.0169 58.2169V59.4412H57.4223L57.1956 60.1214H56.0169V62.525C56.0169 63.1602 56.0619 63.5681 56.2436 63.7043C56.3798 63.8399 56.6965 63.931 57.1956 63.976L57.0144 64.5657H54.0668L54.2479 63.976C54.5208 63.931 54.702 63.8404 54.747 63.7043C54.837 63.5681 54.8831 63.2958 54.8831 62.7973V60.1214H54.1123L54.3841 59.4412H54.8831V58.6248C54.8831 57.6728 55.0643 57.0376 55.4722 56.6297C55.8351 56.2668 56.4698 56.0857 57.3767 56.0857H58.0575L57.7852 56.9926ZM64.1801 63.3864L62.5474 61.3007C62.3206 61.4819 62.1394 61.6636 62.0033 61.8898C61.9121 62.0709 61.8221 62.2977 61.8221 62.525C61.8221 62.8879 61.9583 63.2052 62.185 63.4314C62.4568 63.6587 62.7291 63.7943 63.092 63.7943C63.2732 63.7943 63.4999 63.7493 63.6811 63.7043C63.8622 63.6131 64.044 63.5225 64.1801 63.3864ZM65.4488 57.4005L65.0409 58.3981H63.4082C63.0914 58.3981 62.8191 58.4431 62.6374 58.5787C62.4562 58.6698 62.3656 58.8515 62.3656 59.0777C62.3656 59.2133 62.4106 59.35 62.5468 59.5762C62.6818 59.8035 62.9097 60.1203 63.2726 60.5282L64.8592 62.5238C64.9503 62.4333 64.9953 62.2965 65.0404 62.1154C65.0854 61.9798 65.0854 61.798 65.0854 61.6169C65.0854 61.1634 64.9503 60.8005 64.7225 60.5737C64.4507 60.347 64.0878 60.2108 63.5437 60.1658L63.8166 59.44H66.6731L66.4002 60.1658H65.3127C65.4938 60.3926 65.6294 60.5737 65.7206 60.8461C65.7656 61.0728 65.8106 61.2995 65.8106 61.5719C65.8106 61.8436 65.7656 62.1154 65.7206 62.3883C65.6294 62.66 65.4938 62.8867 65.3577 63.1135C65.5388 63.3858 65.7656 63.612 65.9923 63.7031C66.2652 63.8387 66.5364 63.8837 66.9443 63.8837H66.9904L66.7175 64.5645H65.0848L64.6769 63.9293C64.3699 64.1659 64.0348 64.3638 63.6793 64.5184C63.4064 64.6089 63.0903 64.6995 62.7274 64.6995C62.1383 64.6995 61.6387 64.5183 61.2758 64.201C60.8678 63.8381 60.6867 63.4296 60.6867 62.9312C60.6867 62.5683 60.8228 62.2059 61.0496 61.888C61.2763 61.5251 61.6387 61.2078 62.1383 60.8449L61.8654 60.437C61.6842 60.2097 61.5475 60.0285 61.4575 59.8474C61.4125 59.7118 61.3663 59.575 61.3663 59.4395C61.3663 59.2121 61.4575 58.9404 61.6392 58.6231C61.866 58.3058 62.0921 57.9879 62.41 57.7161C62.5912 57.5805 62.7279 57.4894 62.8641 57.4438C62.9991 57.3988 63.272 57.3988 63.6349 57.3988H65.4488V57.4005ZM73.2492 57.4005L73.068 57.9896C72.7051 58.0352 72.4334 58.1257 72.3422 58.2619C72.2061 58.3981 72.1611 58.7154 72.1611 59.2595V60.257H75.2004V59.2133C75.2004 58.6698 75.1543 58.3069 75.0193 58.1702C74.8381 58.0796 74.5652 57.989 74.1123 57.989L74.2935 57.3999H77.24L77.0132 57.989H76.877C76.6959 57.989 76.5603 58.0796 76.4692 58.2613C76.3792 58.4425 76.3791 58.8966 76.3791 59.6218V62.1609C76.3791 62.9317 76.4241 63.3852 76.5603 63.612C76.6953 63.8393 76.9232 63.9299 77.2861 63.9749L77.0594 64.5645H74.0656L74.2935 63.9749C74.6564 63.9299 74.8825 63.8393 75.0193 63.7031C75.1543 63.567 75.2004 63.3402 75.2004 62.9773V61.0272H72.1611V62.705C72.1611 63.2941 72.2061 63.657 72.3422 63.7481C72.5234 63.8837 72.7963 63.9293 73.2492 63.9749L73.068 64.5645H70.1204L70.3483 63.9749H70.3933C70.62 63.9749 70.8012 63.8843 70.8462 63.7031C70.9374 63.567 70.9824 63.2491 70.9824 62.7506V59.8485C70.9824 59.0327 70.9374 58.5336 70.8012 58.3069C70.665 58.1257 70.4383 57.989 70.0754 57.989L70.2566 57.3999L73.2492 57.4005ZM80.7317 61.7992H79.9158C79.5529 61.8442 79.19 61.8442 78.7821 61.8898V61.9348C78.7821 62.4788 78.9171 62.8873 79.235 63.2046C79.5529 63.5225 79.9608 63.6581 80.5049 63.6581C80.7767 63.6581 81.004 63.6125 81.2757 63.6125C81.5475 63.5675 81.8198 63.477 82.1377 63.4314L81.8198 64.3839C81.5714 64.4861 81.3131 64.5621 81.049 64.6107C80.7761 64.6562 80.5049 64.6562 80.232 64.6562C79.4162 64.6562 78.7816 64.4289 78.2825 63.9754C77.8296 63.5225 77.6017 62.8873 77.6017 62.0709C77.6017 61.2545 77.8296 60.6193 78.3275 60.0753C78.8266 59.5318 79.4612 59.3045 80.187 59.3045C80.8228 59.3045 81.3207 59.4856 81.6836 59.9397C82.0465 60.3482 82.2277 60.9372 82.2277 61.663V61.7986L80.7317 61.7992ZM78.8271 61.2551L79.7791 61.2101H80.097C80.6861 61.1645 81.004 61.074 81.004 60.8016C81.004 60.6205 80.9128 60.3937 80.7311 60.2126C80.5043 60.0764 80.2782 59.9858 79.9603 59.9858C79.6424 59.9858 79.4162 60.0758 79.1895 60.3032C79.0083 60.5293 78.8721 60.8472 78.8271 61.2551ZM84.5413 60.3026C84.768 59.9853 84.9942 59.7135 85.3121 59.5768C85.567 59.4054 85.8658 59.3108 86.1729 59.3045C86.7619 59.3045 87.171 59.4406 87.3977 59.7579C87.6695 60.1208 87.7606 60.6649 87.7606 61.4813V62.8873C87.7606 63.3408 87.8056 63.6125 87.8968 63.7487C87.9868 63.8393 88.1685 63.9299 88.4397 63.9754L88.2585 64.5651H85.765L85.9917 63.9754C86.2646 63.9304 86.4458 63.8399 86.5358 63.7487C86.6269 63.6125 86.6269 63.2496 86.6269 62.7512L86.6719 61.708C86.6719 61.164 86.5819 60.7561 86.4452 60.5743C86.309 60.3476 86.0823 60.257 85.7644 60.257C85.3565 60.257 85.0836 60.3926 84.8574 60.6649C84.6763 60.9822 84.5857 61.3907 84.5857 61.9798V62.9317C84.5857 63.3402 84.6307 63.6575 84.7218 63.7481C84.8568 63.8837 85.0836 63.9293 85.4015 63.9749L85.1747 64.5645H82.635L82.8162 63.9749C83.0441 63.9299 83.2252 63.8393 83.3152 63.7031C83.4052 63.567 83.4514 63.2946 83.4514 62.7962V61.1184C83.4514 60.7555 83.4052 60.4832 83.2702 60.3926C83.1791 60.302 82.9973 60.257 82.6344 60.2114L82.8612 59.6224C83.1341 59.6224 83.4052 59.5768 83.6781 59.4862C83.996 59.4412 84.2672 59.3506 84.5401 59.305V60.3026H84.5413ZM90.6171 58.5792V61.2551C90.9707 61.0969 91.3054 60.8993 91.6147 60.6661C91.7958 60.4849 91.8876 60.3487 91.8876 60.2582C91.8876 60.1676 91.8876 60.122 91.7964 60.0764C91.7514 60.0314 91.6614 60.0314 91.5247 60.0314H91.4347L91.6147 59.4423H94.1094L93.9282 60.0314H93.8832C93.4742 60.0314 92.8851 60.3493 92.0687 60.9834C91.9776 61.029 91.8876 61.1195 91.842 61.1645C92.1137 61.3457 92.5216 61.7998 92.9757 62.525C93.2474 62.9785 93.4736 63.3414 93.6553 63.5681C93.7465 63.7043 93.8365 63.7949 93.9732 63.8404C94.1094 63.931 94.2461 63.931 94.4261 63.976L94.2461 64.5657H92.8395C92.7495 64.3383 92.5678 64.1122 92.3855 63.7493C91.5697 62.3894 90.98 61.573 90.6177 61.3913V62.7512C90.6177 63.2952 90.7088 63.6581 90.7989 63.7487C90.935 63.8843 91.1168 63.9299 91.4797 63.9754L91.2518 64.5651H88.7132L88.9399 63.9754C89.1667 63.9304 89.3478 63.8399 89.439 63.7037C89.484 63.5675 89.529 63.2496 89.529 62.7967V58.1257C89.529 57.6723 89.484 57.3999 89.394 57.3094C89.2578 57.1732 89.0311 57.0826 88.6682 57.0826L88.8493 56.493C89.1661 56.448 89.484 56.3574 89.8013 56.3118C90.118 56.2218 90.3904 56.1307 90.7083 56.0395C90.6621 56.4024 90.6621 56.7203 90.6621 57.0832C90.6627 57.4455 90.6171 57.9446 90.6171 58.5792ZM97.4199 61.7992H96.603C96.2401 61.8442 95.8772 61.8442 95.4693 61.8898V61.9348C95.4693 62.4788 95.6054 62.8873 95.9222 63.2046C96.2401 63.5225 96.648 63.6581 97.192 63.6581C97.4649 63.6581 97.6911 63.6125 97.9628 63.6125C98.2357 63.5675 98.5069 63.477 98.8248 63.4314L98.5069 64.3839C98.2586 64.4863 98.0003 64.5623 97.7361 64.6107C97.4644 64.6562 97.192 64.6562 96.9203 64.6562C96.1033 64.6562 95.4687 64.4289 94.9696 63.9754C94.5167 63.5225 94.29 62.8873 94.29 62.0709C94.29 61.2545 94.5167 60.6193 95.0158 60.0753C95.5137 59.5318 96.1495 59.3045 96.8753 59.3045C97.5099 59.3045 98.009 59.4856 98.3719 59.9397C98.7348 60.3482 98.916 60.9372 98.916 61.663V61.7986L97.4199 61.7992ZM95.5148 61.2551L96.4668 61.2101H96.7847C97.3738 61.1645 97.6917 61.074 97.6917 60.8016C97.6917 60.6205 97.6017 60.3937 97.4199 60.2126C97.192 60.0764 96.9659 59.9858 96.648 59.9858C96.3312 59.9858 96.1039 60.0758 95.8772 60.3032C95.696 60.5293 95.561 60.8472 95.5148 61.2551ZM101.138 58.5792V62.7512C101.138 63.2952 101.229 63.6581 101.319 63.7487C101.455 63.8843 101.637 63.9299 102 63.9754L101.773 64.5651H99.2333L99.4144 63.9754C99.6412 63.9304 99.8224 63.8399 99.9135 63.7037C100.004 63.5675 100.05 63.2496 100.05 62.7967V58.1257C100.05 57.6723 100.004 57.3999 99.8685 57.3094C99.7773 57.1732 99.5056 57.0826 99.1427 57.0826L99.3694 56.493C99.6412 56.448 99.9585 56.3574 100.276 56.3118C100.593 56.2218 100.911 56.1307 101.228 56.0395C101.183 56.4024 101.183 56.7653 101.183 57.1282C101.138 57.4911 101.138 57.9446 101.138 58.5792Z" fill="#5381B5"/>
</svg>
