<svg width="102" height="102" viewBox="0 0 102 102" fill="none" xmlns="http://www.w3.org/2000/svg">
<g clip-path="url(#clip0_126_81)">
<path fill-rule="evenodd" clip-rule="evenodd" d="M34.1561 27.1606H12.6243C12.6243 27.1606 13.5748 27.9918 13.6926 28.6377C13.8707 29.6189 13.4247 30.5947 13.4247 30.5947L2.17914 66.5837C2.17914 66.5837 1.6762 67.8871 1.0456 68.469C0.536082 68.9396 -0.500488 69.3483 -0.500488 69.3483H15.2924C15.2924 69.3483 14.2515 68.813 13.9594 68.1885C13.7009 67.6351 13.8504 66.6292 13.8504 66.6292L17.7545 53.2097C17.7545 53.2097 36.358 55.9479 41.9978 42.0227C46.7341 30.3323 37.4412 27.1606 34.1561 27.1606ZM32.1794 41.3099C28.3788 52.4602 18.6059 50.5043 18.6059 50.5043L24.7684 30.421H28.3553C28.3558 30.421 36.1033 29.797 32.1794 41.3099Z" fill="#5381B5"/>
<path fill-rule="evenodd" clip-rule="evenodd" d="M85.6608 43.7271C80.0473 44.6344 71.6419 47.7397 71.6419 47.7397L70.6607 52.029C70.6607 52.029 73.5918 50.6527 75.5712 50.0786C77.3102 49.5751 80.1235 49.1669 80.1235 49.1669L75.3882 66.2265C75.3882 66.2265 62.0914 69.1691 69.4132 46.4917C71.0332 41.4721 76.5804 33.3368 82.1747 31.4915C88.4582 29.4189 94.9461 34.1673 94.9461 34.1673L96.8187 28.5489C96.8187 28.5489 89.7994 26.707 85.2439 26.8982C76.2363 27.2762 70.321 29.6595 64.0522 36.138C56.107 44.3517 56.8264 56.5418 56.8264 56.5418L53.7928 58.9108L50.8184 61.2338C50.8184 61.2338 48.9146 58.3202 48.2462 56.2301C47.7065 54.5448 47.4479 51.7627 47.4479 51.7627C47.4479 51.7627 52.53 49.225 55.1269 47.1162C60.2982 42.9157 58.4311 38.0106 54.9866 37.5121C51.0064 36.9357 49.0559 37.1993 46.1254 39.5277C41.6372 43.0943 41.4636 50.5941 41.4636 50.5941C41.4636 50.5941 26.7308 54.1695 28.5859 64.8294C29.1343 67.983 33.9019 69.8671 37.7983 69.7953C43.8715 69.5269 48.0128 66.8045 48.0128 66.8045C48.0128 66.8045 51.7564 71.978 61.1096 74.2627C73.1584 77.2053 85.2214 71.1316 85.2214 71.1316L85.9287 69.259C85.9287 69.259 77.0023 73.9953 66.8678 72.0646C57.4553 70.2725 52.5311 64.0778 52.5311 64.0778C52.5311 64.0778 54.1917 62.8012 55.2189 61.9422C56.1372 61.174 57.5282 59.92 57.5282 59.92C57.5282 59.92 59.3378 65.5603 64.2374 67.8564C75.031 72.9155 86.7313 67.0302 86.7313 67.0302L92.4489 48.0969C92.4489 48.0969 94.8393 47.869 96.3717 47.8772C98.0492 47.8855 100.663 48.1862 100.663 48.1862L102 43.1825C101.999 43.1825 91.9191 42.7152 85.6608 43.7271ZM40.4823 65.8698C38.1637 66.0156 35.6183 65.0661 35.0332 62.9185C33.4274 57.0234 41.8197 54.0808 41.8197 54.0808C41.8197 54.0808 42.436 57.402 43.2315 59.3924C44.0183 61.3614 45.8328 64.166 45.8328 64.166C45.8328 64.166 43.2639 65.6967 40.4823 65.8698ZM52.8867 40.1506C54.4695 40.3829 54.0553 43.9057 51.8819 45.4809C50.1868 47.2833 47.2688 48.0964 47.2688 48.0964C47.2688 48.0964 46.9105 39.274 52.8867 40.1506Z" fill="#5381B5"/>
</g>
<defs>
<clipPath id="clip0_126_81">
<rect width="102" height="102" fill="white"/>
</clipPath>
</defs>
</svg>
