<svg width="102" height="102" viewBox="0 0 102 102" fill="none" xmlns="http://www.w3.org/2000/svg">
<g clip-path="url(#clip0_126_117)">
<path fill-rule="evenodd" clip-rule="evenodd" d="M27.0568 54.5718C27.7192 54.5718 28.4429 54.8129 28.4429 55.43C28.4429 55.7648 28.1577 56.0675 27.7339 56.215C28.2976 56.4228 28.6228 56.75 28.6228 57.1797C28.6228 57.9301 27.7205 58.1841 26.8729 58.1841H24.9312C24.9778 57.7159 24.9911 57.0386 24.9911 56.2882C24.9911 55.793 24.9845 55.0426 24.9378 54.5731H27.0595L27.0568 54.5718ZM26.5131 55.0285C26.3412 55.0285 26.1679 55.0413 26.0826 55.0541C26.0626 55.5236 26.056 55.7507 26.056 56.2869C26.056 56.9372 26.056 57.1784 26.0826 57.6941H26.5997C27.2088 57.6941 27.502 57.5132 27.502 57.1374C27.502 56.7217 27.1235 56.5268 26.6264 56.5268H26.3278L26.5331 55.9841H26.7517C27.0035 55.9841 27.342 55.8507 27.342 55.5223C27.342 55.1734 27.0302 55.0272 26.5131 55.0272V55.0285Z" fill="#5381B5"/>
<path fill-rule="evenodd" clip-rule="evenodd" d="M32.5583 54.5718C32.525 54.981 32.505 55.9315 32.505 56.2869C32.505 56.6153 32.5116 57.6877 32.5583 58.1828H31.716L30.3633 56.1663C30.2513 56.0047 30.1714 55.8507 30.1381 55.6698V56.8154C30.1381 57.2515 30.1514 57.8686 30.1914 58.1828H29.2305C29.2904 57.6338 29.2971 56.6012 29.2971 56.2869C29.2971 55.9456 29.2771 54.981 29.2505 54.5718H30.3446L31.4854 56.4485C31.5454 56.5421 31.5654 56.5896 31.5921 56.6704V54.5718H32.5596H32.5583Z" fill="#5381B5"/>
<path fill-rule="evenodd" clip-rule="evenodd" d="M35.1637 54.5718C35.9394 54.5718 36.8736 54.7924 36.8736 55.6301C36.8736 56.3677 36.2112 56.7358 34.8652 56.7358C34.7852 56.7358 34.5667 56.7358 34.508 56.7294C34.5347 57.2323 34.528 57.8416 34.56 58.1828H33.3872C33.4339 57.6877 33.4472 56.8693 33.4472 56.2869C33.4472 55.7712 33.4339 54.913 33.3872 54.5718H35.1637ZM34.5214 55.0746C34.5214 55.3094 34.508 55.5518 34.508 55.7853C34.508 55.9585 34.5147 56.0932 34.5214 56.2214C34.5613 56.2279 34.7466 56.2279 34.8665 56.2279C35.245 56.2279 35.7688 56.1214 35.7688 55.6314C35.7688 55.1413 35.2317 55.0682 34.8265 55.0682C34.7746 55.0682 34.5747 55.0682 34.5214 55.0746Z" fill="#5381B5"/>
<path fill-rule="evenodd" clip-rule="evenodd" d="M40.5735 54.5718C41.3492 54.5718 42.2834 54.7924 42.2834 55.6301C42.2834 56.3677 41.6211 56.7358 40.275 56.7358C40.1964 56.7358 39.9765 56.7358 39.9178 56.7294C39.9445 57.2323 39.9378 57.8416 39.9711 58.1828H38.7983C38.845 57.6877 38.857 56.8693 38.857 56.2869C38.857 55.7712 38.8437 54.913 38.7983 54.5718H40.5749H40.5735ZM39.9298 55.0746C39.9298 55.3094 39.9165 55.5518 39.9165 55.7853C39.9165 55.9585 39.9232 56.0932 39.9298 56.2214C39.9698 56.2279 40.1551 56.2279 40.2737 56.2279C40.6522 56.2279 41.1759 56.1214 41.1759 55.6314C41.1759 55.1413 40.6388 55.0682 40.235 55.0682C40.1817 55.0682 39.9831 55.0682 39.9298 55.0746Z" fill="#5381B5"/>
<path fill-rule="evenodd" clip-rule="evenodd" d="M44.369 54.5718C44.5022 55.0002 45.6817 57.6017 45.9536 58.1841H44.7808C44.7341 58.043 44.6422 57.8493 44.4689 57.3939C44.2903 57.3875 44.1051 57.3875 43.8585 57.3875C43.612 57.3875 43.4467 57.3939 43.2548 57.4003C43.1482 57.6954 43.0562 57.9301 42.9696 58.1841H41.9487C42.1473 57.7351 43.3214 55.149 43.5333 54.5718H44.369ZM44.269 56.8449C44.1304 56.496 43.9372 56.0598 43.8452 55.7584C43.7452 56.0662 43.5333 56.5421 43.4281 56.8449C43.56 56.8513 43.7399 56.8577 43.8585 56.8577C44.0238 56.8577 44.1104 56.8513 44.269 56.8449Z" fill="#5381B5"/>
<path fill-rule="evenodd" clip-rule="evenodd" d="M48.1474 54.5718C48.9297 54.5718 49.864 54.854 49.864 55.6917C49.864 56.1406 49.5321 56.4613 49.015 56.6704C49.1217 56.8577 49.9893 57.9968 50.1625 58.1841H48.8831C48.6565 57.748 48.2274 56.9988 47.8023 56.3613C48.3127 56.4293 48.7565 56.1804 48.7565 55.6852C48.7565 55.1901 48.2127 55.0682 47.9475 55.0682C47.8289 55.0682 47.6024 55.0682 47.5237 55.0746C47.5037 55.5172 47.4971 56.047 47.4971 56.2869C47.4971 56.6024 47.4971 57.6351 47.557 58.1828H46.3643C46.4242 57.6479 46.4376 57.0116 46.4376 56.2869C46.4376 55.6775 46.4309 54.9399 46.3776 54.5718H48.1474Z" fill="#5381B5"/>
<path fill-rule="evenodd" clip-rule="evenodd" d="M51.8069 54.5718C51.7802 54.981 51.7603 55.9456 51.7603 56.2946C51.7603 56.6165 51.7603 57.689 51.8069 58.1841H50.6274C50.6874 57.6351 50.6927 56.6024 50.6927 56.2946C50.6927 55.9533 50.6728 54.981 50.6461 54.5718H51.8056H51.8069Z" fill="#5381B5"/>
<path fill-rule="evenodd" clip-rule="evenodd" d="M54.7032 54.5718C55.3669 54.5718 56.0892 54.8129 56.0892 55.43C56.0892 55.7648 55.804 56.0675 55.3789 56.215C55.9426 56.4228 56.2678 56.75 56.2678 57.1797C56.2678 57.9301 55.3656 58.1841 54.518 58.1841H52.5762C52.6228 57.7159 52.6361 57.0386 52.6361 56.2882C52.6361 55.793 52.6295 55.0426 52.5828 54.5731H54.7032V54.5718ZM54.1608 55.0285C53.9889 55.0285 53.8156 55.0413 53.7303 55.0541C53.7103 55.5236 53.7037 55.7507 53.7037 56.2869C53.7037 56.9372 53.7037 57.1784 53.7303 57.6941H54.2474C54.8578 57.6941 55.1497 57.5132 55.1497 57.1374C55.1497 56.7217 54.7725 56.5268 54.2741 56.5268H53.9755L54.1808 55.9841H54.3993C54.6512 55.9841 54.9897 55.8507 54.9897 55.5223C54.9897 55.1734 54.6779 55.0272 54.1608 55.0272V55.0285Z" fill="#5381B5"/>
<path fill-rule="evenodd" clip-rule="evenodd" d="M58.8198 54.5718C58.9517 55.0002 60.1325 57.6017 60.4044 58.1841H59.2316C59.1849 58.043 59.0916 57.8493 58.9197 57.3939C58.7411 57.3875 58.5559 57.3875 58.3093 57.3875C58.0628 57.3875 57.8989 57.3939 57.7056 57.4003C57.6003 57.6954 57.507 57.9301 57.4217 58.1841H56.4009C56.5995 57.7351 57.7722 55.149 57.9842 54.5718H58.8198ZM58.7211 56.8449C58.5812 56.496 58.3893 56.0598 58.2973 55.7584C58.1987 56.0662 57.9855 56.5421 57.8802 56.8449C58.0121 56.8513 58.1921 56.8577 58.3107 56.8577C58.4759 56.8577 58.5626 56.8513 58.7225 56.8449H58.7211Z" fill="#5381B5"/>
<path fill-rule="evenodd" clip-rule="evenodd" d="M62.2474 54.4783C62.7045 54.4783 63.1483 54.545 63.4268 54.6336V55.552C63.035 55.3237 62.6512 55.1287 62.1408 55.1287C61.7369 55.1287 61.7103 55.2903 61.7103 55.4096C61.7103 56.0202 63.7454 56.0254 63.7454 57.1183C63.7454 57.8277 63.0883 58.2767 61.9955 58.2767C61.505 58.2767 61.0413 58.1753 60.7227 58.0637V57.185C61.4731 57.5404 61.8689 57.6532 62.2141 57.6532C62.4926 57.6532 62.6978 57.5262 62.6978 57.2851C62.6978 56.5949 60.6694 56.6616 60.6694 55.4892C60.6694 54.8465 61.3051 54.4771 62.2474 54.4771V54.4783Z" fill="#5381B5"/>
<path fill-rule="evenodd" clip-rule="evenodd" d="M69.5227 56.4282C69.5027 56.7835 69.4828 57.5339 69.4694 57.9624C69.0843 58.1625 68.4819 58.2767 67.8982 58.2767C66.5721 58.2767 65.7231 57.4326 65.7231 56.3935C65.7231 55.3019 66.6121 54.4771 68.0634 54.4771C68.3953 54.4771 68.8924 54.5309 69.2442 54.6182L68.9857 55.3288C68.7404 55.1736 68.33 55.0466 68.0514 55.0466C67.2158 55.0466 66.9173 55.797 66.9173 56.4012C66.9173 57.4121 67.453 57.7418 68.0567 57.7418C68.13 57.7418 68.3619 57.7353 68.4352 57.7148C68.4352 57.2787 68.4286 56.7219 68.3953 56.4282H69.5227Z" fill="#5381B5"/>
<path fill-rule="evenodd" clip-rule="evenodd" d="M71.9951 54.5718C72.7774 54.5718 73.7116 54.854 73.7116 55.6917C73.7116 56.1406 73.3798 56.4613 72.8627 56.6704C72.9693 56.8577 73.8369 57.9968 74.0088 58.1841H72.7294C72.5042 57.748 72.0737 56.9988 71.6486 56.3613C72.159 56.4293 72.6042 56.1804 72.6042 55.6852C72.6042 55.2093 72.0604 55.0682 71.7952 55.0682C71.6766 55.0682 71.4513 55.0682 71.3714 55.0746C71.3514 55.5172 71.3461 56.047 71.3461 56.2869C71.3461 56.6024 71.3461 57.6351 71.4047 58.1828H70.2119C70.2706 57.6479 70.2839 57.0116 70.2839 56.2869C70.2839 55.6775 70.2772 54.9399 70.2239 54.5718H71.9938H71.9951Z" fill="#5381B5"/>
<path fill-rule="evenodd" clip-rule="evenodd" d="M76.1467 58.2846C75.0325 58.2846 74.1982 57.5136 74.1982 56.3822C74.1982 55.2431 75.0339 54.4785 76.1467 54.4785C77.2595 54.4785 78.0885 55.2431 78.0885 56.3822C78.0885 57.5213 77.2528 58.2846 76.1467 58.2846ZM76.1467 54.9416C75.6296 54.9416 75.3044 55.4509 75.3044 56.3822C75.3044 57.3122 75.6296 57.8086 76.1467 57.8086C76.6638 57.8086 76.9756 57.3122 76.9756 56.3822C76.9756 55.4522 76.6571 54.9416 76.1467 54.9416Z" fill="#5381B5"/>
<path fill-rule="evenodd" clip-rule="evenodd" d="M79.7449 54.5718C79.7249 54.8129 79.7183 55.0618 79.7183 55.3158V57.0386C79.7183 57.5081 79.8635 57.7826 80.322 57.7826C80.7191 57.7826 81.111 57.6223 81.111 56.8846V55.1362C81.111 54.768 81.1043 54.727 81.0776 54.5731H82.0652C82.0252 54.8886 82.0252 55.4774 82.0252 56.0611V57.086C82.0252 57.9173 81.4481 58.279 80.3087 58.279C79.2745 58.279 78.6388 58.0584 78.6388 57.0335V55.7135C78.6388 55.3787 78.6254 54.8283 78.5854 54.5743H79.7449V54.5718Z" fill="#5381B5"/>
<path fill-rule="evenodd" clip-rule="evenodd" d="M84.5389 54.5718C85.3145 54.5718 86.2487 54.7924 86.2487 55.6301C86.2487 56.3677 85.5864 56.7358 84.2403 56.7358C84.1604 56.7358 83.9418 56.7358 83.8832 56.7294C83.9098 57.2323 83.9031 57.8416 83.9365 58.1828H82.7637C82.8103 57.6877 82.8223 56.8693 82.8223 56.2869C82.8223 55.7712 82.809 54.913 82.7637 54.5718H84.5402H84.5389ZM83.8952 55.0746C83.8952 55.3094 83.8818 55.5518 83.8818 55.7853C83.8818 55.9585 83.8885 56.0932 83.8952 56.2214C83.9351 56.2279 84.1204 56.2279 84.2403 56.2279C84.6175 56.2279 85.1412 56.1214 85.1412 55.6314C85.1412 55.1413 84.6042 55.0682 84.2003 55.0682C84.147 55.0682 83.9485 55.0682 83.8952 55.0746Z" fill="#5381B5"/>
<path fill-rule="evenodd" clip-rule="evenodd" d="M56.457 44.0146H58.0829L58.0122 45.7759C57.9843 46.6559 57.9536 47.55 57.891 48.4185C58.0016 48.1504 58.0949 48.008 58.5827 47.3101C58.5986 47.2858 60.2899 44.7523 60.8763 44.0339L60.8909 44.0146H62.7874L62.7834 44.0839C62.7248 44.819 62.6901 46.6662 62.6901 47.3461C62.6901 47.9644 62.6941 50.0451 62.7954 50.9456L62.7994 51.0148H61.1175V50.9494C61.2188 49.233 61.2188 47.5103 61.2188 45.8452V45.8413C61.1628 46.0415 61.0815 46.2236 60.8163 46.6059C60.787 46.6482 57.8976 50.748 57.7484 50.9892L57.7324 51.0161H56.3823L56.3877 50.9469C56.4876 50.0451 56.4943 47.9656 56.4943 47.3473C56.4943 46.6675 56.457 44.8177 56.3997 44.0852L56.3957 44.0159H56.457V44.0146Z" fill="#5381B5"/>
<path fill-rule="evenodd" clip-rule="evenodd" d="M41.2836 44.0812C41.3409 44.8201 41.3809 46.6673 41.3809 47.3459C41.3809 47.9642 41.3742 50.0436 41.2742 50.9441L41.2676 51.0134H43.2733L43.2627 50.9441C43.1974 50.3001 43.168 49.0699 43.1627 48.122C43.2453 48.1271 43.5292 48.1412 43.5292 48.1412L43.8131 48.1528C46.4559 48.1528 47.7406 47.4665 47.7406 46.0438C47.7406 44.4237 45.9388 44.0478 44.4315 44.0132H41.2796L41.2836 44.0799V44.0812ZM43.7438 44.8585C44.682 44.8406 45.3444 45.0292 45.6616 45.4076C45.8028 45.582 45.8775 45.7963 45.8775 46.0451C45.8775 47.0585 44.71 47.2715 43.7251 47.2715L43.3293 47.2586C43.3293 47.2586 43.232 47.2458 43.1707 47.2368C43.164 47.0034 43.1614 46.6968 43.1614 46.3479C43.1614 45.9015 43.168 45.3922 43.1867 44.9047C43.3093 44.8816 43.5292 44.8637 43.7438 44.8585Z" fill="#5381B5"/>
<path fill-rule="evenodd" clip-rule="evenodd" d="M82.197 44.0198H82.1677L82.1544 44.0558C81.7812 45.0512 79.377 50.1439 79.0025 50.9225L78.9585 51.0175H80.679L80.691 50.979C80.8403 50.5005 81.0309 49.9579 81.2588 49.3716C81.3254 49.3691 82.6821 49.3511 82.6821 49.3511L83.8536 49.3652C83.8536 49.3652 84.0588 49.3691 84.1081 49.3691C84.4213 50.1246 84.6506 50.6968 84.7518 50.9803L84.7652 51.0175H86.7589L83.5484 44.0186H82.1997L82.197 44.0198ZM82.6875 46.08C82.846 46.4097 83.2592 47.3487 83.7243 48.4519C83.6537 48.4532 83.5697 48.4557 83.5697 48.4557L82.6875 48.4686C82.6875 48.4686 81.7759 48.4532 81.6306 48.448C82.0011 47.5603 82.3716 46.7586 82.6875 46.08Z" fill="#5381B5"/>
<path fill-rule="evenodd" clip-rule="evenodd" d="M102 50.8404C101.619 50.3824 99.4437 47.8425 98.8813 47.0497C99.401 46.5392 101.376 44.4405 101.757 44.0506H99.9808C99.2131 45.0242 98.6121 45.8683 97.3193 47.1267C97.326 46.3352 97.362 44.7446 97.4126 44.0724L97.4179 44.0044H95.4388L95.4442 44.0724C95.4988 44.8138 95.5401 46.6598 95.5401 47.3371C95.5401 47.9541 95.5308 50.0335 95.4308 50.9328L95.4229 51.0084H97.4313L97.4233 50.9328C97.338 50.1567 97.3206 48.507 97.3193 47.6706C97.983 48.4788 99.1758 49.9822 99.9221 50.9815L99.9368 51.0123H101.999V50.8391L102 50.8404Z" fill="#5381B5"/>
<path fill-rule="evenodd" clip-rule="evenodd" d="M40.1006 50.9084C40.0273 50.7955 37.5337 47.9054 36.934 47.0497C37.4511 46.5392 39.4222 44.4405 39.806 44.0506H38.0335C37.2659 45.0242 36.6581 45.8683 35.3667 47.1267C35.3747 46.3352 35.4134 44.7446 35.4613 44.0724L35.4667 44.0044H33.4876L33.4916 44.0724C33.5449 44.8138 33.5889 46.6598 33.5889 47.3371C33.5889 47.9541 33.5809 50.0335 33.4836 50.9328L33.4756 51.0084H35.4813L35.472 50.9328C35.388 50.1567 35.3694 48.507 35.3667 47.6706C36.0344 48.4788 37.2259 49.9822 37.9695 50.9815L37.9855 51.0123H40.1645L40.0992 50.9071L40.1006 50.9084Z" fill="#5381B5"/>
<path fill-rule="evenodd" clip-rule="evenodd" d="M91.9753 51.0134H93.981L93.9704 50.9403C93.8744 50.0385 93.8664 47.9603 93.8664 47.3433C93.8664 46.666 93.9131 44.8162 93.9597 44.0812L93.9677 44.0132H91.9886L91.9953 44.0812C92.0433 44.6956 92.0739 46.0759 92.0859 46.9123C91.3036 46.9315 91.0051 46.9418 90.6772 46.9418C90.1041 46.9418 89.631 46.9123 89.4178 46.9123C89.4151 46.9123 89.4124 46.9149 89.4071 46.9149C89.4218 46.0772 89.4551 44.6931 89.5004 44.0812L89.5071 44.0132H87.528L87.5333 44.0812C87.5893 44.8201 87.6279 46.6686 87.6279 47.3433C87.6279 47.9603 87.6199 50.0385 87.5213 50.9403L87.5146 51.0134H89.5217L89.5111 50.9403C89.4351 50.218 89.4138 48.7454 89.4058 47.868C89.4098 47.8693 89.4151 47.8705 89.4191 47.8718C90.0055 47.8513 90.1601 47.841 90.8824 47.841C91.4822 47.841 91.6541 47.8513 92.0846 47.8718C92.0886 47.8718 92.0886 47.8693 92.0912 47.8693C92.0886 48.7454 92.0659 50.218 91.9873 50.9403L91.9793 51.0134H91.9753Z" fill="#5381B5"/>
<path fill-rule="evenodd" clip-rule="evenodd" d="M52.9023 50.1552C51.4523 50.1552 50.3621 49.2752 50.3621 47.5588C50.3621 46.3325 51.0111 44.8675 52.8863 44.8675C53.526 44.8675 54.0231 45.0651 54.4149 45.2908L54.8534 44.1671V44.1196C54.2243 43.9644 53.5713 43.8721 52.9183 43.8721C50.0582 43.8721 48.3257 45.4204 48.3257 47.5447C48.3257 49.5484 49.9583 51.1506 52.5784 51.1506C53.7192 51.1506 54.4815 50.9402 55.1066 50.7068L55.0893 49.2175C54.4855 49.7434 53.7965 50.1552 52.9009 50.1552H52.9023Z" fill="#5381B5"/>
<path fill-rule="evenodd" clip-rule="evenodd" d="M66.9388 46.8738L66.6549 46.8854C66.6549 46.8854 66.3711 46.8995 66.2884 46.9033C66.2938 46.2953 66.3057 45.5679 66.3324 44.9586C66.7136 44.9496 66.9041 44.9406 67.1813 44.9406C68.1822 44.9406 69.1871 44.9227 70.192 45.0304V44.0132H66.0925H64.3906V44.0157L64.3973 44.085C64.4986 44.9843 64.5066 47.0624 64.5066 47.6794C64.5066 48.3606 64.4639 50.2052 64.4093 50.948L64.4066 51.0147H67.5532C69.0658 50.9813 70.869 50.6029 70.869 48.9827C70.869 47.5614 69.5789 46.8751 66.9375 46.8751L66.9388 46.8738ZM68.7846 49.6177C68.4701 49.9974 67.8064 50.186 66.8682 50.1693C66.6523 50.1642 66.4337 50.1462 66.3097 50.1231C66.2938 49.6344 66.2884 49.1238 66.2884 48.6787C66.2884 48.3298 66.2911 48.0232 66.2991 47.7897C66.3537 47.7807 66.455 47.7705 66.455 47.7705L66.8508 47.7538C67.8344 47.7538 69.0018 47.968 69.0018 48.9827C69.0018 49.2316 68.9272 49.4445 68.7833 49.6177H68.7846Z" fill="#5381B5"/>
<path fill-rule="evenodd" clip-rule="evenodd" d="M74.5714 46.8738L74.2875 46.8854C74.2875 46.8854 74.005 46.8995 73.921 46.9033C73.925 46.2953 73.9383 45.5679 73.9677 44.9586C74.3435 44.9496 74.5381 44.9406 74.8153 44.9406C75.8161 44.9406 76.8184 44.9227 77.8219 45.0304V44.0132H73.7278H72.0259V44.0157L72.0312 44.085C72.1325 44.9843 72.1392 47.0624 72.1392 47.6794C72.1392 48.3606 72.0992 50.2052 72.0405 50.948L72.0379 51.0147H75.1884C76.6984 50.9813 78.5016 50.6029 78.5016 48.9827C78.5016 47.5614 77.2155 46.8751 74.5714 46.8751V46.8738ZM76.4185 49.6177C76.1027 49.9974 75.4417 50.186 74.5007 50.1693C74.2862 50.1642 74.0676 50.1462 73.9463 50.1231C73.9277 49.6344 73.921 49.1238 73.921 48.6787C73.921 48.3298 73.9223 48.0232 73.933 47.7897C73.9916 47.7807 74.0903 47.7705 74.0903 47.7705L74.4874 47.7538C75.467 47.7538 76.6398 47.968 76.6398 48.9827C76.6398 49.2316 76.5625 49.4445 76.4212 49.6177H76.4185Z" fill="#5381B5"/>
<path fill-rule="evenodd" clip-rule="evenodd" d="M32.6889 44.0121H30.6498L30.6245 44.0801C30.3406 44.819 29.6476 46.6675 29.3358 47.3423C29.3158 47.3859 29.2918 47.4385 29.2638 47.4949C28.6041 46.5316 27.5886 44.7382 27.2434 44.0083H24.9258C26.2039 45.6246 27.5406 47.4962 28.5201 48.9637C28.1403 49.6949 27.7245 50.4736 27.4593 50.9392L27.4193 51.0123H29.5397L29.565 50.9392C29.8822 50.0374 30.8271 47.9593 31.111 47.3423C31.4241 46.665 32.3157 44.8152 32.7089 44.0801L32.7462 44.0121H32.6902H32.6889Z" fill="#5381B5"/>
<path fill-rule="evenodd" clip-rule="evenodd" d="M0 41V61H19.9402V41H0ZM4.69652 58.1548C4.17009 57.6352 3.84491 57.1709 3.53172 56.4884C2.94265 56.2152 2.51885 55.9638 1.99642 55.6366C2.37092 55.4673 2.69343 55.3544 3.14789 55.2287C3.00396 54.4206 3.04394 53.6971 3.15589 52.6849C3.36379 53.6419 3.54238 54.3269 3.94886 55.0427C4.44597 54.9427 4.86444 54.8811 5.44284 54.7977C5.12832 55.2608 4.93641 55.6328 4.76849 56.0972C5.32823 56.627 5.83866 56.9361 6.549 57.2017C5.80401 57.1773 5.24427 57.0798 4.58723 56.8848C4.54059 57.3517 4.56991 57.7096 4.69519 58.1535L4.69652 58.1548ZM6.70093 51.8909C6.41173 51.1854 5.99193 49.7692 5.99193 49.7692C5.18696 50.2053 3.33847 51.9627 3.33714 51.9627C4.35268 49.9051 5.3842 48.961 5.3842 48.961C5.0297 48.6018 4.09946 48.4222 3.4211 48.3902C3.77427 48.2439 4.68186 48.0733 5.37621 48.0425C6.07189 48.0207 6.49303 48.0643 6.4957 48.0643C7.11808 47.5653 8.06031 47.1471 8.39083 47.0971C8.16693 47.3845 7.91105 47.9232 7.84574 48.1759C9.66091 48.4286 11.1229 49.3664 11.1309 49.3715C11.1309 49.3715 11.1322 49.3715 11.1336 49.3715H11.1309C9.53031 49.088 8.69469 49.1214 8.10163 49.1765C7.50723 49.2355 7.38862 49.3061 7.38862 49.3061C6.95948 50.2515 6.70227 51.8896 6.70227 51.8922L6.70093 51.8909ZM10.4419 57.176C10.4912 57.421 10.5298 57.5596 10.5805 57.7494C10.3633 57.7892 10.0647 57.8097 9.74754 57.7994C9.13982 58.1599 8.31486 58.4293 7.69248 58.5807C8.06298 58.3421 8.3895 58.0906 8.77065 57.7404C8.3895 57.6635 8.03366 57.5454 7.66583 57.3543C8.26422 57.3517 8.752 57.2863 9.36638 57.1183C9.72488 56.7129 9.99809 56.3666 10.3233 55.9278C10.3353 56.2344 10.3539 56.4653 10.3819 56.7386C10.963 56.4589 11.4041 56.1895 11.9106 55.8316C11.4388 56.3191 11.019 56.7257 10.4419 57.176ZM16.843 45.4808C17.0469 46.0337 16.5604 49.0713 16.1579 49.8795C16.1406 48.607 16.0273 46.9996 15.5635 46.3043C14.3281 47.0355 13.9496 47.0933 12.6169 47.904C13.3925 47.0522 13.6618 46.6905 14.1469 45.9734C12.9114 46.0388 11.1202 46.1889 9.8355 46.475C10.9537 45.8772 13.1646 45.2024 14.3294 45.0446C14.0589 44.6688 11.8706 43.4694 11.3255 43.241C13.0567 43.377 15.1757 44.0261 16.2006 44.6662C16.6124 44.5392 17.0269 44.529 17.7745 44.4623C17.584 44.7945 17.58 44.9882 16.843 45.4808Z" fill="#5381B5"/>
</g>
<defs>
<clipPath id="clip0_126_117">
<rect width="102" height="20" fill="white" transform="translate(0 41)"/>
</clipPath>
</defs>
</svg>
