<svg width="102" height="102" viewBox="0 0 102 102" fill="none" xmlns="http://www.w3.org/2000/svg">
<path d="M42.1969 96.5449C42.9413 96.5449 44.2215 96.3036 45.2286 94.6901C44.6527 93.4103 44.2428 90.8245 44.1839 89.8835C43.8869 85.0677 45.7426 80.5375 47.7743 80.4133C49.2623 80.3234 50.4534 81.7323 50.5906 84.0142C50.9557 90.0148 48.9583 92.5204 47.9587 94.6796C48.1277 95.5177 49.5471 96.9439 50.8884 96.9439C51.3835 96.9439 51.9829 96.6959 52.133 96.4951C52.0326 96.1497 51.9322 95.7018 51.9322 95.0543C51.9322 91.5773 54.1681 88.6464 56.1053 88.6464C57.6451 88.6464 58.5385 90.6827 58.5385 92.0264C58.5385 93.6136 57.1972 94.908 55.2115 96.1501C55.5603 96.4951 56.2031 96.7465 56.7514 96.7465C59.5844 96.7465 61.0675 93.3179 62.1657 90.1875C62.3644 89.5895 62.7127 88.7455 63.4066 88.7455C64.6002 88.7455 65.0978 96.5942 67.0798 96.5942C67.9259 96.5942 68.6209 94.8544 68.6209 93.5166C68.6209 92.5229 68.2738 92.4233 68.2738 90.9817C68.2738 89.3942 69.1186 88.0542 70.2625 88.0542C70.9575 88.0542 71.208 88.7455 71.208 89.589C71.208 92.7684 68.9212 98.6803 65.547 98.6803C63.0097 98.6803 63.2079 94.3099 62.3146 94.3099C61.3171 94.3099 59.9261 98.7309 55.0129 98.7309C54.2141 98.7309 53.3726 98.3336 52.6792 97.5373C51.4873 98.334 50.4911 98.6803 49.3485 98.6803C47.5129 98.6803 46.7179 96.7929 45.973 96.7929C45.0772 96.7929 44.0868 98.7309 41.1037 98.7309C38.7198 98.7309 38.3217 95.5541 37.4802 95.5541C36.7333 95.5541 35.5915 98.7309 34.3507 98.7309C32.2612 98.7309 31.8179 93.2175 29.9777 93.2175C28.537 93.2175 23.9859 98.8175 22.7509 98.6895C22.2532 98.6377 22.0449 98.2655 22.0972 97.769C22.1666 97.0823 22.758 95.243 22.9989 94.3722C23.4004 92.862 23.7693 91.2063 23.975 90.6777C24.1795 90.1461 24.7316 89.7655 25.1736 89.8069C25.397 89.8278 25.4643 90.244 25.5329 90.5869C25.7834 91.8148 26.1343 93.0674 26.5291 93.0674C27.2263 93.0674 29.5311 88.6464 30.8711 88.6464C32.513 88.6464 32.71 95.6014 34.9429 95.6014C35.6898 95.6014 36.2381 94.7093 36.7329 93.6136C36.7839 91.7722 37.2795 89.1461 38.7696 89.1461C39.8143 89.1461 40.312 91.4781 39.5638 93.5166C39.5638 95.9489 41.1522 96.5445 42.1969 96.5445M81.9321 90.5857C81.3164 93.1385 79.4503 96.8945 76.6658 96.8945C76.0218 96.8945 74.8779 96.6448 74.8779 95.9987C74.8779 95.3024 79.2517 95.2066 79.2517 91.8763C79.2517 90.6363 78.1099 88.8956 76.4203 88.8956C74.1854 88.8956 72.0048 91.3314 72.0048 94.7089C72.0048 97.7368 73.8863 98.7309 75.7725 98.7309C79.0534 98.7309 81.0387 96.046 82.0814 93.8122C82.5799 95.3024 82.8743 98.7309 84.1198 98.7309C84.6149 98.7309 84.9646 98.4817 85.5626 97.1425C87.0473 93.8122 88.4894 89.9889 90.4784 89.9889C91.2216 89.9889 90.7762 91.3314 92.5641 91.3314C93.4068 91.3314 94.0002 90.6363 94.0002 89.8375C94.0002 88.6945 92.9589 87.8037 91.3705 87.8037C86.7023 87.8037 85.7107 94.8072 84.965 94.8072C83.7216 94.8072 84.1202 89.1947 83.2239 89.1947C82.4285 89.1947 82.0387 90.1423 81.9321 90.5857ZM48.9821 85.3546C48.8955 83.9673 48.5597 83.3408 47.8144 83.3906C46.8249 83.4508 46.3674 86.5636 46.5698 89.8341C46.6986 91.9683 47.0165 92.297 47.3122 92.2765C47.8592 92.2452 49.1724 88.431 48.9821 85.355M40.9042 82.4379C40.8343 81.6424 40.2099 81.0987 39.3651 81.0987C38.422 81.0987 37.5346 82.0883 37.6291 83.3312C37.6893 84.1492 38.1728 84.8243 39.1205 84.8243C40.2104 84.8243 41.0046 83.5821 40.9042 82.4379ZM56.3545 92.5701C56.3545 91.7274 55.9053 91.0323 55.3629 91.0323C54.9112 91.0323 53.8715 91.5262 53.8715 93.1172C53.8715 94.363 54.3149 94.954 54.5169 95.2066C55.9551 94.7591 56.3545 93.5638 56.3545 92.5701ZM75.7725 90.8859C76.8172 90.8859 77.1163 92.1222 76.8683 92.8691C76.6173 93.6136 75.7253 94.4609 74.3338 94.7093C74.0352 93.9624 73.8863 90.8859 75.7725 90.8859ZM18.5796 87.3591C18.4365 86.9074 18.0242 85.8924 17.9104 85.1434C17.6624 83.4839 18.5298 82.3906 19.3265 82.1401C20.2211 81.8909 20.5699 82.3388 20.9149 83.3835C21.3624 84.9719 21.4126 87.0567 21.262 90.0374C21.0663 94.1108 19.0287 99.0291 13.9632 98.9271C9.59074 98.8313 7.65563 95.9987 7.45489 91.6776C7.36037 89.6413 7.50507 87.6063 8.34988 84.7247C8.79654 83.1836 9.19594 82.6353 10.5844 82.3388C11.6768 82.1401 11.5785 83.2806 11.3305 84.6264C10.7856 87.6063 10.5338 89.0445 10.7346 92.4233C10.9299 95.9987 12.5727 97.391 14.3605 97.391C17.0422 97.4416 18.2333 95.2066 18.7322 91.9754C19.127 89.3941 18.8301 88.152 18.5796 87.3591ZM77.1635 22.7381C77.5073 25.2412 81.2997 28.6154 82.3285 28.5363C83.0148 28.4774 83.2783 25.2675 83.2783 22.7381C83.2783 21.2894 83.3578 20.1548 82.5929 19.89C81.3792 22.3421 78.1932 22.8435 77.1635 22.7381ZM77.3739 21.6307C80.1124 21.6307 82.6188 19.4434 82.6188 17.5191C82.6188 16.6221 82.196 15.8847 81.1157 15.7534C81.2997 15.991 81.3792 16.1754 81.3792 16.5961C81.3792 18.0461 79.1689 19.6546 76.7687 19.6546C75.8976 19.6546 75.6341 20.2597 75.6341 20.5768C75.6341 21.3153 76.3467 21.6307 77.3739 21.6307ZM76.7946 18.6525C76.4262 18.6525 75.8976 18.6525 75.6069 18.0733C75.3693 17.5982 75.4484 16.8337 75.0005 16.4907C75.4484 16.6221 75.9235 16.6221 76.2936 16.6221C77.4814 16.6221 78.616 15.8053 79.4859 15.8053C80.0601 15.8053 80.2445 16.1754 80.2445 16.543C80.2445 17.7048 77.9033 18.6525 76.7946 18.6525ZM17.8381 39.316C18.733 39.316 18.5482 33.8331 19.9986 33.8331C20.3415 33.8331 20.4461 34.176 20.4461 34.5984C20.4461 35.8364 19.8401 37.6556 19.8401 38.6564C19.8401 39.1579 19.9714 39.316 20.2089 39.316C20.8421 39.316 21.9487 33.2794 23.0298 33.2794C23.3728 33.2794 23.53 33.6219 23.53 33.9657C23.53 35.2304 21.9224 38.8672 21.9224 39.8952C21.9224 40.0525 21.9755 40.1846 22.1068 40.1846C22.7664 40.1846 24.0842 37.339 24.5049 35.9158C24.7425 35.1773 25.0591 34.7812 25.3489 34.7812C25.6124 34.7812 25.8499 35.0719 25.8499 35.6783C25.8499 37.1015 24.5308 40.4485 23.3728 42.6902C22.477 44.4287 21.0797 46.9322 21.0797 48.3291C21.0797 49.0404 21.2097 49.7778 22.2394 50.6753C20.5515 50.5699 19.866 50.4118 19.2349 49.0936C16.4153 54.7073 24.4267 54.154 21.6848 59.135C21.1838 58.2401 17.2308 57.317 17.2308 52.0981C17.2308 47.5913 21.1838 44.9561 21.1838 43.0837C21.1838 42.7165 21.0542 42.3995 20.71 42.1089C19.8401 41.3703 19.8129 40.7664 19.1299 40.7664C18.6277 40.7664 18.0212 41.9248 18.6532 42.9528C18.8652 43.2958 19.0496 43.5057 19.0496 43.8227C19.0496 44.56 17.8887 46.5361 17.0735 46.5361C16.2568 46.5361 15.6244 44.509 15.6244 41.239C15.6244 38.3398 16.2827 35.4148 17.0995 35.4148C17.337 35.4148 17.4161 35.5733 17.4161 35.7837C17.4161 36.1266 17.3111 36.8117 17.3111 37.9701C17.3111 39.2097 17.6005 39.316 17.8381 39.316Z" fill="#5381B5"/>
<path d="M24.5577 47.0375C25.666 47.0375 26.5869 46.2194 26.5869 44.4027V41.7131C26.5869 40.686 26.6664 39.5266 27.3527 38.7086C27.2737 39.0515 27.2737 39.4212 27.2737 39.7629C27.2737 42.0297 28.5384 43.5855 28.5384 45.7728C28.5384 46.5883 28.3008 47.0375 27.6697 47.0375C27.062 47.0375 27.1152 46.4829 26.983 46.4829C26.8776 46.4829 26.7195 46.8259 26.7195 47.1956C26.7195 47.7489 27.1152 48.6188 28.2214 48.6188C29.1716 48.6188 29.9352 47.7489 29.9352 46.7736C29.9352 44.4031 28.0905 41.7662 28.0905 39.2372C28.0905 38.1285 28.3799 37.3908 28.6174 36.8107C28.6174 42.0569 33.0715 45.8777 33.0715 48.0642C33.0715 48.5656 32.7034 48.9613 32.1501 48.9613C31.5424 48.9613 31.253 48.4862 31.253 48.1165C31.253 47.932 31.2259 47.8802 31.1476 47.8802C30.9904 47.8802 30.5153 48.4071 30.5153 49.0939C30.5153 49.9625 31.2259 51.0177 32.5449 51.0177C34.0459 51.0177 34.8635 49.7509 34.8635 48.6188C34.8635 45.8518 29.4601 41.6612 29.4601 37.1804C29.4601 36.4159 29.5914 35.1771 30.1456 34.2282C26.666 36.4678 25.587 39.4476 25.587 42.0573C25.587 44.3241 25.5079 45.4549 24.3486 45.4549C23.741 45.4549 23.5837 44.9029 23.3725 44.9029C23.2136 44.9029 23.135 45.3767 23.135 45.508C23.135 46.4829 23.8476 47.0375 24.5577 47.0375ZM70.2342 20.7084C71.3947 20.7084 72.2659 20.1814 72.2659 19.8644C72.2659 19.7603 72.1074 19.6804 71.7636 19.6804C71.4206 19.6804 70.7352 19.654 69.4425 19.4437C68.3342 19.258 67.4898 18.8373 67.1732 18.8373C67.0682 18.8373 67.0147 18.8895 67.0147 18.9686C67.0147 19.654 68.2819 20.7084 70.2342 20.7084ZM64.489 17.3614C64.8236 17.1368 66.3083 17.4923 68.2296 16.5433C68.4385 16.4248 68.6741 16.3615 68.9142 16.3593C69.8385 16.3593 69.5997 17.4132 70.4458 17.4132C71.104 17.4132 71.9493 16.8591 72.4503 16.8591C73.2366 16.8591 74.3699 19.3375 74.3699 20.4968C74.3699 21.8418 72.3449 22.6581 69.9435 22.6581C66.4417 22.6581 64.3297 19.6022 64.3297 17.6248C64.3297 17.4663 64.41 17.4132 64.489 17.3614ZM25.1119 56.9731C24.2428 57.1848 22.8451 58.5532 22.8451 60.7175C22.8451 63.2996 25.6129 67.2802 30.1724 67.2802C34.0192 67.2802 34.9685 64.6186 34.9685 62.8245C34.9685 58.8443 32.5186 56.0501 29.3296 56.0501C27.5898 56.0501 26.0349 57.3173 26.0349 59.1868C26.0349 60.9278 27.3523 63.5363 30.489 63.5363C31.9653 63.5363 32.8339 62.4819 32.8339 61.2704C32.8339 60.0839 31.7537 58.4507 30.1724 58.4507C29.6973 58.4507 29.3556 58.7648 29.3556 59.2662C29.3556 59.8982 30.2255 60.5318 31.3057 60.5318C31.5692 60.5318 31.7796 60.4799 31.8862 60.4268C31.9381 60.5059 31.9653 60.638 31.9653 60.7434C31.9653 61.3498 31.3839 61.7195 30.489 61.7195C29.1452 61.7195 27.8525 60.7175 27.8525 59.1337C27.8525 58.1868 28.6701 57.5014 29.8558 57.5014C32.202 57.5014 33.5988 59.5828 33.5988 61.6664C33.5988 63.5359 32.5717 64.6191 30.463 64.6191C26.2453 64.6191 24.1897 60.8224 25.1119 56.9731ZM53.154 67.148C53.1548 67.4274 53.2661 67.6951 53.4637 67.8927C53.6612 68.0903 53.929 68.2016 54.2083 68.2024C54.7888 68.2024 55.2623 67.7285 55.2623 67.1485C55.2623 66.5684 54.7888 66.0929 54.2083 66.0929C53.9289 66.094 53.6612 66.2056 53.4637 66.4034C53.2663 66.6011 53.1551 66.869 53.1544 67.1485M55.1974 72.4159C56.4609 72.4159 56.3961 72.3106 56.7917 72.3106C57.1865 72.3106 57.2141 72.5481 57.2141 72.7066C57.2141 73.2867 55.921 73.9997 53.6291 73.9997C52.2841 73.9997 51.4677 73.2867 51.2302 72.4962C49.9136 73.339 47.9104 74.1035 45.933 74.1035C40.5309 74.1035 39.1599 71.7564 37.4732 70.994C36.1801 70.4139 34.204 71.5486 31.4375 68.4638C31.8063 68.5432 32.3074 68.57 32.7034 68.57C35.1262 68.57 36.4176 67.3848 36.4176 65.4856C36.4176 65.2481 36.3917 64.9879 36.3645 64.7516C37.1031 65.041 38.7911 66.3045 39.1859 68.5428C39.239 68.8075 40.3192 69.0438 41.0034 69.0438C41.9536 69.0438 43.1661 68.6482 43.3497 67.0949C46.5131 66.8314 48.6485 64.9607 49.0968 62.5865C50.229 62.9562 51.5196 63.9846 51.8362 64.5128C52.2841 64.3543 52.8115 64.2753 53.4175 64.2753C54.2602 64.2753 55.2104 64.4338 56.3429 64.7771C56.3961 64.4338 56.4492 64.0118 56.9761 64.0118C57.7666 64.0118 57.5554 64.8817 57.8188 65.3802C57.9514 65.6437 58.6118 65.8022 58.6118 66.3296C58.6118 66.8314 58.1877 67.0159 57.9255 67.0159C57.8188 67.0159 57.6879 66.99 57.6076 66.964C57.0815 67.148 57.0556 70.9421 54.8407 70.9421C53.2071 70.9421 51.7053 69.5984 51.0458 67.913C50.8601 67.4119 50.4665 67.0949 50.0964 67.0949C49.6761 67.0949 49.4385 67.1744 48.9383 67.7285C47.5156 69.2814 45.1422 70.6255 42.2175 70.6255C41.32 70.6255 40.6099 70.5461 40.4242 70.5461C40.3192 70.5461 40.3192 70.572 40.3192 70.5984C40.3192 70.7836 41.2151 71.4963 43.1661 71.4963C47.8041 71.4963 48.9383 68.8857 49.6761 68.8857C49.7811 68.8857 50.0968 68.8857 50.2808 69.3077C51.3611 71.8355 53.7215 72.4159 55.1974 72.4159ZM71.1835 55.6286C70.6306 55.6286 67.5684 59.7142 65.5969 59.7142C65.1218 59.7142 64.727 58.8171 64.727 58.135C64.727 57.7653 64.9625 57.5018 65.8085 57.3173C70.34 56.2877 69.3375 52.8875 73.2094 52.8875C75.344 52.8875 77.7182 54.3379 77.7182 57.6067C77.7182 61.0863 72.7665 65.407 72.0275 65.407C71.4202 65.407 70.7619 64.5383 70.7619 63.9583C70.7619 63.7751 70.8414 63.5359 71.3684 63.3259C73.8948 62.3222 75.344 60.0048 75.344 58.8171C75.344 58.5536 75.2127 58.2935 74.8689 58.2935C74.4222 58.2935 72.5026 62.6664 70.3659 62.6664C68.8887 62.6664 67.3852 61.3239 67.3852 60.6903C67.3852 59.6364 71.6578 57.6858 71.6578 56.2086C71.6578 55.6545 71.3951 55.6286 71.1839 55.6286M74.0262 53.995C73.6573 53.995 73.2625 54.2857 73.2625 54.9987C73.2625 55.7866 73.8689 56.2877 74.2118 56.4462C74.3959 56.5516 74.687 56.6578 74.9739 56.6578C75.7396 56.6578 76.346 56.4462 76.346 55.813C76.346 54.9983 75.1595 53.995 74.0262 53.995ZM24.7953 23.4749C24.7962 23.7546 24.9077 24.0226 25.1054 24.2203C25.3032 24.4181 25.5712 24.5296 25.8509 24.5305C26.1302 24.5292 26.3976 24.4174 26.5948 24.2197C26.792 24.0219 26.903 23.7542 26.9035 23.4749C26.9027 23.1959 26.7915 22.9285 26.5943 22.7311C26.3971 22.5337 26.1299 22.4222 25.8509 22.421C25.5714 22.4217 25.3036 22.5328 25.1058 22.7303C24.908 22.9278 24.7964 23.1954 24.7953 23.4749ZM23.4256 21.1032C23.4265 21.3823 23.5377 21.6497 23.735 21.8471C23.9323 22.0446 24.1996 22.156 24.4787 22.1571C25.0588 22.1571 25.5339 21.682 25.5339 21.1032C25.5339 20.5244 25.0588 20.0488 24.4787 20.0488C24.1996 20.0499 23.9323 20.1614 23.735 20.3588C23.5377 20.5562 23.4265 20.8241 23.4256 21.1032ZM22.4763 28.3242C21.869 28.4827 20.6056 29.2213 20.6056 30.5378C20.6056 31.4872 21.3416 32.0932 22.2659 32.0932C22.7402 32.0932 23.0827 31.9878 23.293 31.8297C22.5557 31.1183 22.2922 30.3275 22.2922 29.5379C22.2922 28.9837 22.3717 28.6408 22.4763 28.3242ZM16.0202 28.6943C15.9938 28.8265 15.9938 28.9578 15.9938 29.0891C15.9938 30.3275 16.6521 31.0129 17.522 31.0129C18.1795 31.0129 18.9452 30.6169 19.6294 29.7474C19.3158 29.8002 18.9982 29.8263 18.6801 29.8252C17.7064 29.8252 16.6521 29.5642 16.0202 28.6943ZM15.0972 31.0388C15.0972 33.0421 15.7036 33.9915 16.7834 33.9915C17.6274 33.9915 18.7608 33.3851 20.1033 32.2253C19.0761 32.4633 18.2857 32.6201 17.5743 32.6201C16.6249 32.6201 15.8889 32.2513 15.0972 31.0388ZM21.9234 20.4968C22.0547 20.0748 22.1597 19.5491 22.1597 18.9686C22.1597 17.7039 21.5796 15.7788 19.7879 15.7788C18.7608 15.7788 18.0209 16.5956 18.0209 17.5717C18.0209 19.6545 20.1037 20.4968 21.9234 20.4968ZM19.6817 27.1389C18.8126 27.1389 17.8637 26.0587 17.8637 25.0834C17.8637 24.5564 18.2585 23.8969 18.5492 23.8969C18.6546 23.8969 18.7077 23.9764 18.7332 24.1616C18.8921 25.4523 19.7344 26.1908 20.5265 26.5585C20.606 26.6116 20.6574 26.6379 20.6574 26.691C20.6574 26.875 20.1564 27.1385 19.6813 27.1385M22.1078 23.9228C22.2897 24.1712 22.7933 24.4774 22.7933 24.6618C22.7933 25.0303 22.5816 25.5054 22.1597 25.5054C21.2367 25.5054 20.4993 24.1085 20.4993 23.3168C20.4993 22.8166 20.79 22.7648 21.1835 22.7648C21.3692 22.7648 21.447 22.7907 21.5796 22.8702C21.8171 23.0011 21.8171 23.5284 22.1078 23.9228ZM15.9148 27.1921C15.865 27.2736 15.8353 27.3761 15.8353 27.4827C15.8353 27.719 16.0988 27.9825 16.3355 27.9825C16.5471 27.9825 16.6785 27.9306 16.7834 27.9306C17.4158 27.9306 18.1272 28.3773 19.1556 28.3773C19.7607 28.3773 20.473 28.1933 21.3692 27.7462C23.2659 26.796 24.0057 24.4515 24.0057 24.0554C24.0057 23.5544 23.6029 23.6192 23.2659 23.1583C22.9304 22.6999 23.0593 22.2922 22.8451 22.0781C22.7222 21.9551 22.3454 21.9467 21.869 21.894C21.6765 21.8752 21.4832 21.8664 21.2898 21.8677C20.4199 21.8677 19.3894 21.9739 18.2326 22.7117C15.9457 24.17 16.2824 26.5856 15.9148 27.1921ZM24.664 26.1381C24.0839 26.8219 23.4775 27.9825 23.4775 29.1681C23.4775 30.5909 24.3486 31.7766 25.6924 31.7766C26.983 31.7766 27.589 30.6704 27.589 29.5379C27.589 27.7721 25.9818 26.5329 24.664 26.1381ZM19.0243 21.0772C19.0243 21.0772 18.2585 21.6561 17.3104 21.6561C16.1783 21.6561 15.2812 20.8134 15.2812 19.6281C15.2812 18.8101 15.7036 17.9678 16.678 17.5454C16.6521 17.7043 16.6521 17.8352 16.6521 17.9937C16.6521 19.4955 17.4948 20.6293 19.0243 21.0772ZM65.4911 29.826C65.4911 30.4333 65.993 30.9343 66.5923 30.9343C66.8858 30.9328 67.1668 30.8155 67.3744 30.608C67.582 30.4005 67.6993 30.1195 67.701 29.826C67.701 29.2208 67.2 28.7207 66.5927 28.7207C65.9934 28.7207 65.4911 29.2213 65.4911 29.826ZM65.5702 33.1467C65.5702 33.4748 65.7005 33.7896 65.9325 34.0216C66.1646 34.2536 66.4793 34.384 66.8075 34.384C67.1356 34.384 67.4503 34.2536 67.6824 34.0216C67.9144 33.7896 68.0448 33.4748 68.0448 33.1467C68.0388 32.8225 67.9058 32.5135 67.6744 32.2864C67.443 32.0592 67.1317 31.9319 66.8075 31.9319C66.4832 31.9319 66.1719 32.0592 65.9405 32.2864C65.7091 32.5135 65.5761 32.8225 65.5702 33.1467ZM61.7727 35.3875C61.7737 35.8698 61.9658 36.3321 62.307 36.6731C62.6481 37.0141 63.1105 37.206 63.5928 37.2068C64.594 37.2068 65.4129 36.3887 65.4129 35.3875C65.4129 34.3863 64.594 33.5687 63.5928 33.5687C63.1105 33.5694 62.6481 33.7613 62.307 34.1023C61.9658 34.4433 61.7737 34.9052 61.7727 35.3875ZM62.748 31.672C62.7488 31.9515 62.8602 32.2193 63.058 32.4169C63.2557 32.6144 63.5237 32.7255 63.8032 32.726C64.0825 32.7253 64.3502 32.6141 64.5478 32.4166C64.7454 32.2191 64.8567 31.9514 64.8575 31.672C64.8567 31.3927 64.7455 31.1251 64.548 30.9275C64.3505 30.73 64.0829 30.6186 63.8036 30.6177C63.5241 30.6184 63.2563 30.7296 63.0585 30.927C62.8607 31.1245 62.7491 31.3926 62.748 31.672ZM59.2968 33.7803C59.2975 34.0588 59.4082 34.3258 59.6048 34.523C59.8014 34.7203 60.0681 34.8318 60.3466 34.8334C60.9279 34.8334 61.403 34.3608 61.403 33.7803C61.403 33.1998 60.9279 32.7264 60.3462 32.7264C60.0676 32.7282 59.8011 32.84 59.6046 33.0374C59.4081 33.2348 59.2975 33.5018 59.2968 33.7803ZM62.0094 27.6145C62.0094 28.5362 62.7739 29.2999 63.6969 29.2999C64.6212 29.2999 65.3857 28.5362 65.3857 27.6145C65.3857 26.6902 64.6212 25.9269 63.6969 25.9269C62.7739 25.9269 62.0094 26.6902 62.0094 27.6145ZM63.9876 24.3716C63.9876 24.5031 64.0135 24.6333 64.0639 24.7549C64.1143 24.8764 64.1881 24.9867 64.2812 25.0797C64.3742 25.1726 64.4847 25.2463 64.6063 25.2966C64.7279 25.3468 64.8581 25.3725 64.9897 25.3724C65.1236 25.3762 65.257 25.3532 65.3819 25.3046C65.5068 25.256 65.6207 25.1829 65.7169 25.0895C65.813 24.9961 65.8894 24.8843 65.9416 24.7609C65.9938 24.6374 66.0207 24.5048 66.0207 24.3707C66.0207 24.2367 65.9938 24.104 65.9416 23.9806C65.8894 23.8571 65.813 23.7454 65.7169 23.652C65.6207 23.5586 65.5068 23.4855 65.3819 23.4369C65.257 23.3883 65.1236 23.3652 64.9897 23.3691C64.858 23.3691 64.7277 23.395 64.6061 23.4454C64.4845 23.4958 64.374 23.5696 64.281 23.6627C64.1879 23.7558 64.1141 23.8664 64.0638 23.988C64.0134 24.1096 63.9875 24.2399 63.9876 24.3716ZM59.219 26.9018C59.2184 27.1668 59.3229 27.4212 59.5097 27.6092C59.6965 27.7972 59.9503 27.9033 60.2152 27.9043C60.4809 27.9043 60.7357 27.7988 60.9235 27.6109C61.1114 27.4231 61.2169 27.1683 61.2169 26.9026C61.2169 26.637 61.1114 26.3822 60.9235 26.1944C60.7357 26.0065 60.4809 25.901 60.2152 25.901C59.9505 25.9019 59.6969 26.0078 59.5102 26.1954C59.3234 26.383 59.2187 26.6371 59.219 26.9018ZM59.0865 30.327C59.085 30.5382 59.1254 30.7475 59.2053 30.943C59.2852 31.1384 59.4031 31.3161 59.5522 31.4657C59.7012 31.6152 59.8784 31.7338 60.0736 31.8144C60.2687 31.8951 60.4779 31.9362 60.6891 31.9355C60.9009 31.937 61.1108 31.8965 61.3068 31.8162C61.5027 31.7359 61.6808 31.6175 61.8307 31.4679C61.9805 31.3183 62.0992 31.1404 62.1798 30.9445C62.2604 30.7487 62.3013 30.5388 62.3001 30.327C62.3001 29.432 61.5862 28.7211 60.6891 28.7211C60.4781 28.7202 60.2691 28.7612 60.074 28.8417C59.879 28.9221 59.7019 29.0405 59.5528 29.1898C59.4038 29.3391 59.2859 29.5165 59.2058 29.7117C59.1258 29.9069 59.0852 30.1161 59.0865 30.327ZM55.7641 32.0146C55.7641 32.8326 56.4488 33.5156 57.2664 33.5156C58.0832 33.5156 58.7699 32.8326 58.7699 32.0146C58.7699 31.1978 58.0832 30.5123 57.2664 30.5123C56.4488 30.5123 55.7641 31.1982 55.7641 32.0146ZM56.66 28.2987C56.6609 28.5778 56.7722 28.8452 56.9694 29.0427C57.1667 29.2401 57.4339 29.3517 57.713 29.353C58.2944 29.353 58.7699 28.8779 58.7699 28.2991C58.7699 27.7203 58.2948 27.2448 57.713 27.2448C57.434 27.2461 57.1668 27.3576 56.9696 27.5549C56.7723 27.7523 56.6611 28.0196 56.66 28.2987ZM65.9131 36.4159C65.9131 35.889 66.3882 35.4406 66.9093 35.4406C67.4906 35.4406 67.9385 35.8885 67.9385 36.4159C67.9385 37.0223 67.491 37.4439 66.9093 37.4439C66.3882 37.4439 65.9131 37.0223 65.9131 36.4159ZM66.5931 66.7261C66.7253 66.7261 66.8838 66.8038 66.8838 67.2802C66.8838 67.8594 66.6203 68.6227 65.676 69.2291C65.0164 69.677 64.1193 70.0471 62.8003 70.0706C63.0106 69.4395 63.1691 68.7799 63.1691 68.1501C63.1691 67.9385 63.1441 67.7804 63.1173 67.5437H63.4611C65.5438 67.5437 66.4417 66.7261 66.5931 66.7261ZM66.8043 64.1164C67.0184 63.9357 67.0678 63.6425 67.0678 63.3518V62.7454C67.0678 61.9809 65.9135 61.5343 64.3297 61.5343C62.4042 61.5343 61.3762 62.4016 61.3762 62.7714V63.9854C61.3762 64.4865 62.5368 64.9875 63.9608 64.9875C65.0955 64.9875 66.1247 64.6981 66.8047 64.1164M68.1752 64.407C67.4898 64.9356 65.8876 66.1184 63.2223 66.1184C61.7982 66.1184 61.1646 65.6709 60.953 65.6709C60.6895 65.6709 60.3988 65.9344 60.1094 66.2781C59.4829 67.0167 58.6649 68.3876 58.6649 69.8886C58.6649 70.9426 59.4829 71.9935 61.0061 71.9935C65.9394 71.9935 69.6269 68.9113 69.6269 66.4095C69.6269 64.9875 68.7842 64.407 68.1757 64.407M69.0991 42.2413C69.0991 42.8996 69.3107 43.6641 69.9702 43.6641C70.5231 43.6641 70.9982 42.8218 70.9982 41.8988C70.9982 40.8445 70.8142 40.0264 70.8142 39.6044C70.8142 39.4213 70.8933 39.3422 70.9982 39.3422C71.3943 39.3681 71.7644 40.4484 72.186 40.4484C72.6615 40.4484 73.3679 39.5785 73.6577 39.5785C73.7372 39.5785 73.7627 39.6839 73.7627 39.7098C73.7627 40.1059 73.1563 40.977 73.1563 41.3183C73.1563 41.6077 74.6857 41.6612 74.6857 41.9247C74.6857 42.3204 73.0831 42.3204 72.3186 42.6633C71.58 42.9786 71.1308 43.3747 71.1308 43.9017C71.1308 44.4286 71.6578 44.5332 72.398 44.5332C74.1587 44.5332 75.3975 43.5851 75.7919 43.5851C75.8714 43.5851 75.9232 43.6382 75.9232 43.7176C75.9232 43.9811 75.0274 44.8498 75.0274 45.2458C75.0274 45.6933 76.663 46.2194 76.6371 46.4829C76.6112 46.5624 76.5045 46.5883 76.3205 46.5883C76.0294 46.5883 75.5815 46.5101 75.2377 46.5101C75.0274 46.5101 74.8429 46.536 74.7626 46.6414C74.5807 46.853 74.8158 48.2486 74.4494 48.2486C74.1056 48.2486 73.2085 45.1404 71.1839 45.1404C70.8933 45.1404 70.6829 45.3767 70.6829 45.7728C70.6829 46.8259 71.7109 48.0383 72.6874 48.6188C73.1295 48.9082 73.8693 49.1988 73.8693 49.3573C73.8693 49.6718 72.1864 49.3833 72.1864 49.9094C72.1864 50.3845 72.3976 51.0971 72.3976 51.5179C72.3976 51.65 72.3704 51.8073 72.2123 51.8073C71.8966 51.8073 71.1308 50.3581 70.7611 50.3581C70.4453 50.3581 69.7599 51.2272 69.468 51.2272C69.3898 51.2272 69.3379 51.1477 69.3379 51.0712C69.3379 50.4635 70.3128 49.0939 70.3128 47.7489C70.3128 47.1165 70.2337 45.7456 69.468 45.7456C68.8356 45.7456 68.123 46.7464 67.8064 47.7489C67.6219 48.3281 67.7541 50.5685 67.3321 50.5685C66.9365 50.5685 67.0414 49.0667 66.5132 49.0667C66.1243 49.0667 65.2807 49.7781 64.9897 49.7781C64.9378 49.7781 64.8847 49.7509 64.8847 49.6986C64.8847 49.3833 65.6492 48.3553 65.6492 48.1437C65.6492 47.7489 63.9086 47.697 63.9086 47.38C63.9086 47.196 64.594 47.0634 65.2272 46.958C66.5676 46.7205 68.5462 45.7452 68.5462 44.3767C68.5462 42.8477 67.0674 42.1882 66.0984 41.5546C65.5965 41.2393 65.0432 40.9766 65.0432 40.765C65.0432 40.5534 65.6764 40.5538 65.9403 40.5538C66.3347 40.5538 66.7261 40.5274 66.7261 40.2121C66.7261 39.9737 66.6717 39.5007 66.6717 39.1318C66.6717 38.8671 66.6989 38.6555 66.8056 38.6555C67.2 38.6555 67.7541 39.9474 68.0176 39.9474C68.44 39.9474 69.0201 38.8935 69.4169 38.8935C69.547 38.8935 69.6001 38.9733 69.6001 39.21C69.6001 40.1845 69.0991 41.2911 69.0991 42.2413ZM56.5274 34.5189C56.8185 36.7589 59.8251 35.6255 59.8251 38.3401C59.8251 38.7358 59.7201 39.3163 59.7201 39.8148C59.7201 40.3961 59.7719 40.8976 60.2152 40.8976C60.6627 40.8976 60.7694 40.581 60.7694 40.159C60.7694 39.7358 60.6632 39.2096 60.6632 38.9202C60.6632 37.9972 61.3227 37.7868 61.7183 37.7868C62.7221 37.7868 63.4866 38.8152 64.9897 38.8152C64.6471 40.5015 61.1642 40.0523 61.1642 41.8988C61.1642 42.8218 62.0885 43.0309 62.6949 43.0309C63.249 43.0309 63.4347 42.9515 63.4347 42.4789C63.4347 42.2141 63.3803 41.9247 63.3803 41.7403C63.38 41.7123 63.3853 41.6846 63.3958 41.6587C63.4064 41.6328 63.4221 41.6093 63.4419 41.5896C63.4617 41.5699 63.4852 41.5543 63.5112 41.5438C63.5371 41.5334 63.5648 41.5282 63.5928 41.5287C64.1733 41.5287 67.0155 43.6904 67.0155 44.3496C67.0155 44.9547 64.0135 45.5611 63.1436 45.5611C62.8802 45.5611 62.827 45.3771 62.827 45.2717C62.827 45.0873 63.275 44.5332 63.275 44.2174C63.275 43.9811 62.8802 43.8226 61.8237 43.8226C61.3227 43.8226 60.9538 43.8745 60.9538 44.2718C60.9538 44.9819 62.1144 45.8518 62.1144 46.5101C62.1144 47.0371 61.7978 47.3541 60.9538 47.3541C60.2412 47.3541 59.1655 46.7999 59.1655 45.8777C59.1655 45.1404 59.9254 44.4031 59.9254 43.9552C59.9254 43.8226 59.8251 43.611 59.5085 43.611C58.5323 43.611 58.2684 46.1935 54.8139 46.4829C55.3685 45.9831 55.8423 45.4298 55.8423 44.2977C55.8423 43.7436 55.711 43.294 55.711 42.6892C55.711 41.8988 56.0799 41.5027 56.6068 41.5027C57.5821 41.5027 58.056 42.8724 58.6904 42.8724C59.0346 42.8724 59.4031 42.5579 59.4031 42.0828C59.4031 40.0795 55.5525 40.3694 55.5525 37.5493C55.5525 36.7848 55.8147 35.8367 56.5274 34.5189Z" fill="#5381B5"/>
<path d="M61.5341 51.6498C61.5341 52.0182 61.7975 52.3093 62.1672 52.3093C62.5896 52.3093 62.854 51.9392 62.854 51.5172C62.854 50.9652 62.3521 50.1998 61.8766 50.1998C61.665 50.1998 61.7457 50.5164 61.6913 50.8589C61.665 51.1216 61.5341 51.4382 61.5341 51.6494M60.1631 48.1447C62.9317 48.6716 64.4352 50.754 64.4352 52.7041C64.4352 54.0487 63.5917 55.285 62.1141 55.285C60.7691 55.285 59.7989 54.3645 59.7989 52.8873C59.7989 51.7807 60.6629 50.6214 60.6629 49.488C60.6629 49.0405 60.5316 48.5926 60.1631 48.1447ZM56.6601 52.6259C56.9223 52.8873 57.003 53.152 57.003 53.4155C57.003 53.8112 56.8182 54.2331 56.8182 54.681C56.8182 55.3126 57.2925 55.8667 57.9767 55.8667C58.7165 55.8667 59.2188 55.2854 59.2188 54.6033C59.2188 53.6008 58.187 52.6259 56.6601 52.6259ZM65.3854 50.9392C65.5699 51.2265 65.6489 51.5172 65.6489 51.7807C65.6489 52.5197 65.1479 53.2039 65.1479 53.9697C65.1479 54.8396 65.8074 55.5497 66.8049 55.5497C67.8864 55.5497 68.625 54.681 68.625 53.6531C68.625 52.2562 67.3595 51.0705 65.3854 50.9392ZM57.2925 49.5403C58.5061 49.6984 58.7968 50.1203 58.7968 50.4645C58.7968 51.0434 58.2686 51.2265 57.7663 51.2265C57.3974 51.2265 56.9759 51.1488 56.5275 51.1488C55.9475 51.1488 55.3682 51.2797 54.8931 51.8342C55.2361 51.8873 55.7371 52.1236 55.7371 52.6518C55.7371 54.18 51.493 52.9145 51.493 56.8424C51.493 58.9239 53.6544 61.1919 56.9223 61.1919C58.6111 61.1919 59.6926 60.6378 59.6926 60.0042C59.6926 59.5044 58.7968 59.8461 58.7968 59.4241C58.7968 59.2397 59.1121 58.8959 59.1121 58.6061C59.1121 58.4772 59.0072 58.2397 58.7968 58.2397C58.3204 58.2397 57.4246 59.0021 55.6045 59.0021C54.1817 59.0021 52.7845 58.1866 52.7845 57.0791C52.7845 56.8428 52.8899 56.7094 53.0479 56.7094C53.206 56.7094 53.4168 56.8156 53.6012 56.8156C53.761 56.8156 53.7869 56.7094 53.7869 56.4196C53.7869 56.1298 53.7869 55.3121 54.2867 55.3121C54.7877 55.3121 55.7371 57.1582 59.3769 57.1582C60.5851 57.1582 62.9318 56.9206 63.8033 56.1302C63.7761 59.0293 61.5081 62.8502 56.7651 62.8502C51.8368 62.8502 49.1999 58.8959 49.1999 55.2594C49.1999 51.2265 52.4938 47.565 57.0026 47.565C58.1611 47.565 59.1385 47.9586 59.1385 48.46C59.1385 49.1463 57.4246 48.7247 57.2925 49.5403ZM40.2399 19.4434C41.9797 19.4434 42.7689 20.9457 42.7689 22.6324C42.7689 23.3697 42.5598 24.4512 42.2169 24.4512C41.8739 24.4512 41.9266 23.8448 41.8743 23.2906C41.8212 22.5801 41.6903 22.422 41.4523 22.422C41.0036 22.422 40.715 23.4751 40.715 24.4512C40.715 25.0564 40.8204 25.7427 41.2943 25.7427C41.5577 25.7427 41.7953 25.6105 41.9525 25.452C41.8471 26.6649 40.9501 27.72 39.6858 27.72C37.3667 27.72 36.4968 25.0041 36.2334 23.4228C34.8365 24.8991 33.5459 25.9802 31.226 25.9802C29.0655 25.9802 28.0894 24.3994 28.0894 22.8971C28.0894 22.4479 28.2474 21.2886 28.802 21.2886C29.4603 21.2886 28.8815 23.4487 30.1717 23.4487C30.4883 23.4487 31.0675 23.1853 31.3845 22.3166C31.5685 21.7884 31.6752 21.2363 31.6752 20.7612C31.6752 20.0486 31.5163 19.6019 30.9906 19.6019C30.5414 19.6019 29.9872 19.9436 29.8028 20.1281C30.4364 18.2298 31.9646 17.2549 33.65 17.2549C35.7336 17.2549 36.8398 19.1009 36.8398 21.156C36.8398 21.4455 36.8126 21.7625 36.7603 22.0519C37.6566 20.5756 38.8962 19.4434 40.2399 19.4434ZM38.2095 22.5529C38.2095 22.1054 38.1045 22 37.9991 22C37.7356 22 37.4462 22.3166 37.0242 23.028C37.0773 23.9774 37.2358 24.3989 37.4993 24.3989C37.7879 24.3989 38.2095 23.4747 38.2095 22.5529ZM34.599 23.6332C34.8884 23.6332 35.2585 23.3166 35.944 22.5529C35.9971 22.21 35.9971 21.8934 35.9971 21.499C35.9971 20.972 35.7855 20.3915 35.4701 20.3915C34.678 20.3915 34.2832 22.501 34.2832 23.0556C34.2832 23.3697 34.4405 23.6332 34.599 23.6332ZM38.8962 25.9802C39.5545 25.9802 40.2918 23.4487 40.2918 21.8674C40.2918 21.5245 40.2399 21.1565 40.0814 21.1565C39.5273 21.1565 38.6051 23.7657 38.6051 25.1885C38.6051 25.7427 38.7377 25.9802 38.8962 25.9802ZM32.4393 24.5303C33.3351 24.5303 34.361 19.681 34.361 18.8634C34.361 18.6517 34.2828 18.4932 34.0988 18.4932C33.282 18.4932 32.1486 23.1062 32.1486 24.1342C32.1486 24.3199 32.2017 24.5303 32.4393 24.5303Z" fill="#5381B5"/>
<path d="M35.3108 26.5322C34.1774 26.5322 34.1255 27.9044 34.1255 30.67C33.2828 28.852 31.8855 26.9019 30.2511 26.9019C29.1449 26.9019 28.723 27.6409 28.723 28.9302C28.723 29.195 28.7489 29.591 28.8024 29.8261C28.9333 29.3794 29.3566 29.195 29.8823 29.195C31.0156 29.195 32.387 30.0636 33.2824 31.2501C32.2544 31.0661 31.2524 30.8817 30.4092 30.8817C29.8823 30.8817 29.4072 30.9348 29.0124 31.1192C28.2479 31.4605 27.2199 32.5939 27.2199 34.3077C27.2199 34.5712 27.2471 34.8606 27.3002 35.1776C28.2219 33.1212 30.6731 32.1991 32.2544 32.1991C32.571 32.1991 32.8077 32.2254 32.9917 32.2513C32.1754 32.9887 31.9909 34.2818 31.9378 35.1504C31.9119 35.5724 31.7534 35.5996 31.464 35.5996C31.464 36.4683 32.1494 37.761 32.1494 38.4193C32.1494 38.6556 32.0169 38.8672 31.886 38.9203C31.886 40.08 33.0453 40.9236 33.0453 41.6613C33.0453 41.8453 32.9917 42.0043 32.9127 42.0833C32.9922 42.5584 34.2673 43.3559 34.4325 43.7553C34.6349 44.2413 34.8629 44.3241 34.995 44.3241C35.4429 44.3241 36.1535 43.7955 36.1535 43.3216C36.1535 43.1636 36.0222 42.9787 35.918 42.8997C35.417 42.5312 35.1527 41.7404 34.9419 41.2134C34.7566 41.2134 34.5178 41.1352 34.435 40.8257C34.2907 40.2795 34.2836 39.2632 34.072 38.6556C33.7291 38.5778 33.571 38.4452 33.571 37.7355C33.571 37.3913 33.7826 36.0475 33.7826 35.5724C33.6241 35.5724 33.4137 35.467 33.4137 35.15C33.4137 34.3077 34.2577 33.6486 34.494 32.5679C35.9975 33.6741 36.3651 34.8075 36.3651 35.81C36.3651 36.3357 36.2856 36.838 36.1807 37.3131C37.2881 36.7589 38.9485 35.9421 38.9485 34.2818C38.9485 33.3057 38.501 32.2254 35.5224 31.8034C36.4442 31.4605 37.6051 31.2773 38.5796 31.2773C40.2663 31.2773 41.2411 31.8034 41.4515 32.9887C41.7945 32.463 42.0592 31.8553 42.0592 31.3032C42.0592 30.0105 40.9764 29.1678 39.6067 29.1678C37.9995 29.1678 36.5763 30.0105 35.0473 31.0398C35.734 29.617 36.2066 28.773 37.0506 28.773C37.1827 28.773 37.3153 28.8002 37.4462 28.8261C37.1296 27.6668 35.9444 26.5322 35.3108 26.5322ZM79.7179 45.5345C81.0369 45.5345 82.0909 47.2483 82.0909 49.2516C82.0909 51.3845 81.0888 53.7048 79.3018 55.2849C79.2746 51.7287 74.9205 52.8621 74.9205 50.2788C74.9205 49.1721 75.7126 48.4336 76.6628 48.4336C77.5076 48.4336 78.1659 48.6711 78.641 49.1462C78.1659 48.6987 77.9283 48.0647 77.9283 47.4599C77.9283 46.4562 78.5619 45.5345 79.7179 45.5345ZM60.1631 18.5726C59.9511 18.2296 59.1653 18.0469 58.7964 18.0469C57.6346 18.0469 56.8441 18.8637 56.6856 19.6022C56.5806 19.3375 56.5004 19.0218 56.5004 18.7052C56.5004 17.5459 57.292 16.1226 59.2188 16.1226C60.9013 16.1226 61.5596 17.0185 61.7984 17.0185C62.061 17.0185 62.3253 16.7537 62.537 16.7537C62.8268 16.7537 62.8268 17.2029 62.8268 17.5199C62.8268 18.5726 62.3529 20.3918 61.1652 21.051C60.9536 20.6022 60.5316 20.102 59.8507 19.7867C59.7718 19.7553 59.7043 19.7005 59.6572 19.6298C59.6101 19.559 59.5857 19.4756 59.5872 19.3906C59.5872 19.1012 59.8511 18.7311 60.1631 18.5726ZM56.1846 20.4968C56.8705 21.1564 57.4752 21.4462 58.2138 21.4462C58.5057 21.4462 58.8487 21.368 59.0339 21.368C59.2706 21.368 59.4287 21.4717 59.4287 21.6565C59.4287 21.9468 59.1653 22.4211 58.8487 22.6854C59.1653 22.8167 59.5082 22.8702 59.8779 22.8702C61.3751 22.8702 63.0898 21.9196 63.0898 19.5491C63.4068 19.9699 63.5925 20.8406 63.5925 21.2354C63.5925 24.1086 61.4818 25.2148 59.5354 25.2148C58.2682 25.2148 57.6346 24.7928 57.4752 24.7928C56.9763 24.7928 57.0026 25.7953 56.6597 25.7689C56.0524 25.6639 55.5004 24.3189 55.5004 22.8957C55.5004 22.0522 55.7108 21.1559 56.1846 20.4968ZM33.6241 3.73495C33.6241 3.57644 32.8336 3.41835 31.7534 3.41835C30.0408 3.41835 30.2771 4.8424 28.9605 4.8424C27.5896 4.8424 27.9313 3.36482 26.1919 3.36482C25.1371 3.36482 24.1635 3.55051 24.1635 3.78722C24.1635 4.10382 25.4019 3.9725 25.4019 4.8424C25.4019 5.76415 22.7403 6.02889 22.7403 6.58219C22.7403 6.76538 22.9494 6.84442 23.2129 6.84442C23.7934 6.84442 24.7156 6.58178 25.3751 6.58178C25.7448 6.58178 26.0873 6.65998 26.0873 7.00292C26.0873 7.66204 24.6633 8.84895 24.6633 9.37591C24.6633 9.53442 24.7946 9.58753 24.9268 9.58753C25.4537 9.58753 26.35 8.24253 27.1935 8.24253C28.5904 8.24253 27.669 11.2207 28.4323 11.2207C29.224 11.2207 28.8815 8.29439 30.0136 8.29439C30.9379 8.29439 31.6221 10.3236 32.2544 10.3236C32.4129 10.3236 32.5451 10.1927 32.5451 10.007C32.5451 9.45495 31.7534 8.32032 31.7534 7.583C31.7534 7.13508 32.07 6.92346 32.492 6.92346C33.0971 6.92346 33.9152 7.29233 34.3614 7.29233C34.5203 7.29233 34.6784 7.24047 34.6784 7.05604C34.6784 6.42369 32.3335 5.73822 32.3335 4.92144C32.3335 4.10382 33.6241 4.10382 33.6241 3.73495ZM39.8184 6.42369C39.8184 6.89753 41.4787 7.92594 42.2436 7.92594C42.6903 7.92594 42.8224 7.31952 42.8224 6.68591C42.8224 5.89631 42.4812 5.87038 41.7945 5.87038C40.9258 5.87038 39.8184 6.10793 39.8184 6.42369ZM42.5602 11.6414C42.5602 10.0605 38.2831 7.1882 38.2371 5.94943C38.2325 5.83651 38.2939 5.72359 38.3893 5.62238C39.1224 4.85076 42.1642 4.287 42.1642 3.62872C42.1642 3.28703 41.531 3.28703 41.214 3.28703C38.764 3.28703 35.1795 4.18286 35.1795 5.05276C35.1795 5.94984 38.3943 8.13714 38.3943 9.2174C38.3943 9.50807 38.2099 9.61346 37.9192 9.61346C37.0242 9.61346 35.0732 8.53194 34.151 8.53194C33.7295 8.53194 33.571 8.82177 33.571 9.24333C33.571 10.5093 35.0732 12.9069 35.0732 13.6179C35.0732 13.697 35.0473 13.8019 34.9419 13.8019C34.4668 13.8019 32.2285 11.1676 31.4368 11.1676C31.147 11.1676 31.121 11.5624 31.121 12.1424V13.0387C31.121 13.6451 31.0939 14.0131 30.8057 14.0131C30.1198 14.0131 29.802 12.0893 29.1454 12.0893C28.4595 12.0893 28.3273 15.5158 27.669 15.5158C26.9041 15.5158 27.5636 11.7468 26.8251 11.7468C26.0083 11.7468 25.0853 14.2511 24.5052 14.2511C24.2948 14.2511 24.2426 14.0395 24.2426 13.8551C24.2426 13.0918 24.6892 11.853 24.6892 11.1157C24.6892 10.7456 24.5842 10.5352 24.2685 10.5352C23.4509 10.5352 21.658 11.853 20.9737 11.853C20.8684 11.853 20.737 11.7999 20.737 11.6945C20.737 11.0626 23.609 9.05932 23.609 8.16349C23.609 7.29233 19.6547 7.87366 19.6547 6.87119C19.6547 6.02889 22.4768 5.15773 22.4768 4.28909C22.4772 3.52333 19.1286 3.18164 17.8383 3.18164C16.2817 3.18164 15.4403 3.36482 15.4403 3.81399C15.4403 4.49987 18.9717 4.71107 18.9717 5.31624C18.9717 5.89631 15.3081 7.45084 15.3081 8.34667C15.3081 9.13836 20.4723 8.39978 20.4723 9.2174C20.4723 10.1132 15.9672 13.9864 15.9672 15.2783C15.9672 15.5689 16.1788 15.6998 16.467 15.6998C17.8383 15.6998 21.3945 13.0918 22.3706 13.0918C22.7135 13.0918 22.7403 13.5125 22.7403 13.881C22.7403 14.5677 22.5028 15.6208 22.5028 16.3857C22.5028 16.9921 22.6617 17.4137 23.1874 17.4137C24.1635 17.4137 25.0593 15.7534 25.7176 15.7534C26.5603 15.7534 26.0614 20.6286 27.3261 20.6286C28.4064 20.6286 28.8543 15.3573 29.5385 15.3573C30.2252 15.3573 30.7793 16.8867 31.4104 16.8867C32.2009 16.8867 31.8328 14.2252 32.6764 14.2252C33.5982 14.2252 36.2325 17.3878 37.4203 17.3878C37.7883 17.3878 37.9192 17.0971 37.9192 16.727C37.9192 15.3314 35.9703 12.1696 35.9703 11.1676C35.9703 10.9041 36.0481 10.8246 36.3379 10.8246C37.3672 10.8246 40.3717 12.2478 41.7945 12.2478C42.2695 12.2478 42.5602 11.9844 42.5602 11.6414ZM18.4958 10.1132C18.4958 10.6402 16.4938 12.4051 15.7832 12.4051C15.5197 12.4051 15.4403 12.0893 15.4403 11.7999C15.4403 11.2738 15.677 10.5352 15.9676 10.2977C16.3093 9.98108 17.0998 9.82508 17.7062 9.82508C18.0738 9.82508 18.4958 9.90161 18.4958 10.1132ZM37.8678 12.8279C37.8678 13.7501 41.1625 18.2564 41.7949 18.2564C42.3231 18.2564 42.7166 17.3347 42.7166 16.5425C42.7166 16.3334 42.6648 16.1231 42.5606 15.9637C42.0855 15.3054 38.7385 12.6698 37.9999 12.6698C37.9196 12.6698 37.8678 12.7493 37.8678 12.8279ZM80.1921 4.84281C80.1921 5.21043 80.482 5.49984 80.8517 5.49984C80.9383 5.50078 81.0243 5.48447 81.1045 5.45184C81.1848 5.41922 81.2577 5.37093 81.3191 5.30981C81.3805 5.24869 81.4291 5.17595 81.4621 5.09585C81.4951 5.01574 81.5118 4.92986 81.5112 4.84323C81.5112 4.47311 81.2205 4.18328 80.8517 4.18328C80.7648 4.18233 80.6786 4.19874 80.5982 4.23154C80.5177 4.26435 80.4446 4.3129 80.3832 4.37433C80.3218 4.43577 80.2732 4.50885 80.2404 4.5893C80.2076 4.66975 80.1912 4.75594 80.1921 4.84281ZM75.897 10.667C75.897 8.795 71.4204 8.32074 71.4204 7.89917C71.4204 7.55749 73.9213 6.97616 75.212 6.94981C73.2359 4.42083 70.4183 4.68431 70.4183 4.23639C70.4183 3.97166 72.5278 3.4447 74.4755 3.4447C76.1091 3.4447 77.6381 3.81357 77.6381 5.05192C77.6381 5.73864 77.0852 6.45004 77.0852 7.50437C77.0852 8.08486 77.3738 8.58464 78.1404 8.58464C78.9584 8.58464 79.1428 7.71474 79.1428 6.79172C79.1428 6.02847 79.0103 5.44798 79.0103 5.07911C79.0103 3.97166 79.7702 3.23475 80.8517 3.23475C81.7488 3.23475 81.9591 3.62914 83.2782 3.62914C82.5655 4.05112 82.3029 4.81688 82.3029 5.1845C82.3029 6.29195 83.0156 7.05646 83.0156 9.32321C83.0156 13.4858 79.1156 14.9621 74.3433 14.9621C73.0301 14.9621 71.632 14.8567 70.2598 14.6463C70.0494 14.6204 69.9963 14.5669 69.9963 14.436C69.9963 14.0922 71.8695 13.9078 71.8695 12.2223C71.8695 11.5628 71.6579 10.9304 71.6579 10.6929C71.6579 10.562 71.7633 10.4825 71.8695 10.4825C72.2656 10.4825 73.0573 12.0107 74.5286 12.0107C74.9213 12.0107 75.8974 11.8785 75.8974 10.667M80.3494 8.0054C80.3494 10.3504 78.6418 12.1433 75.5532 12.6435C75.8974 12.669 76.214 12.669 76.5306 12.669C80.139 12.669 81.4581 11.0358 81.4581 9.66616C81.4581 8.90123 81.0357 8.21535 80.3494 8.0054ZM78.5356 41.9771C78.958 40.6597 79.4862 39.7362 80.3502 38.3135C79.4862 37.8668 77.191 36.9166 77.191 35.3608C77.191 33.5432 79.459 32.1204 79.9282 32.1204C80.1386 32.1204 80.1917 32.3045 80.1917 32.6474C80.1917 33.5955 79.7438 35.1245 79.7438 35.9413C79.7438 36.679 80.2189 37.3917 80.6409 37.3917C81.0884 37.3917 82.3284 35.8104 82.3284 34.255C82.3284 31.4596 79.8751 30.6169 79.1165 30.6169C78.4034 30.6169 77.1119 31.7767 74.079 31.7767C68.4146 31.7767 67.1215 26.165 67.1215 23.7125C67.1215 23.6075 67.1474 23.5804 67.1738 23.5804C67.3059 23.5804 67.8601 24.2671 69.653 24.2671C70.576 24.2671 71.42 24.0295 72.7662 24.0295C75.9238 24.0295 77.3223 26.2181 79.2746 29.0097C80.4552 29.7474 83.2786 30.9335 83.2786 34.281C83.2786 37.2332 80.1386 38.8676 79.38 42.0293C80.5878 41.8993 81.3004 39.7362 82.5388 39.7362C83.1724 39.7362 83.463 40.2373 83.463 41.0294C83.463 42.1878 82.8035 43.9285 81.5367 45.0087C81.5639 44.9021 81.5639 44.7712 81.5639 44.6127C81.5639 43.8754 81.2745 42.8223 80.4293 42.8223C79.1161 42.8223 78.6932 44.2442 77.9555 45.4295C77.191 42.7428 76.1613 40.3167 74.3178 38.8404C72.4505 37.3382 69.231 38.1549 69.231 35.4143C69.231 34.6758 69.7061 33.6227 69.7061 32.7787C69.7061 32.4893 69.653 32.2254 69.4949 32.0142C72.0276 32.9644 71.1301 34.6494 72.6868 36.3892C73.657 37.4967 76.3462 38.551 77.9036 43.1104C77.9287 42.9783 77.9555 42.6366 77.9555 42.3991C77.9555 38.4979 72.7921 34.6758 72.3442 33.0945C75.3437 33.4374 75.8707 34.1756 77.296 38.129C77.5858 38.9471 78.5356 40.9763 78.5356 41.9771ZM77.8501 29.1941C77.8501 28.6408 76.4512 28.589 76.3198 27.0336C76.2927 26.7961 76.2149 26.3753 75.9242 26.3753C75.4491 26.3753 75.8176 27.8245 75.2906 27.8245C74.079 27.8245 73.6846 25.4523 73.2355 25.4523C73.1288 25.4523 73.0038 25.5318 73.0038 25.8484C73.0038 26.1378 73.0569 26.3235 73.0569 26.6639C73.0569 27.0077 72.9774 27.244 72.6608 27.244C71.9482 27.244 71.3158 25.5849 70.7086 25.5849C70.576 25.5849 70.4451 25.6639 70.4451 25.7953C70.4451 26.1119 70.972 26.6911 70.972 26.9818C70.972 27.6141 69.2582 27.2712 69.2582 27.7985C69.2582 28.0361 69.4949 28.1139 69.8115 28.1139C70.3656 28.1139 71.2368 27.8776 71.6847 27.8776C71.9482 27.8776 72.3442 27.9307 72.3442 28.2724C72.3442 28.6408 71.3949 29.1151 71.3949 29.4576C71.3949 29.6161 71.5538 29.6939 71.6847 29.6939C72.3973 29.6939 73.6574 28.4568 74.5541 28.4568C74.7114 28.4568 75.1062 28.5359 75.1062 28.7734C75.1062 29.1151 74.2112 29.7203 74.2112 30.2213C74.2112 30.3535 74.2906 30.512 74.4491 30.512C74.9205 30.512 75.5541 29.2732 76.4512 29.2732C76.7949 29.2732 77.296 29.4058 77.5594 29.4058C77.7715 29.4058 77.8505 29.2732 77.8505 29.1941" fill="#5381B5"/>
<path d="M58.2146 13.4068C58.6378 13.4068 58.7169 14.4357 58.7972 15.0408C58.8495 15.3578 58.9026 15.3838 59.0352 15.3838C59.3517 15.3838 59.8515 14.1709 60.1894 14.1709C60.6896 14.1709 62.0359 15.5678 64.2776 15.5678C67.4652 15.5678 70.4718 13.3274 70.4718 9.37519C70.4718 5.55433 67.7806 3.3135 64.0659 3.3135C62.3006 3.3135 61.0062 4.1834 60.3208 4.1834C59.9046 4.20933 59.271 3.15625 58.9544 3.15625C58.8235 3.15625 58.691 3.41847 58.691 3.86639C58.691 4.15747 58.691 5.07923 58.3744 5.07923C57.7395 5.07923 55.2896 3.26164 55.2896 3.91992C55.2896 4.52634 56.9231 6.3707 56.9231 6.84496C56.9231 7.32006 55.3155 7.76797 55.3155 8.08456C55.3155 8.6638 57.0294 8.76877 57.0294 9.50777C57.0294 10.2451 55.2365 10.8252 55.2365 11.3797C55.2365 11.8264 57.0294 11.5106 57.0294 12.0639C57.0294 12.6172 55.7116 14.462 55.7116 14.9877C55.7116 15.1203 55.7375 15.1203 55.8429 15.1203C56.3427 15.1203 57.8449 13.4068 58.2146 13.4068ZM58.9816 9.08578C58.9816 8.79596 57.9511 8.24307 57.9511 7.92606C57.9511 7.8742 58.003 7.84701 58.0837 7.84701C58.3744 7.84701 58.8754 7.95324 59.2715 7.95324C59.6152 7.95324 59.6671 6.47692 59.926 6.47692C60.1091 6.47692 60.4262 7.8742 60.7181 7.8742C61.0593 7.8742 61.6917 7.47814 61.9564 7.47814C62.0095 7.47814 62.0618 7.50449 62.0618 7.55761C62.0618 7.74162 61.4023 8.45218 61.4023 8.6638C61.4023 8.90135 62.8794 9.19076 62.8794 9.40238C62.8794 9.66586 61.3764 9.63993 61.3764 9.87748C61.3764 10.0607 61.9305 10.7992 61.9305 11.0359C61.9305 11.0891 61.9033 11.1162 61.851 11.1162C61.6398 11.1162 60.8222 10.7461 60.5842 10.7461C60.2948 10.7461 59.8256 11.8264 59.588 11.8264C59.5086 11.8264 59.4567 11.721 59.4567 11.5888L59.4024 10.5349C59.4024 10.4295 59.3517 10.3241 59.2192 10.3241C58.9026 10.3241 58.2949 10.297 58.1096 10.297C57.9771 10.297 57.9252 10.271 57.9252 10.2192C57.9252 10.0075 58.9816 9.2698 58.9816 9.08578ZM64.1199 14.0927C62.2739 14.0927 61.0598 13.171 61.0598 12.6959C61.0598 12.4583 61.2183 12.3011 61.4299 12.3011C62.01 12.3011 63.2759 13.1961 63.6979 13.1961C63.8029 13.1961 63.8819 13.1438 63.8819 12.9853C63.8819 12.5102 63.4344 11.7206 63.4344 11.3262C63.4344 11.2208 63.5135 11.1418 63.672 11.1418C64.3829 11.1418 65.4398 11.4324 65.9943 11.4324C66.1775 11.4324 66.2294 11.3262 66.2294 11.2208C66.2294 10.6407 64.5155 9.50735 64.5155 9.16441C64.5155 8.84782 66.6464 8.37272 66.6464 7.87378C66.6464 7.34557 63.7498 7.71444 63.7498 7.21425C63.7498 6.84454 64.3039 6.21219 64.3039 5.92236C64.3039 5.7902 64.1989 5.73835 64.0145 5.73835C63.7769 5.73835 62.5114 6.23937 61.984 6.23937C61.7193 6.23937 61.4027 6.18626 61.4027 5.81739C61.4027 5.20971 62.4319 4.55143 64.0404 4.55143C66.6464 4.55143 68.2042 6.34435 68.2042 9.34843C68.2042 13.1438 65.5439 14.0927 64.1199 14.0927ZM46.2761 59.688C46.2761 59.9255 46.1966 60.1903 45.9854 60.4529C45.6968 59.926 44.8788 59.6608 44.5091 59.6625C41.7957 59.6625 42.8224 63.5896 39.9233 63.5896C38.7121 63.5896 38.6059 63.4311 38.1576 63.4311C37.9736 63.4311 37.8682 63.5105 37.8682 63.6686C37.8682 64.3553 38.843 66.0408 41.5581 66.0408C44.2732 66.0408 46.8821 64.3813 46.8821 62.3228C46.8821 61.9811 46.803 61.6147 46.6445 61.2446C46.7499 61.0861 47.0147 60.9811 47.2522 60.9811C47.6729 60.9811 47.9105 61.4562 48.3053 61.4562C48.7281 61.4562 49.0439 61.1396 49.0439 60.7177C49.0439 60.3747 48.8598 60.1372 48.5428 59.9774C48.7545 59.8206 48.9117 59.5558 48.9117 59.2664C48.9117 58.8181 48.5959 58.3986 48.0677 58.3986C47.8302 58.3986 47.6729 58.4781 47.4885 58.66C47.4366 58.1874 47.1732 57.7391 46.6717 57.7391C46.2761 57.7391 45.9854 58.0289 45.9854 58.4781C45.9854 58.8963 46.2761 59.2401 46.2761 59.688Z" fill="#5381B5"/>
<path d="M39.186 60.6905C38.3956 60.6905 37.2087 59.8466 37.2087 59.3715C37.2087 58.9754 37.5788 58.7642 37.8669 58.7642C38.5265 58.7642 39.7117 59.5818 39.7117 60.2673C39.7117 60.453 39.5796 60.6905 39.186 60.6905ZM31.8324 54.7869C33.9407 55.3118 34.995 56.4452 35.2054 57.7914C35.417 59.0808 35.6805 60.136 36.1807 60.6634C36.8398 61.4032 38.1304 62.059 39.2651 62.059C40.2144 62.059 40.9764 61.7457 40.9764 60.875C40.9764 59.9256 39.6858 57.7914 37.7879 57.7914C37.6047 57.7914 37.3672 57.8186 37.1037 57.8186C36.8661 57.8186 36.5232 57.7655 36.3116 57.5811C35.8909 57.2109 35.7595 55.234 34.9678 54.0484C34.0992 52.731 33.1503 52.3608 31.8596 52.3608C30.9379 52.3608 29.9082 52.8619 29.9082 53.6004C29.9082 54.0484 30.1458 54.3641 31.8324 54.7869Z" fill="#5381B5"/>
<path d="M45.0633 51.5704C45.0633 50.3847 42.6108 50.3588 42.6108 48.5659C42.6108 48.1167 42.9015 47.353 43.482 46.5354C43.7195 47.9063 44.2724 48.6181 45.4593 49.0669C47.8039 49.9355 48.1209 51.2533 48.1209 52.6515C48.1209 55.0249 46.4606 57.9758 42.1914 57.9758C38.764 57.9758 36.3128 54.9186 36.3128 52.3361C36.3128 51.6235 36.4969 50.8326 36.9452 50.8326C37.3408 50.8326 37.4734 51.1484 37.7879 51.465C38.9757 52.6515 40.2659 52.9672 42.1382 52.9672C43.8245 52.9672 45.0633 52.283 45.0633 51.5704ZM45.1683 53.4682C44.2645 53.8823 43.904 53.8112 43.904 54.7355C43.904 55.0767 43.8245 55.5234 43.8245 55.7609C43.8245 56.0767 43.8776 56.2624 44.2452 56.2624C45.1954 56.2624 46.6977 54.6547 46.6977 53.2838C46.6977 52.9141 46.4861 52.7581 46.2485 52.7581C46.0369 52.7581 45.8019 53.1788 45.1683 53.4682ZM36.7608 40.1592C36.7608 38.4717 40.7673 37.5759 40.7673 35.4935C40.7673 35.1506 40.636 34.5454 40.3985 34.0967C41.7953 34.8612 42.8225 36.1543 42.8225 37.207C42.8225 39.0262 40.9254 39.8685 40.9254 41.0032C40.9254 42.321 42.9546 42.5314 42.9546 44.1658C42.9546 45.5083 41.0295 47.064 41.0295 48.8038C41.0295 50.1472 41.9797 51.2533 43.4289 51.4378C42.9546 51.544 42.533 51.6235 42.0851 51.6235C39.4223 51.6235 36.6817 49.437 36.6817 46.8265C36.6817 45.5342 37.2359 44.4033 38.0786 43.5853C38.8172 44.218 39.5549 44.6396 40.0283 44.6396C40.4507 44.6396 40.636 44.4292 40.636 44.1126C40.636 43.1365 36.7608 42.2419 36.7608 40.1592ZM21.4735 53.1784C21.5848 54.0789 22.4237 54.7605 23.3714 54.6556C23.7131 54.6179 24.031 54.523 24.2426 54.3921C24.4529 55.2348 25.161 55.7772 26.117 55.6518C27.0873 55.5255 27.7481 54.761 27.6427 53.7844C27.6239 53.5749 27.5705 53.37 27.4846 53.178C27.4846 53.178 27.6134 53.1655 27.7105 53.1462C28.6615 52.9664 29.3035 52.2031 29.2244 51.2801C29.119 50.3324 28.268 49.6281 27.3805 49.7369C27.0375 49.7791 26.7197 49.9092 26.5081 50.0949C26.2705 49.3053 25.5274 48.6173 24.5119 48.7863C23.596 48.9377 22.9896 49.7156 23.082 50.7009C23.0962 50.8606 23.1339 51.0438 23.2133 51.227L22.952 51.2659C22.1824 51.3805 21.3481 52.1546 21.4735 53.1784ZM26.3985 52.1417C26.4239 52.4029 26.3458 52.6637 26.181 52.8679C26.0161 53.0722 25.7777 53.2036 25.517 53.2339C25.2563 53.2643 24.9941 53.1911 24.7868 53.0302C24.5794 52.8693 24.4435 52.6334 24.4082 52.3733C24.393 52.2427 24.4037 52.1103 24.4396 51.9837C24.4756 51.8571 24.5361 51.7389 24.6178 51.6357C24.6994 51.5326 24.8006 51.4465 24.9155 51.3824C25.0304 51.3184 25.1568 51.2776 25.2875 51.2623C25.4182 51.2471 25.5506 51.2578 25.6772 51.2938C25.8037 51.3297 25.922 51.3902 26.0251 51.4719C26.1283 51.5536 26.2144 51.6547 26.2784 51.7696C26.3425 51.8846 26.3833 52.011 26.3985 52.1417Z" fill="#5381B5"/>
</svg>
