<svg width="1046" height="563" viewBox="0 0 1046 563" fill="none" xmlns="http://www.w3.org/2000/svg">
<path fill-rule="evenodd" clip-rule="evenodd" d="M376.19 14.1043C365.77 7.18415 352.629 3.94745 336.211 5.54858C310.304 8.07506 285.318 27.2674 263.072 55.9196C240.891 84.4873 221.787 122.014 207.557 160.263C199.662 181.484 193.286 202.879 188.72 223.028C195.775 238.843 201.559 254.795 205.768 269.457C211.876 290.735 214.793 309.714 213.254 321.824C212.499 327.768 210.564 332.896 206.483 335.284C202.225 337.774 196.916 336.601 191.202 333.074C184.081 328.678 179.759 319.977 177.488 308.928C175.201 297.797 174.886 283.767 176.238 267.957C177.402 254.352 179.809 239.336 183.316 223.572C170.143 194.415 152.685 166.045 133.049 147.685C108.455 124.689 68.684 117.171 40.1781 133.269C12.0262 149.167 -6.43601 188.991 13.4816 263.407C32.655 335.043 89.7122 398.694 146.034 445.593C169.152 464.844 192.085 481.221 212.109 494.118C214.71 491.986 217.422 489.848 220.241 487.707C244.167 469.528 276.108 450.82 313.275 433.513C314.314 433.029 315.357 432.547 316.404 432.065C322.398 423.479 328.214 414.63 333.762 405.577C367.845 349.959 401.568 246.07 409.868 157.76C414.021 113.577 411.768 73.6777 400.303 45.7603C394.587 31.8429 386.64 21.0435 376.19 14.1043ZM325.464 427.971C329.817 421.527 334.06 414.95 338.158 408.263C372.719 351.866 406.639 247.193 414.999 158.241C419.177 113.794 417.014 72.8885 405.071 43.8078C399.083 29.2261 390.577 17.4781 379.045 9.81936C367.483 2.1415 353.113 -1.27044 335.71 0.426807C307.662 3.16215 281.528 23.7495 258.998 52.7666C236.403 81.8682 217.075 119.901 202.725 158.472C195.603 177.617 189.692 196.935 185.214 215.406C172.191 187.928 155.438 161.569 136.572 143.929C110.625 119.667 68.4346 111.399 37.6407 128.79C6.49272 146.38 -11.6836 189.317 8.50231 264.736C28.0912 337.924 86.1468 402.426 142.733 449.546C165.512 468.514 188.112 484.713 207.978 497.579C190.862 512.246 179.214 526.529 174.973 539.384C172.485 546.926 171.766 552.947 173.348 557.12C174.188 559.335 175.672 561.014 177.744 561.997C179.744 562.947 182.073 563.146 184.506 562.879C189.327 562.349 195.342 559.895 202.1 556.045C208.918 552.161 216.72 546.722 225.168 539.972C232.099 534.434 239.493 527.989 247.167 520.757C257.715 526.304 265.831 529.858 270.474 531.143C271.845 531.522 273.265 530.72 273.646 529.35C274.026 527.981 273.222 526.563 271.85 526.184C267.867 525.081 260.671 521.973 251.101 517.004C273.418 495.455 297.785 467.565 319.827 436.158C393.046 402.653 486.076 374.681 578.171 366.86C809.091 347.248 919.757 371.269 975.071 396.666C1002.66 409.336 1016.55 422.378 1024.8 430.667C1025.4 431.272 1025.98 431.861 1026.54 432.428C1027.89 433.793 1029.11 435.031 1030.2 436.063C1031.72 437.506 1033.24 438.782 1034.78 439.542C1036.44 440.364 1038.28 440.642 1040.19 439.87C1041.91 439.174 1043.36 437.75 1044.69 436.025C1045.56 434.9 1045.35 433.284 1044.23 432.416C1043.1 431.547 1041.48 431.756 1040.61 432.881C1039.45 434.38 1038.7 434.923 1038.26 435.1C1038.01 435.2 1037.73 435.258 1037.06 434.928C1036.26 434.536 1035.23 433.731 1033.74 432.326C1032.72 431.359 1031.6 430.221 1030.29 428.89C1029.71 428.311 1029.11 427.695 1028.46 427.041C1019.92 418.461 1005.54 404.992 977.224 391.991C920.722 366.048 809.006 342.091 577.735 361.732C488.2 369.336 397.888 395.825 325.464 427.971ZM310.338 440.583C275.602 457.095 245.824 474.735 223.362 491.802C221.054 493.556 218.826 495.301 216.682 497.035C219.408 498.758 222.074 500.412 224.672 501.995C232.617 506.839 239.897 511.008 246.31 514.467C266.951 494.684 289.502 469.279 310.338 440.583ZM242.376 518.191C236.208 514.83 229.354 510.88 221.986 506.388C218.916 504.516 215.753 502.548 212.508 500.486C195.041 515.256 183.777 529.147 179.868 540.994C177.429 548.388 177.261 552.904 178.169 555.299C178.574 556.368 179.179 556.98 179.957 557.35C180.807 557.753 182.088 557.968 183.943 557.764C187.698 557.351 192.971 555.321 199.546 551.576C206.061 547.864 213.636 542.595 221.948 535.954C228.393 530.804 235.254 524.85 242.376 518.191ZM186.857 231.669C184.199 244.673 182.344 257.05 181.374 268.395C180.044 283.943 180.387 297.43 182.537 307.894C184.705 318.442 188.599 325.416 193.913 328.697C199.142 331.925 202.168 331.844 203.877 330.844C205.763 329.741 207.427 326.799 208.141 321.176C209.542 310.153 206.883 292.017 200.814 270.875C197.235 258.41 192.516 245.047 186.857 231.669Z" fill="#356296"/>
</svg>
