<svg width="140" height="140" viewBox="0 0 140 140" fill="none" xmlns="http://www.w3.org/2000/svg">
<path fill-rule="evenodd" clip-rule="evenodd" d="M38.1419 52.6047C38.1414 52.6051 38.1445 52.6007 38.1523 52.591C38.1462 52.5996 38.1424 52.6043 38.1419 52.6047ZM38.2277 52.5055C38.2413 52.4907 38.2568 52.4741 38.2743 52.4557C38.4044 52.3187 38.6016 52.1251 38.8704 51.8738C39.4053 51.3737 40.1812 50.6846 41.1761 49.8334C43.1634 48.133 45.9951 45.8106 49.4566 43.1039C56.3801 37.69 65.8013 30.7555 75.995 24.2001C86.197 17.6395 97.1311 11.4858 107.088 7.60669C107.464 7.45994 107.839 7.31663 108.212 7.17684C108.624 11.361 111.307 19.3998 119.514 24.3011C123.79 26.8552 127.373 27.9954 130.158 28.3528C131.29 28.4982 132.307 28.5155 133.19 28.4389C131.299 33.4532 128.705 38.9696 125.596 44.7494C114.798 64.8242 98.0096 87.68 83.9186 102.904C83.3794 102.889 82.7743 102.881 82.111 102.872L82.1109 102.872L82.1107 102.872C78.6856 102.823 73.7109 102.753 68.2676 101.742C70.3903 99.1013 72.2898 96.7134 73.8341 94.7539C74.263 94.2096 74.1744 93.4194 73.636 92.989C73.0977 92.5585 72.3135 92.6508 71.8846 93.1951C70.1445 95.4031 67.9658 98.1391 65.5332 101.157C59.2778 99.638 52.8197 96.7483 47.8357 91.2291C43.2705 86.1738 40.3576 81.3897 38.5886 76.9308C40.5918 75.4315 42.3156 74.2297 43.6419 73.3686C44.2215 72.9922 44.3905 72.2144 44.0193 71.6314C43.6481 71.0485 42.8773 70.881 42.2976 71.2574C41.0677 72.056 39.5102 73.1356 37.7132 74.4647C37.146 72.6553 36.7614 70.9043 36.5227 69.2157C35.6163 62.8055 36.7934 57.1815 38.2277 52.5055ZM136.659 26.1116C137.556 23.4006 138.231 20.8392 138.646 18.4689C139.316 14.6523 139.336 11.2151 138.438 8.41185C137.521 5.54877 135.657 3.3968 132.738 2.24508C125.816 -0.485509 116.295 1.32892 106.197 5.26311C97.0659 8.82043 87.1991 14.2187 77.8547 20.0574C72.962 19.8364 65.5622 19.7651 59.0685 20.2664C55.7954 20.5192 52.7031 20.9208 50.2636 21.5393C49.0455 21.8481 47.9439 22.2223 47.0488 22.6847C46.1762 23.1356 45.3579 23.7425 44.9045 24.5927C44.1863 25.9396 44.0652 27.4578 44.2559 28.9313C44.4465 30.4042 44.9579 31.9128 45.6019 33.3298C46.7331 35.8182 48.3424 38.1724 49.6455 39.7901C49.0594 40.2426 48.4884 40.6863 47.9334 41.1204C44.4487 43.8452 41.5877 46.1912 39.5672 47.9199C38.5582 48.7833 37.7515 49.4989 37.179 50.0342C36.8941 50.3006 36.6563 50.5324 36.4771 50.721C36.3883 50.8145 36.3024 50.9094 36.2284 51.0003C36.1778 51.0626 36.0496 51.2211 35.9619 51.4232C35.9436 51.4653 35.9276 51.5085 35.9139 51.5525C34.3985 56.4378 33.0604 62.546 34.0549 69.5793C34.3503 71.6686 34.8501 73.8295 35.6054 76.0555C27.7059 82.1334 16.4599 92.0566 7.59251 103.765C5.73564 106.217 4.44921 108.15 3.65873 109.642C3.26378 110.387 2.97313 111.059 2.80283 111.655C2.63781 112.234 2.55111 112.86 2.69979 113.452C2.86806 114.121 3.30657 114.618 3.90626 114.877C4.43574 115.106 5.01515 115.12 5.51847 115.07C6.53122 114.969 7.77742 114.548 9.07947 114C11.7205 112.889 15.0649 111.046 18.209 109.277C18.6596 109.024 19.1056 108.772 19.5452 108.524L19.5457 108.524L19.5458 108.524C21.458 107.445 23.2466 106.436 24.7395 105.658C23.1517 107.756 20.4909 110.813 17.4454 114.291L16.8238 115.001C13.7039 118.562 10.2757 122.476 7.34032 126.099C4.24062 129.925 1.57585 133.564 0.455212 136.171C0.301918 136.528 0.176717 136.901 0.130581 137.267C0.0860024 137.621 0.0956869 138.137 0.418156 138.602C0.764665 139.101 1.27949 139.271 1.67433 139.31C2.04951 139.347 2.4222 139.281 2.73796 139.196C3.95359 138.872 5.76928 137.857 7.85092 136.536C12.1093 133.832 18.1593 129.394 24.2852 124.895L24.4768 124.755C30.5673 120.282 36.7254 115.76 41.3791 112.736C43.7456 111.198 45.6465 110.099 46.9234 109.576C47.0698 109.516 47.2027 109.466 47.3223 109.425C47.206 109.971 46.9787 110.694 46.6225 111.595C46.0856 112.954 45.3173 114.57 44.408 116.333C42.7887 119.474 40.7661 122.998 38.9029 126.244L38.9022 126.245C38.6729 126.645 38.4461 127.04 38.2227 127.43C36.2213 130.922 34.4305 134.089 33.8042 135.787C33.6593 136.18 33.4938 136.7 33.5192 137.179C33.5325 137.431 33.6119 137.919 34.0449 138.282C34.4971 138.661 35.012 138.637 35.2925 138.583C35.7927 138.485 36.2849 138.155 36.6782 137.86C37.1282 137.522 37.6734 137.05 38.3184 136.446C44.5663 130.594 57.158 115.492 66.4864 103.951C66.828 104.023 67.1681 104.091 67.5063 104.156C73.3057 105.266 78.6969 105.34 82.1674 105.387L82.1676 105.387L82.1677 105.387L82.1681 105.387L82.1716 105.387C83.0368 105.399 83.7825 105.409 84.3852 105.434C84.7473 105.448 85.0984 105.303 85.3469 105.036C89.4112 100.67 93.7033 95.6665 98.0182 90.2708C100.782 91.8056 104.759 93.6586 108.364 94.5599C110.282 95.0391 112.225 95.2838 113.865 94.9734C115.581 94.6486 117.058 93.6798 117.648 91.7651C118.214 89.9268 118.631 87.0447 118.946 83.833C119.264 80.591 119.486 76.913 119.636 73.427C119.787 69.9391 119.866 66.6317 119.896 64.1267C119.911 62.8745 119.914 61.8191 119.907 61.0395C119.904 60.6505 119.898 60.3248 119.891 60.0754C119.885 59.8962 119.877 59.6919 119.858 59.5327C122.727 54.9431 125.401 50.3762 127.786 45.941C131.263 39.4783 134.151 33.2544 136.143 27.6202C136.655 27.3013 136.863 26.6648 136.659 26.1116ZM51.6344 38.2655C57.9556 33.4538 65.7536 27.8375 74.0953 22.447C69.6344 22.3474 64.1642 22.3926 59.2497 22.7721C56.0319 23.0205 53.1015 23.4088 50.8631 23.9763C49.7423 24.2604 48.8411 24.5783 48.1792 24.9203C47.4948 25.2739 47.2018 25.5838 47.0991 25.7763C46.7053 26.5148 46.5801 27.4571 46.7276 28.5971C46.8752 29.7377 47.2867 30.9955 47.8687 32.2759C48.9097 34.566 50.4252 36.7741 51.6344 38.2655ZM108.973 92.1206C105.804 91.3286 102.228 89.7024 99.6016 88.2745C105.739 80.4727 111.872 71.939 117.411 63.3786C117.409 63.6121 117.406 63.8546 117.403 64.1054C117.373 66.5868 117.295 69.8678 117.146 73.3271C116.996 76.7883 116.777 80.4161 116.465 83.5951C116.151 86.8045 115.751 89.4586 115.268 91.0282C115.018 91.8399 114.455 92.3066 113.414 92.5037C112.296 92.7152 110.764 92.5685 108.973 92.1206ZM134.157 25.7386C133.404 25.9409 132.183 26.0783 130.481 25.8599C128.087 25.5527 124.825 24.5479 120.79 22.1378C112.934 17.4457 110.763 9.54796 110.65 6.30392C119.183 3.39847 126.565 2.512 131.822 4.58572C134.005 5.44673 135.363 6.99725 136.066 9.19202C136.788 11.4466 136.826 14.4226 136.192 18.0402C135.778 20.3979 135.088 22.9789 134.157 25.7386ZM36.53 78.5018C28.813 84.5012 18.0643 94.0719 9.57172 105.286C7.74665 107.696 6.55371 109.503 5.85647 110.819C5.50757 111.478 5.30227 111.977 5.19818 112.342C5.17134 112.436 5.15313 112.515 5.14083 112.579C5.18221 112.578 5.22944 112.574 5.28303 112.569C5.90555 112.507 6.86445 112.213 8.12642 111.682C10.6134 110.635 13.8328 108.866 17.0008 107.084C17.4421 106.836 17.8829 106.587 18.3205 106.34L18.3208 106.34L18.3216 106.339L18.3217 106.339L18.3226 106.339C20.9795 104.84 23.5164 103.408 25.3351 102.566C25.8627 102.321 26.431 102.105 26.9429 102.086C27.2086 102.076 27.6482 102.111 28.038 102.427C28.47 102.776 28.5883 103.257 28.5936 103.605C28.5986 103.926 28.5155 104.216 28.4382 104.427C28.3555 104.653 28.2442 104.883 28.1215 105.106C27.8762 105.552 27.5345 106.066 27.1309 106.622C25.5265 108.835 22.5803 112.218 19.3114 115.95L18.6979 116.651L18.6974 116.651C15.5695 120.222 12.1719 124.1 9.26862 127.684C6.49249 131.111 4.25866 134.161 3.11957 136.369C3.95617 135.972 5.10062 135.317 6.52831 134.41C10.6978 131.764 16.6667 127.386 22.8225 122.866L23.0625 122.69L23.0635 122.689C29.1165 118.244 35.32 113.689 40.034 110.625C42.4071 109.083 44.4795 107.868 45.9934 107.248C46.7093 106.955 47.5002 106.708 48.1958 106.77C48.5784 106.804 49.0538 106.943 49.426 107.345C49.8002 107.75 49.9068 108.245 49.9094 108.651C49.916 109.722 49.5006 111.094 48.9377 112.518C48.3561 113.99 47.5446 115.691 46.6188 117.486C44.9713 120.681 42.9182 124.258 41.0595 127.496C40.8296 127.897 40.6027 128.292 40.3799 128.681C39.2893 130.584 38.3154 132.3 37.561 133.709C43.7724 127.605 55.0374 114.119 63.7955 103.308C57.5732 101.639 51.0971 98.5806 45.9896 92.9246C41.4497 87.8972 38.4354 83.0723 36.53 78.5018ZM2.60298 137.58L2.60276 137.581C2.60274 137.581 2.60274 137.581 2.6028 137.581L2.60326 137.576L2.60298 137.58ZM26.1126 103.525C26.1127 103.525 26.1123 103.527 26.1111 103.531C26.112 103.528 26.1125 103.526 26.1126 103.525ZM86.717 34.6322C89.84 34.6164 92.9147 35.1705 95.3058 36.079C95.9491 36.3235 96.2722 37.0481 96.0273 37.6976C95.7825 38.347 95.0625 38.6754 94.4192 38.431C92.34 37.641 89.5703 37.1307 86.7203 37.1451C83.8658 37.1596 81.0319 37.6996 78.7723 38.9146C76.5455 40.112 74.877 41.9576 74.2206 44.6827C73.5532 47.4537 73.8926 51.3007 76.0667 56.5336C78.5429 62.4938 84.3751 65.6561 90.6197 65.2486C96.8393 64.8428 103.511 60.8683 107.424 52.378C108.37 50.3261 108.188 48.7996 107.446 47.5761C106.649 46.2629 105.092 45.1112 102.937 44.1633C98.6409 42.2742 92.6066 41.4705 88.033 41.3961C87.3448 41.3849 86.7979 40.8134 86.8116 40.1195C86.8252 39.4257 87.3942 38.8723 88.0824 38.8835C92.8114 38.9604 99.2175 39.7824 103.94 41.8594C106.294 42.8945 108.391 44.3109 109.573 46.2592C110.81 48.2972 110.931 50.7255 109.684 53.4299C105.416 62.6924 97.9732 67.2864 90.7716 67.7563C83.595 68.2246 76.6994 64.5698 73.767 57.5117C71.477 52 70.96 47.5791 71.7984 44.0982C72.6479 40.5715 74.8475 38.1813 77.6055 36.6983C80.3308 35.2329 83.5985 34.648 86.717 34.6322Z" fill="#8AB4E4"/>
</svg>
