<svg width="164" height="115" viewBox="0 0 164 115" fill="none" xmlns="http://www.w3.org/2000/svg">
<path fill-rule="evenodd" clip-rule="evenodd" d="M113.773 4.27204C103.864 1.54921 92.1524 3.40189 81.6125 13.5724C71.0058 23.8069 69.1594 33.0351 70.438 40.3571C71.7365 47.7927 76.3002 53.5312 79.0268 56.6192C81.9498 59.9302 82.7816 62.5593 82.7039 65.0461C82.6674 66.2291 82.4245 67.3261 82.2021 68.3138L82.1833 68.3968C81.9619 69.3807 81.7626 70.2663 81.6996 71.2143C81.6384 72.1275 81.7742 72.851 82.0722 73.4589C82.3713 74.0688 82.8775 74.6528 83.6962 75.2164C85.3832 76.3782 88.2135 77.3382 92.6027 78.229C95.8327 78.8839 99.6272 79.1053 103.829 79.2002C104.787 79.2219 105.77 79.2368 106.772 79.2489C107.027 78.6694 107.273 78.0535 107.522 77.4081C107.67 77.0229 107.82 76.6255 107.972 76.2206C108.391 75.1066 108.83 73.9376 109.318 72.8251C110.766 69.5291 113.525 68.4944 116.496 67.3806C116.723 67.2958 116.953 67.2099 117.182 67.1226C120.476 65.8695 124.578 64.1536 129.351 59.3275C135.579 53.0296 138.138 46.674 138.632 40.5594C139.13 34.406 137.547 28.3831 135.291 22.7672C131.929 14.4017 123.752 7.01406 113.773 4.27204ZM109.546 79.2795C109.672 78.9648 109.796 78.6491 109.917 78.3346C110.081 77.9087 110.24 77.4863 110.397 77.0676C110.808 75.9755 111.21 74.906 111.668 73.8627C112.667 71.588 114.41 70.9274 117.665 69.6924C117.804 69.6399 117.946 69.5858 118.091 69.5312C121.554 68.2142 126.036 66.3357 131.174 61.1411C137.801 54.4389 140.645 47.5241 141.191 40.7663C141.735 34.0472 139.999 27.5954 137.672 21.8031C133.994 12.6493 125.159 4.72969 114.453 1.78773C103.676 -1.17348 91.0287 0.913095 79.8329 11.7165C68.7035 22.4558 66.462 32.5166 67.909 40.8029C69.336 48.9756 74.3119 55.1648 77.1041 58.3277C79.7 61.2675 80.1901 63.2812 80.138 64.967C80.1098 65.8708 79.924 66.7428 79.6975 67.7482C79.687 67.7944 79.6764 67.8414 79.6659 67.8883C79.454 68.8303 79.2142 69.8914 79.1379 71.0438C79.053 72.3156 79.2343 73.5067 79.7684 74.5967C80.3014 75.6847 81.1429 76.5832 82.2417 77.34C84.3893 78.8194 87.6685 79.8555 92.0925 80.7532C95.5593 81.4566 99.5462 81.68 103.77 81.7748C104.309 81.7871 104.852 81.7971 105.396 81.8059C104.817 82.6383 104.181 83.2581 103.442 83.6589C102.58 84.1271 101.459 84.3626 99.891 84.1388C98.1811 83.8948 95.7903 83.2939 93.0934 82.6139L93.0896 82.6136C90.4317 81.9434 87.5159 81.2093 84.8666 80.7435C82.2705 80.2876 79.706 80.0451 77.8437 80.5118C76.8859 80.7512 75.9447 81.2202 75.3492 82.1132C74.7425 83.0233 74.657 84.1264 74.9034 85.2798C75.4542 87.8581 77.6191 89.1774 80.0109 89.8683C82.4172 90.5636 85.448 90.7499 88.4607 90.8034C89.7808 90.8264 91.0799 90.825 92.3468 90.8234C94.0673 90.8214 95.7293 90.8187 97.3097 90.8794C98.6524 90.9316 99.8586 91.0274 100.884 91.2005C101.923 91.3761 102.693 91.6174 103.213 91.9111C105.374 93.1344 105.879 95.7029 104.993 97.5885C104.564 98.5006 103.83 99.1946 102.838 99.486C101.843 99.779 100.418 99.7131 98.5421 98.7624C98.017 98.496 97.4743 98.2184 96.918 97.9338C93.1134 95.9881 88.6637 93.7113 84.7368 92.4782C82.4906 91.7723 80.2604 91.3542 78.3357 91.6202C76.3178 91.8988 74.6221 92.9424 73.7112 95.0398C72.9008 96.9088 72.7823 98.7117 73.3528 100.33C73.9187 101.933 75.1044 103.198 76.6133 104.12C79.5999 105.945 84.0692 106.576 88.8016 105.879C93.327 105.212 96.6161 105.229 98.4447 105.781C99.3607 106.057 99.6425 106.386 99.7195 106.551C99.7775 106.677 99.8669 107.039 99.4145 107.857C99.2906 108.08 98.9587 108.442 98.2759 108.868C97.6149 109.279 96.7178 109.693 95.604 110.067C93.3783 110.812 90.3943 111.358 86.9518 111.438C80.0705 111.598 71.4871 109.893 63.6146 104.375C59.5835 101.549 56.0619 98.7679 52.8051 96.1494C52.2876 95.7331 51.7762 95.3205 51.2699 94.9123C48.6012 92.7596 46.0789 90.7251 43.5953 88.9131C37.6593 84.5831 31.8072 81.4202 24.2036 80.6664C12.112 79.4682 3.69106 84.9862 0.883133 88.0696C0.404786 88.5947 0.441246 89.4091 0.964521 89.8893C1.48785 90.3688 2.29993 90.3313 2.77827 89.8062C5.09057 87.2671 12.7363 82.1182 23.9497 83.2298C30.9119 83.9197 36.3275 86.7969 42.0846 90.9968C44.5131 92.7685 46.978 94.7566 49.6475 96.9094C50.1567 97.3204 50.6733 97.7373 51.1986 98.1595C54.4664 100.787 58.0409 103.611 62.1432 106.487C70.5371 112.371 79.6801 114.183 87.01 114.013C90.6734 113.928 93.9155 113.347 96.416 112.51C97.6646 112.091 98.7559 111.6 99.6296 111.055C100.481 110.524 101.231 109.879 101.659 109.107C102.308 107.934 102.596 106.648 102.048 105.465C101.518 104.32 100.388 103.677 99.1857 103.314C96.7782 102.588 93.0042 102.657 88.4304 103.33C84.063 103.973 80.2584 103.33 77.9501 101.92C76.8118 101.225 76.0956 100.382 75.7734 99.4692C75.457 98.5714 75.4656 97.4493 76.0652 96.0674C76.5663 94.9141 77.4161 94.3472 78.6847 94.1718C80.0465 93.9839 81.8425 94.2684 83.9683 94.9359C87.6701 96.0988 91.901 98.2615 95.7316 100.22C96.2916 100.506 96.843 100.788 97.3828 101.061C99.6816 102.227 101.786 102.479 103.559 101.958C105.336 101.436 106.61 100.185 107.315 98.6869C108.695 95.7527 107.966 91.6437 104.476 89.6679C103.582 89.1625 102.478 88.8578 101.311 88.6606C100.131 88.4618 98.8021 88.359 97.4099 88.3057C95.8141 88.2444 94.0298 88.246 92.2429 88.2474C90.9767 88.2484 89.7099 88.2494 88.5069 88.2282C85.5051 88.175 82.7742 87.9859 80.7224 87.3926C78.656 86.7962 77.6654 85.9151 77.4139 84.7392C77.2595 84.0153 77.3851 83.6915 77.483 83.5449C77.592 83.3812 77.8494 83.1645 78.464 83.0108C79.7466 82.6893 81.8262 82.8253 84.4223 83.2813C86.9638 83.7273 89.787 84.4371 92.4663 85.1124L92.5539 85.1343C95.1633 85.7918 97.6737 86.4245 99.5281 86.6889C101.544 86.9764 103.237 86.6986 104.663 85.9242C106.072 85.1592 107.099 83.975 107.908 82.6566C108.069 82.3934 108.224 82.1212 108.372 81.8433C108.554 81.845 108.737 81.8468 108.919 81.8491C111.591 81.8767 114.327 81.9047 117.133 82.0079C126.358 82.3477 135.771 83.4945 143.79 87.9459C151.041 91.9701 155.328 97.1887 157.802 101.386C159.041 103.488 159.825 105.333 160.298 106.645C160.534 107.3 160.692 107.821 160.79 108.172C160.839 108.347 160.872 108.48 160.893 108.566C160.897 108.581 160.9 108.595 160.903 108.607C160.908 108.63 160.912 108.647 160.915 108.659L160.919 108.678L160.92 108.679L160.92 108.68C161.067 109.375 161.747 109.819 162.441 109.671C163.135 109.525 163.578 108.841 163.432 108.145L162.176 108.412C163.432 108.145 163.431 108.144 163.431 108.144L163.431 108.142L163.43 108.138L163.428 108.126L163.419 108.087C163.412 108.056 163.402 108.012 163.388 107.955C163.36 107.842 163.32 107.682 163.263 107.478C163.149 107.07 162.972 106.488 162.713 105.768C162.194 104.328 161.344 102.334 160.013 100.075C157.348 95.5535 152.753 89.9756 145.035 85.6915C136.463 80.9344 126.539 79.7766 117.229 79.4339C114.638 79.3384 112.049 79.3059 109.546 79.2795Z" fill="#8AB4E4"/>
</svg>
