<svg width="91" height="94" viewBox="0 0 91 94" fill="none" xmlns="http://www.w3.org/2000/svg">
<path fill-rule="evenodd" clip-rule="evenodd" d="M56.8048 2.839C56.773 2.86479 56.7346 2.8989 56.689 2.94372C55.9711 3.65012 55.0507 4.96409 53.9615 6.83695C52.8889 8.68115 51.7083 10.9674 50.4548 13.536C48.7245 17.0817 46.8807 21.1118 45.0109 25.1987C44.1674 27.0426 43.3185 28.898 42.4724 30.7256C39.7674 36.5689 37.0857 42.1394 34.7514 45.9755C33.5962 47.874 32.4578 49.4645 31.3771 50.441C30.8413 50.9251 30.205 51.3654 29.4854 51.532C28.6742 51.7198 27.8649 51.5313 27.2114 50.9498C26.4282 50.2528 25.6242 49.1438 24.8342 47.8798C24.0268 46.5876 23.1673 45.023 22.2889 43.3273C21.0825 40.9989 19.811 38.3655 18.5672 35.7895C18.0048 34.6247 17.4481 33.4716 16.9056 32.3637C15.1344 28.7465 13.5395 25.6648 12.3229 23.9849C12.2368 23.8661 12.1554 23.7582 12.0787 23.6607C11.7479 25.3589 11.016 28.6398 10.1019 32.737C9.00008 37.6758 7.63359 43.8007 6.38625 49.7694C5.19195 55.4846 4.10032 61.083 3.42846 65.463C3.09198 67.656 2.86558 69.5138 2.78093 70.9143C2.7385 71.6164 2.73383 72.172 2.76163 72.5811C2.78731 72.9597 2.83454 73.0957 2.83124 73.0968C2.83101 73.0968 2.83054 73.0962 2.82981 73.0951C3.38695 74.0914 4.74083 75.4175 6.94337 76.9328C9.11419 78.4259 11.9647 80.0057 15.312 81.5448C22.0055 84.6227 30.583 87.4912 39.4641 89.1764C50.8228 91.3317 60.8563 91.6648 68.0785 90.7384C71.6997 90.2743 74.535 89.5028 76.4625 88.5414C78.4449 87.5523 79.1353 86.5438 79.2199 85.7578C79.3933 84.152 80.3318 79.8475 81.5058 74.5222C81.6106 74.0448 81.7182 73.5586 81.8274 73.064C82.9503 67.9752 84.2631 62.0244 85.4107 56.3327C86.6731 50.0733 87.7219 44.1886 88.1033 40.1312C88.2565 38.5015 88.2905 37.271 88.2224 36.4557C87.0534 37.4331 85.5902 39.0174 83.9261 40.9708C82.8394 42.2457 81.7456 43.5819 80.6304 44.9438C79.6672 46.1207 78.6875 47.3168 77.6837 48.5093C75.5904 50.9963 73.4862 53.3488 71.6393 54.8705C70.7244 55.6239 69.77 56.2617 68.832 56.567C67.8474 56.8872 66.6938 56.8839 65.7509 56.0369C65.2366 55.5751 64.9254 54.8569 64.7114 54.2439C64.4743 53.5646 64.2624 52.7218 64.0681 51.7694C63.6784 49.8596 63.3288 47.3588 62.9973 44.5213C62.5956 41.0841 62.212 37.0742 61.8157 32.9324C61.5594 30.2497 61.2976 27.5115 61.0221 24.8377C60.3152 17.9811 59.5177 11.5403 58.4854 7.24759C57.9563 5.04908 57.4146 3.64036 56.9278 2.98753C56.8789 2.92239 56.8377 2.87424 56.8048 2.839ZM56.9195 2.76363C56.9195 2.76396 56.9162 2.76563 56.9091 2.76764C56.9162 2.76431 56.9195 2.7633 56.9195 2.76363ZM88.066 35.6116C88.066 35.6115 88.0671 35.6133 88.0688 35.6171C88.0666 35.6136 88.066 35.6117 88.066 35.6116ZM67.5834 53.9709C67.5867 53.9731 67.584 53.9682 67.5757 53.9541C67.545 53.9023 67.4407 53.7266 67.2991 53.3201C67.1208 52.8103 66.9391 52.1054 66.7558 51.2085C66.3908 49.4197 66.0522 47.0152 65.7223 44.1955C65.3228 40.7783 64.9457 36.8299 64.5527 32.7185C64.2953 30.031 64.0319 27.2738 63.7514 24.55C63.0467 17.7144 62.2345 11.0931 61.1516 6.59156C60.6231 4.3929 59.9804 2.47148 59.1182 1.31588C58.6796 0.727765 58.0216 0.12009 57.0995 0.0154497C56.1479 -0.0926523 55.3575 0.38206 54.7758 0.954276C53.776 1.9376 52.7017 3.52916 51.5962 5.42981C50.474 7.35915 49.2595 9.71446 47.994 12.3077C46.248 15.8854 44.3795 19.9695 42.502 24.0734C41.6621 25.9091 40.8205 27.7488 39.9872 29.5488C37.2746 35.4084 34.6545 40.8394 32.4143 44.521C31.2823 46.3814 30.3153 47.6788 29.5487 48.3714C29.2571 48.6349 29.0589 48.751 28.9507 48.7988C28.4882 48.362 27.8824 47.5627 27.154 46.397C26.4039 45.1967 25.5837 43.7071 24.7195 42.0393C23.5316 39.7464 22.29 37.1746 21.0553 34.6174C20.4884 33.4431 19.9229 32.2719 19.3648 31.1321C17.6202 27.5695 15.9205 24.2556 14.5367 22.345C14.1856 21.8601 13.8219 21.4186 13.4507 21.0745C13.1105 20.7591 12.6096 20.3777 11.9795 20.279C11.6325 20.2247 11.2559 20.2587 10.8928 20.4242C10.5389 20.5855 10.2774 20.8352 10.09 21.0896C9.7398 21.5647 9.56324 22.1698 9.45809 22.7453C9.18059 24.2629 8.42216 27.6602 7.44572 32.034C6.34849 36.9486 4.97602 43.0962 3.70139 49.1955C2.50465 54.9221 1.40039 60.5806 0.716718 65.0372C0.375429 67.2619 0.13416 69.2174 0.04186 70.745C-0.00416984 71.5065 -0.0152904 72.1942 0.0238927 72.7715C0.0593761 73.2938 0.145249 73.9255 0.424429 74.4311C1.30134 76.0197 3.10937 77.6522 5.4001 79.2275C7.73507 80.8338 10.7314 82.4873 14.1762 84.0715C21.0672 87.2398 29.8559 90.1772 38.9581 91.9046C50.525 94.0993 60.8536 94.4629 68.4237 93.492C72.1991 93.0075 75.3681 92.1815 77.6765 91.0303C79.9306 89.9058 81.7083 88.2855 81.9481 86.0586C82.0996 84.6515 82.9843 80.5674 84.1841 75.1261C84.2895 74.6476 84.397 74.1597 84.5068 73.6635C85.6286 68.5791 86.9469 62.6044 88.0995 56.8872C89.3624 50.6262 90.4386 44.613 90.8354 40.3939C91.0297 38.3273 91.0802 36.5208 90.8311 35.317C90.7202 34.7795 90.4727 33.9436 89.7504 33.4731C88.8355 32.8776 87.9036 33.2658 87.3706 33.6314C85.7636 34.7334 83.8241 36.8387 81.8471 39.1592C80.784 40.4068 79.6315 41.8132 78.4767 43.2228C77.5004 44.4143 76.5218 45.6081 75.5942 46.7103C73.4966 49.2021 71.5372 51.375 69.9061 52.7187C69.0812 53.3981 68.4429 53.778 67.9918 53.9248C67.7783 53.9942 67.6647 53.9919 67.624 53.9866C67.6059 53.9843 67.5982 53.9829 67.5834 53.9709Z" fill="#8AB4E4"/>
</svg>
