<svg width="228" height="123" viewBox="0 0 228 123" fill="none" xmlns="http://www.w3.org/2000/svg">
<path fill-rule="evenodd" clip-rule="evenodd" d="M82.3401 4.03136C80.087 2.54405 77.2456 1.8484 73.6957 2.19253C68.0942 2.73553 62.6917 6.86043 57.8815 13.0185C53.0856 19.1584 48.9549 27.2238 45.8781 35.4446C44.1711 40.0055 42.7924 44.6036 41.8051 48.9343C43.3306 52.3333 44.5813 55.7618 45.4913 58.913C46.8121 63.486 47.4427 67.5652 47.11 70.1679C46.9467 71.4454 46.5284 72.5477 45.6458 73.0608C44.7253 73.596 43.5772 73.344 42.3418 72.5858C40.8022 71.6409 39.8675 69.7709 39.3767 67.3963C38.8821 65.0038 38.814 61.9886 39.1064 58.5907C39.358 55.6666 39.8784 52.4392 40.6366 49.051C37.7885 42.7846 34.0136 36.6871 29.768 32.7412C24.4502 27.7986 15.8509 26.1829 9.68732 29.6428C3.60031 33.0597 -0.391598 41.6188 3.915 57.6127C8.06069 73.0091 20.3976 86.6892 32.5756 96.7691C37.5742 100.906 42.5328 104.426 46.8623 107.198C47.4247 106.74 48.0112 106.28 48.6206 105.82C53.7939 101.913 60.7003 97.8923 68.7366 94.1727C68.9612 94.0687 69.1867 93.965 69.4131 93.8615C70.7091 92.0161 71.9667 90.1142 73.1662 88.1685C80.5357 76.2149 87.8273 53.8865 89.6219 34.9066C90.5198 25.4106 90.0327 16.8352 87.5537 10.835C86.3178 7.84382 84.5995 5.52278 82.3401 4.03136ZM71.3721 92.9816C72.3133 91.5966 73.2308 90.183 74.1168 88.7458C81.5895 76.6247 88.9237 54.1278 90.7314 35.0099C91.6347 25.4571 91.1671 16.6655 88.5848 10.4154C87.2899 7.28142 85.4509 4.75648 82.9573 3.11042C80.4575 1.46026 77.3504 0.726952 73.5874 1.09173C67.5228 1.67962 61.8722 6.10435 57.0008 12.3408C52.1152 18.5955 47.9361 26.7696 44.8334 35.0594C43.2933 39.1743 42.0153 43.3262 41.0471 47.2961C38.2312 41.3905 34.6089 35.7252 30.5298 31.9339C24.9194 26.7194 15.797 24.9425 9.1387 28.6801C2.40386 32.4606 -1.52623 41.689 2.83838 57.8983C7.07389 73.6282 19.6267 87.4913 31.8619 97.6185C36.7872 101.695 41.6737 105.177 45.9691 107.942C42.2682 111.094 39.7498 114.164 38.8328 116.927C38.2948 118.548 38.1395 119.842 38.4815 120.739C38.663 121.215 38.984 121.576 39.4319 121.787C39.8643 121.991 40.368 122.034 40.8941 121.977C41.9364 121.863 43.2369 121.335 44.6982 120.508C46.1723 119.673 47.8594 118.504 49.686 117.053C51.1846 115.863 52.7834 114.478 54.4426 112.924C56.7233 114.116 58.4782 114.88 59.4821 115.156C59.7786 115.237 60.0856 115.065 60.1678 114.77C60.25 114.476 60.0762 114.171 59.7796 114.09C58.9183 113.853 57.3625 113.185 55.2932 112.117C60.1187 107.486 65.3873 101.491 70.1532 94.7412C85.9846 87.54 106.1 81.5282 126.013 79.8472C175.942 75.6323 199.87 80.7948 211.831 86.2534C217.797 88.9764 220.8 91.7794 222.583 93.5611C222.713 93.6911 222.838 93.8176 222.959 93.9395C223.25 94.2328 223.514 94.4989 223.75 94.7206C224.08 95.0308 224.407 95.3051 224.74 95.4684C225.1 95.645 225.497 95.705 225.911 95.539C226.283 95.3894 226.596 95.0832 226.884 94.7125C227.072 94.4707 227.027 94.1234 226.783 93.9368C226.54 93.7502 226.19 93.795 226.002 94.0368C225.751 94.3591 225.588 94.4757 225.493 94.5137C225.439 94.5352 225.378 94.5476 225.234 94.4768C225.062 94.3925 224.838 94.2195 224.516 93.9175C224.295 93.7097 224.053 93.4651 223.769 93.1792C223.645 93.0546 223.514 92.9222 223.373 92.7816C221.528 90.9377 218.418 88.0427 212.296 85.2485C200.079 79.6727 175.924 74.5238 125.918 78.7451C106.559 80.3794 87.0316 86.0725 71.3721 92.9816ZM68.1016 95.6923C60.5908 99.2411 54.1523 103.032 49.2954 106.7C48.7963 107.077 48.3147 107.452 47.8511 107.825C48.4406 108.195 49.0169 108.551 49.5786 108.891C51.2966 109.932 52.8706 110.828 54.2573 111.572C58.7204 107.32 63.5964 101.86 68.1016 95.6923ZM53.4068 112.372C52.0731 111.65 50.5911 110.801 48.9979 109.835C48.3342 109.433 47.6503 109.01 46.9487 108.567C43.1718 111.741 40.7364 114.727 39.8912 117.273C39.3638 118.862 39.3275 119.833 39.5238 120.347C39.6114 120.577 39.7421 120.709 39.9104 120.788C40.0941 120.875 40.3711 120.921 40.7722 120.877C41.5842 120.788 42.7243 120.352 44.1459 119.547C45.5545 118.75 47.1926 117.617 48.9897 116.19C50.3832 115.083 51.8667 113.803 53.4068 112.372ZM41.4023 50.7914C40.8277 53.5863 40.4266 56.2464 40.2167 58.6848C39.9292 62.0264 40.0034 64.925 40.4683 67.174C40.937 69.441 41.779 70.94 42.9279 71.6451C44.0586 72.339 44.7128 72.3214 45.0825 72.1064C45.4902 71.8694 45.85 71.2371 46.0045 70.0287C46.3073 67.6596 45.7323 63.7616 44.4201 59.2177C43.6464 56.5388 42.6258 53.6666 41.4023 50.7914Z" fill="#8AB4E4" stroke="#8AB4E4" stroke-width="1.3" stroke-linecap="round"/>
</svg>
