<svg width="305" height="291" viewBox="0 0 305 291" fill="none" xmlns="http://www.w3.org/2000/svg">
<path fill-rule="evenodd" clip-rule="evenodd" d="M194.783 8.97973C189.442 5.45469 182.708 3.80595 174.295 4.62155C161.019 5.90851 148.214 15.6848 136.814 30.28C125.447 44.832 115.657 63.9476 108.365 83.4315C104.319 94.2413 101.051 105.139 98.7112 115.403C102.327 123.459 105.291 131.585 107.448 139.053C110.578 149.892 112.073 159.56 111.284 165.729C110.897 168.756 109.906 171.369 107.814 172.585C105.632 173.853 102.911 173.256 99.9834 171.459C96.3342 169.22 94.1191 164.788 92.9557 159.16C91.7836 153.489 91.6221 146.343 92.3151 138.29C92.9115 131.359 94.1449 123.71 95.9419 115.68C89.1917 100.828 80.2448 86.3765 70.1825 77.0243C57.5789 65.3101 37.1978 61.4807 22.5896 69.6808C8.16293 77.7791 -1.2982 98.065 8.90878 135.972C18.7344 172.462 47.9739 204.885 76.8367 228.775C88.6836 238.581 100.436 246.924 110.697 253.493C112.03 252.407 113.42 251.318 114.865 250.228C127.126 240.967 143.495 231.438 162.541 222.622C163.073 222.375 163.608 222.13 164.144 221.884C167.216 217.51 170.197 213.003 173.04 208.391C190.506 180.06 207.787 127.14 212.041 82.1565C214.169 59.6501 213.015 39.3257 207.139 25.1049C204.21 18.0156 200.137 12.5145 194.783 8.97973ZM169.091 218.657C171.321 215.375 173.193 213.166 175.293 209.76C193.004 181.032 210.386 127.712 214.671 82.4014C216.811 59.7605 215.703 38.9237 209.583 24.1104C206.514 16.6826 202.155 10.6983 196.245 6.79704C190.32 2.88602 182.956 1.14802 174.038 2.01258C159.664 3.40593 146.272 13.8929 134.726 28.6739C123.147 43.4979 113.242 62.8712 105.889 82.5187C102.239 92.2712 99.2096 102.111 96.9148 111.521C90.2409 97.5238 81.6558 84.0966 71.9879 75.1109C58.6908 62.7522 37.07 58.5408 21.2894 67.3991C5.32726 76.3593 -3.98736 98.2312 6.3571 136.649C16.3956 173.93 46.1468 206.786 75.145 230.789C86.8184 240.451 98.3998 248.703 108.58 255.256C99.809 262.728 93.84 270.003 91.6667 276.551C90.3916 280.393 90.0234 283.46 90.8342 285.586C91.2643 286.714 92.025 287.569 93.0866 288.07C94.1114 288.554 95.3052 288.655 96.5521 288.519C99.0226 288.249 102.105 286.999 105.568 285.038C109.062 283.06 113.061 280.289 117.39 276.851C120.942 274.03 124.731 270.747 128.663 267.063C134.069 269.889 138.228 271.699 140.607 272.353C141.31 272.547 142.038 272.138 142.232 271.44C142.427 270.743 142.015 270.02 141.312 269.827C139.271 269.266 135.584 267.682 130.679 265.151C142.116 254.174 154.603 239.967 165.898 223.969C170.276 219.799 188.099 210.362 203.487 207.63C231.898 202.585 238.701 200.396 267.047 213.333C281.188 219.787 288.304 226.43 292.531 230.653C292.839 230.961 293.137 231.261 293.423 231.549C294.113 232.245 294.739 232.875 295.298 233.401C296.08 234.136 296.854 234.786 297.643 235.173C298.497 235.592 299.439 235.734 300.419 235.34C301.302 234.986 302.042 234.26 302.725 233.381C303.17 232.808 303.064 231.985 302.486 231.543C301.909 231.101 301.079 231.207 300.634 231.78C300.04 232.544 299.652 232.82 299.428 232.91C299.301 232.961 299.156 232.991 298.813 232.823C298.406 232.623 297.875 232.213 297.114 231.497C296.59 231.005 296.014 230.425 295.342 229.747C295.049 229.452 294.738 229.138 294.405 228.805C290.031 224.435 282.661 217.574 268.151 210.951C239.195 197.736 218.474 202.044 203.263 205.018C188.051 207.992 184.496 211.547 169.091 218.657ZM161.036 226.223C143.235 234.634 127.975 243.62 116.464 252.314C115.281 253.207 114.14 254.096 113.041 254.979C114.438 255.857 115.804 256.699 117.135 257.506C121.207 259.973 124.937 262.097 128.224 263.859C138.802 253.782 150.358 240.84 161.036 226.223ZM126.208 265.756C123.047 264.043 119.535 262.031 115.759 259.743C114.186 258.79 112.565 257.787 110.902 256.737C101.951 264.261 96.1784 271.336 94.1753 277.371C92.9253 281.138 92.8393 283.438 93.3044 284.658C93.5121 285.203 93.8219 285.515 94.2207 285.703C94.6562 285.908 95.3126 286.017 96.2632 285.914C98.1878 285.703 100.89 284.669 104.259 282.762C107.598 280.871 111.48 278.187 115.739 274.804C119.042 272.181 122.558 269.148 126.208 265.756ZM97.7566 119.805C96.3949 126.429 95.4441 132.733 94.9468 138.513C94.2653 146.433 94.4412 153.303 95.5431 158.633C96.6538 164.006 98.6494 167.559 101.372 169.23C104.052 170.874 105.603 170.832 106.479 170.323C107.445 169.761 108.298 168.263 108.664 165.399C109.382 159.784 108.019 150.545 104.909 139.776C103.075 133.426 100.657 126.619 97.7566 119.805Z" fill="#8AB4E4" stroke="#8AB4E4" stroke-width="3.0811" stroke-linecap="round"/>
</svg>
