<svg width="22" height="22" viewBox="0 0 22 22" fill="none" xmlns="http://www.w3.org/2000/svg">
<g clip-path="url(#clip0_115_339)">
<path d="M21.3124 0.687523C21.487 0.8621 21.5851 1.09888 21.5851 1.34577C21.5851 1.59265 21.487 1.82943 21.3124 2.00401L12.3164 11L21.3124 19.996C21.487 20.1706 21.5851 20.4073 21.5851 20.6542C21.5851 20.9011 21.487 21.1379 21.3124 21.3125C21.1379 21.4871 20.9011 21.5851 20.6542 21.5851C20.4073 21.5851 20.1705 21.4871 19.9959 21.3125L11 12.3165L2.00396 21.3125C1.82939 21.4871 1.59261 21.5851 1.34572 21.5851C1.09883 21.5851 0.862054 21.4871 0.687477 21.3125C0.5129 21.1379 0.414824 20.9011 0.414824 20.6542C0.414824 20.4073 0.5129 20.1706 0.687477 19.996L9.68347 11L0.687477 2.00401C0.5129 1.82943 0.414824 1.59265 0.414824 1.34577C0.414824 1.09888 0.5129 0.8621 0.687477 0.687523C0.862054 0.512946 1.09883 0.414869 1.34572 0.414869C1.59261 0.414869 1.82939 0.512946 2.00396 0.687523L11 9.68351L19.9959 0.687523C20.1705 0.512946 20.4073 0.414869 20.6542 0.41487C20.9011 0.414869 21.1379 0.512946 21.3124 0.687523Z" fill="white"/>
</g>
<defs>
<clipPath id="clip0_115_339">
<rect width="22" height="22" fill="white"/>
</clipPath>
</defs>
</svg>
