<svg width="136" height="67" viewBox="0 0 136 67" fill="none" xmlns="http://www.w3.org/2000/svg">
<path fill-rule="evenodd" clip-rule="evenodd" d="M61.7362 0.000864885C62.0242 -0.00938355 62.3738 0.0726038 62.6104 0.185337C62.816 0.298069 63.1143 0.513287 63.2583 0.677262C63.4125 0.830988 63.6285 1.14869 63.7416 1.37415C63.8547 1.59962 64.0193 2.0608 64.1016 2.399C64.1941 2.7372 64.3381 3.58782 64.4204 4.29496C64.5129 5.0021 64.6775 6.34465 64.7906 7.29775C64.9037 8.24061 65.0888 9.43967 65.2123 9.95209C65.3254 10.4748 65.5516 11.3049 65.7265 11.8071C65.891 12.299 66.1584 12.9651 66.323 13.2828C66.4978 13.6108 66.8063 14.1642 67.0223 14.5126C67.2383 14.8713 67.7113 15.4862 68.0816 15.8962C68.4415 16.3061 69.0277 16.88 69.3671 17.167C69.7065 17.4437 70.4675 17.9869 71.064 18.3558C71.6605 18.7248 72.8432 19.4011 73.6865 19.8726C74.5401 20.344 75.5273 20.9179 75.8976 21.1639C76.2678 21.3996 76.9157 21.9018 77.3374 22.2707C77.759 22.6499 78.3761 23.2853 78.7052 23.6952C79.024 24.0949 79.5485 24.9353 79.857 25.5605C80.1655 26.1856 80.5152 27.0567 80.6283 27.5077C80.8031 28.1943 80.834 28.6657 80.834 30.326C80.834 32.14 80.8134 32.4167 80.5769 33.3493C80.4226 33.9129 79.9701 35.2247 79.5587 36.2701C79.1371 37.3154 78.6846 38.535 78.5303 38.9859C78.3863 39.4368 78.2012 40.144 78.1087 40.5437C78.0264 40.9639 77.9544 41.8145 77.9544 42.4704C77.9544 43.362 77.9955 43.7309 78.119 43.9769C78.2115 44.1614 78.3761 44.4278 78.4892 44.5713C78.592 44.7148 78.6846 44.9505 78.6743 45.1042C78.6743 45.2682 78.5612 45.5039 78.4172 45.6474C78.2835 45.7909 78.0984 45.9036 78.0058 45.9036C77.9236 45.9036 77.7282 45.8421 77.5739 45.7601C77.4093 45.6884 77.1625 45.4424 77.0083 45.2272C76.8643 45.0017 76.6586 44.5918 76.566 44.3151C76.4632 44.0281 76.3604 43.485 76.3398 43.0853C76.3089 42.6856 76.3398 41.8862 76.4118 41.2918C76.4735 40.6974 76.6895 39.6828 76.8746 39.0372C77.0597 38.3915 77.5739 36.9567 78.0058 35.8601C78.4378 34.7636 78.8903 33.5132 78.9931 33.0931C79.1062 32.6729 79.2502 31.8632 79.3119 31.2996C79.3942 30.531 79.3942 30.0288 79.3119 29.2704C79.2399 28.7272 79.0651 27.8971 78.9211 27.4359C78.7772 26.9645 78.4892 26.2881 78.2938 25.9192C78.0984 25.5502 77.687 24.9558 77.3991 24.5869C77.1008 24.2179 76.4426 23.5928 75.9387 23.1828C75.4348 22.7831 74.3035 22.0452 73.4294 21.5533C72.5552 21.0614 71.3931 20.4055 70.8583 20.098C70.3235 19.7906 69.6242 19.3499 69.3157 19.1347C69.0071 18.9092 68.4107 18.4275 67.989 18.0484C67.5673 17.6692 66.9194 16.9928 66.5595 16.5418C66.1995 16.0909 65.675 15.353 65.4077 14.9021C65.1403 14.4512 64.8215 13.8465 64.698 13.5698C64.5644 13.2828 64.3278 12.6679 64.1633 12.1863C63.9987 11.7046 63.7519 10.7412 63.6079 10.0341C63.4742 9.32694 63.2171 7.55396 63.0423 6.08843C62.8675 4.62291 62.6618 3.14713 62.5795 2.80894C62.4869 2.47074 62.3327 2.0813 62.2298 1.93782C62.127 1.78409 61.9213 1.67136 61.7465 1.65086C61.5819 1.64061 61.2425 1.7226 60.9854 1.85583C60.7283 1.97881 60.245 2.30676 59.9056 2.58347C59.5662 2.86018 59.0931 3.32136 58.8463 3.60831C58.5995 3.90552 58.219 4.39744 58.0133 4.7049C57.7973 5.01235 57.4374 5.6375 57.2111 6.08843C56.9746 6.53937 56.6558 7.34899 56.481 7.88191C56.3061 8.41483 56.1107 9.18346 56.0284 9.5729C55.9565 9.98284 55.8948 11.0487 55.8948 12.0838C55.8948 13.6005 55.9359 14.0412 56.1416 14.9533C56.2753 15.5477 56.5015 16.3984 56.6558 16.8493C56.8101 17.3002 57.1906 18.2226 57.4991 18.899C57.8076 19.5754 58.219 20.385 58.4247 20.6925C58.6509 21.0409 59.0829 21.4816 59.5559 21.8403C59.9776 22.158 60.7078 22.6499 61.1911 22.9471C61.6745 23.2341 62.3944 23.6235 62.7852 23.8182C63.1863 24.0027 63.7622 24.2589 64.0707 24.3716C64.3792 24.4946 65.5105 24.8226 66.5903 25.1095C67.6702 25.3862 68.6986 25.7244 68.894 25.8474C69.0894 25.9704 69.326 26.1856 69.4288 26.3291C69.5316 26.4726 69.6345 26.7698 69.6756 26.9952C69.727 27.3232 69.6962 27.4769 69.5008 27.7536C69.3671 27.9483 69.0791 28.2456 68.8529 28.3993C68.5855 28.5837 68.205 28.7272 67.773 28.799C67.3925 28.8605 66.7343 28.881 66.2304 28.84C65.7162 28.799 65.058 28.6657 64.6363 28.512C64.2455 28.3685 63.6388 28.1123 63.2994 27.9483C62.96 27.7741 62.3841 27.4257 62.0139 27.1695C61.6436 26.9133 60.9135 26.2881 60.3787 25.7757C59.8542 25.2633 58.9697 24.2692 58.4144 23.562C57.8693 22.8549 56.7689 21.6148 55.9873 20.7949C55.2057 19.9751 54.0847 18.7657 53.5088 18.0996C52.9226 17.4437 52.4084 16.921 52.3467 16.9518C52.285 16.9825 52.2439 17.4949 52.2439 18.1508C52.2439 18.7965 52.3158 19.6984 52.4084 20.18C52.501 20.6617 52.7375 21.5123 52.9329 22.076C53.1283 22.6397 53.5191 23.5415 53.7968 24.0744C54.0642 24.6074 54.5681 25.4682 55.4937 26.8928L56.6764 27.4154C57.314 27.7024 58.3321 28.1021 58.9286 28.307C59.5251 28.512 60.7695 28.9219 61.7053 29.2192C62.8675 29.5881 63.5257 29.8546 63.8033 30.0698C64.0296 30.2337 64.2558 30.5207 64.3073 30.6847C64.3587 30.8487 64.3792 31.1459 64.3381 31.3201C64.3072 31.5046 64.1736 31.7813 64.0399 31.935C63.9062 32.099 63.5976 32.3244 63.3405 32.4474C63.0114 32.6216 62.7029 32.6831 62.2196 32.6831C61.8493 32.6831 61.2014 32.6011 60.7798 32.4884C60.3581 32.3859 59.6896 32.1502 59.2885 31.976C58.8977 31.7915 58.1984 31.4021 57.7459 31.0946C57.2934 30.7974 56.3267 29.9775 55.5862 29.2806C54.856 28.5837 53.7865 27.6511 53.2209 27.2002C52.6655 26.7493 51.6885 25.8987 51.0612 25.3145C50.4441 24.7303 49.7242 24.1257 49.4671 23.9617C49.21 23.7977 48.9735 23.6645 48.9323 23.6645C48.8809 23.6645 48.8809 23.7875 48.9118 23.9412C48.9529 24.1052 49.138 24.5971 49.3231 25.048C49.5185 25.499 49.8888 26.2369 50.1562 26.6878C50.4133 27.1387 50.8658 27.8254 51.164 28.2251C51.452 28.6247 51.9867 29.2601 52.357 29.6496C52.7169 30.039 53.3854 30.6437 53.8379 30.9921C54.2904 31.3406 54.9383 31.812 55.2777 32.0375C55.6171 32.2629 56.3781 32.7036 56.9746 33.0111C57.5711 33.3185 58.6304 33.8105 59.34 34.0872C60.0496 34.3741 61.0163 34.7328 61.4997 34.8763C61.983 35.0198 63.0217 35.276 63.8136 35.4399C64.6055 35.6039 65.7676 35.8191 66.3847 35.9114C67.012 36.0036 67.701 36.1368 67.9273 36.2188C68.2255 36.3213 68.3798 36.4545 68.4724 36.6698C68.5752 36.9362 68.5649 37.0285 68.4415 37.2437C68.3592 37.3872 68.1844 37.5409 68.061 37.5921C67.9067 37.6536 67.3925 37.6331 66.6418 37.5409C65.9939 37.4691 64.9757 37.3052 64.3792 37.1924C63.7828 37.0695 62.7955 36.844 62.1681 36.68C61.5511 36.516 60.4609 36.1778 59.7513 35.9319C59.0417 35.6757 58.0236 35.276 57.4888 35.0403C56.954 34.7943 56.0593 34.3434 55.5142 34.0257C54.9692 33.708 54.0436 33.1033 53.4574 32.6831C52.8712 32.2629 51.9867 31.4943 51.4725 30.9921C50.9686 30.4797 50.259 29.6803 49.9196 29.1987C49.57 28.717 49.0352 27.8869 48.7267 27.3539C48.4284 26.821 48.0376 26.0831 47.8731 25.7142C47.7188 25.3452 47.5234 24.8123 47.4411 24.5356C47.3691 24.2487 47.3074 23.808 47.3074 23.5313C47.3074 23.2648 47.3794 22.9164 47.4617 22.7421C47.544 22.5679 47.7394 22.3424 47.9039 22.2297C48.089 22.0862 48.3358 22.0179 48.6444 22.0247C48.9323 22.0247 49.3334 22.1375 49.7242 22.322C50.0636 22.4859 50.6395 22.8549 51.0097 23.1316C51.38 23.4185 51.6885 23.644 51.7091 23.6338C51.7296 23.6235 51.6268 23.2443 51.4828 22.7934C51.3388 22.3424 51.092 21.4918 50.9378 20.8974C50.6909 19.9546 50.6601 19.6266 50.6498 18.2841C50.6498 16.8288 50.6601 16.7161 50.9172 16.2344C51.0612 15.9474 51.3388 15.6195 51.5342 15.4862C51.7296 15.353 51.997 15.2198 52.141 15.189C52.3158 15.148 52.573 15.2198 52.9535 15.4248C53.262 15.5887 53.6939 15.9269 53.9305 16.1831C54.167 16.4394 54.4755 16.8083 54.6298 17.003C54.7841 17.1977 54.9486 17.3207 54.9897 17.2797C55.0309 17.2387 54.9486 16.7058 54.7943 16.1012C54.6401 15.4965 54.455 14.6561 54.3933 14.2359C54.3213 13.7543 54.3007 12.7192 54.3316 11.4689C54.3727 9.65489 54.4138 9.36793 54.6915 8.34309C54.8663 7.71794 55.144 6.84682 55.3188 6.39589C55.4937 5.94496 55.8948 5.13533 56.2136 4.60241C56.5324 4.06949 57.0157 3.3521 57.2831 3.0139C57.5505 2.67571 58.0442 2.14279 58.3732 1.82509C58.7126 1.51763 59.1857 1.11794 59.4428 0.943721C59.6999 0.769497 60.2038 0.482541 60.5741 0.318566C61.006 0.113598 61.4174 0.000864885 61.7362 0.000864885ZM62.816 25.9089C62.9703 26.0114 63.2994 26.2164 63.5565 26.3598C63.8136 26.5033 64.369 26.7595 64.7906 26.9235C65.2123 27.0977 65.8602 27.2617 66.2304 27.3027C66.6006 27.3437 67.1148 27.3539 67.3925 27.3129C67.6702 27.2822 67.8759 27.2002 67.8759 27.1182C67.8759 27.0465 67.3308 26.862 66.4155 26.6468C65.6031 26.4521 64.4409 26.1139 63.8136 25.8987C63.1966 25.6834 62.6515 25.5092 62.6104 25.5092C62.5589 25.5092 62.5281 25.5502 62.5281 25.6117C62.5281 25.6629 62.6515 25.7962 62.816 25.9089ZM59.957 30.6027C60.3478 30.7872 60.8723 30.9819 61.1191 31.0434C61.3557 31.0946 61.7259 31.1459 61.9419 31.1459C62.1578 31.1459 62.3018 31.1049 62.271 31.0434C62.2401 30.9819 61.6951 30.7769 61.0677 30.5822C60.4301 30.3875 59.7616 30.203 59.5868 30.162C59.412 30.121 59.2577 30.1313 59.2474 30.1825C59.2371 30.2337 59.5559 30.4285 59.957 30.6027ZM132.718 31.4123C133.232 31.4431 133.849 31.5353 134.106 31.607C134.363 31.689 134.775 31.894 135.022 32.0887C135.289 32.2834 135.587 32.6421 135.741 32.9393C135.968 33.3698 136.009 33.5747 135.999 34.2716C135.988 34.7226 135.906 35.3887 135.803 35.7577C135.711 36.1266 135.536 36.7005 135.423 37.0387C135.299 37.3769 135.011 38.0635 134.775 38.576C134.538 39.0781 134.045 40.0005 133.674 40.6257C133.304 41.2406 132.656 42.2142 132.245 42.7778C131.844 43.3415 131.124 44.2434 130.651 44.7763C130.188 45.3092 129.304 46.2418 128.686 46.8362C128.08 47.4306 127.092 48.3017 126.496 48.7732C125.899 49.2343 125.118 49.8185 124.748 50.0542C124.377 50.2899 123.873 50.5974 123.616 50.7409C123.359 50.8843 122.742 51.2225 122.228 51.489C121.724 51.7452 121.261 52.0014 121.2 52.0527C121.138 52.1039 121.22 52.1654 121.405 52.1961C121.58 52.2269 122.197 52.2986 122.794 52.3704C123.39 52.4319 124.131 52.5548 124.439 52.6368C124.748 52.7188 125.231 52.934 125.509 53.1185C125.786 53.2927 126.146 53.5899 126.311 53.7642C126.486 53.9691 126.619 54.2766 126.66 54.5328C126.702 54.83 126.671 55.1477 126.558 55.4859C126.455 55.7626 126.229 56.2033 126.043 56.4595C125.848 56.7157 125.334 57.2076 124.892 57.5458C124.439 57.8943 123.688 58.3964 123.205 58.6731C122.722 58.9499 121.847 59.37 121.251 59.5955C120.655 59.8312 119.369 60.2514 118.392 60.5179C117.415 60.7946 116.623 61.0508 116.623 61.0918C116.623 61.143 116.921 61.2455 117.292 61.3275C117.662 61.4095 118.227 61.5837 118.557 61.7067C118.875 61.8297 119.338 62.1166 119.585 62.3421C119.873 62.6188 120.068 62.9058 120.14 63.1722C120.192 63.3977 120.212 63.7871 120.181 64.0433C120.14 64.2995 119.996 64.6787 119.863 64.8837C119.719 65.0989 119.39 65.4166 119.122 65.6011C118.844 65.7753 118.351 66.0418 118.011 66.175C117.672 66.3082 117.004 66.503 116.52 66.6054C116.037 66.7182 114.957 66.8514 114.103 66.9231C112.869 67.0256 112.191 67.0256 110.71 66.9231C109.692 66.8514 108.396 66.7284 107.83 66.6464C107.264 66.5644 106.041 66.339 105.105 66.134C104.169 65.9393 102.945 65.6421 102.379 65.4781C101.814 65.3141 100.847 64.9862 100.22 64.7607C99.6027 64.5353 98.348 63.9818 97.443 63.5412C96.538 63.1107 95.4067 62.4958 94.9234 62.1986C94.44 61.8912 93.4322 61.1943 92.6917 60.6408C91.941 60.0874 90.7994 59.1138 90.1515 58.4784C89.5036 57.8533 88.8865 57.1666 88.7631 56.9719C88.65 56.7772 88.5472 56.521 88.5472 56.4082C88.5369 56.2955 88.6603 56.0803 88.8146 55.9163C88.9688 55.7626 89.1745 55.6396 89.2773 55.6396C89.3905 55.6396 90.1309 56.2648 90.9434 57.0436C91.7456 57.8225 92.8048 58.7551 93.2779 59.1241C93.7613 59.493 94.5017 60.0362 94.9234 60.3129C95.345 60.5999 96.1163 61.061 96.6203 61.348C97.1345 61.6349 97.9367 62.0551 98.42 62.3011C98.9034 62.5368 99.8495 62.9365 100.528 63.1927C101.207 63.4387 102.205 63.7769 102.739 63.9408C103.274 64.0946 104.364 64.3713 105.156 64.5455C105.948 64.73 107.295 64.9759 108.139 65.0989C109.424 65.2834 110.123 65.3141 112.304 65.3141C113.815 65.3039 115.255 65.2526 115.698 65.1809C116.119 65.1092 116.726 64.9759 117.034 64.8735C117.343 64.771 117.796 64.566 118.042 64.4225C118.279 64.2688 118.526 64.0433 118.587 63.9101C118.69 63.7154 118.67 63.6539 118.433 63.4489C118.289 63.3259 117.857 63.1312 117.477 63.0287C117.086 62.916 115.574 62.5163 114.103 62.1474C111.892 61.5837 111.111 61.43 109.578 61.266C108.56 61.1533 107.1 60.9278 106.339 60.7638C105.578 60.5999 104.467 60.3129 103.871 60.1182C103.274 59.9235 102.215 59.5033 101.505 59.1856C100.796 58.8576 99.8701 58.3862 99.4484 58.13C99.0268 57.8738 98.3995 57.4536 98.0601 57.1871C97.7207 56.9309 97.2168 56.5107 96.9391 56.2545C96.6614 55.9983 96.2398 55.5371 96.0032 55.2297C95.7564 54.9222 95.4376 54.4098 95.2936 54.1023C95.1496 53.7949 95.0057 53.3337 94.9748 53.0775C94.9234 52.7393 94.9645 52.5241 95.0982 52.2679C95.2011 52.0732 95.417 51.8169 95.5713 51.7042C95.8181 51.53 96.0135 51.489 96.7026 51.489C97.4327 51.4992 97.6487 51.5402 98.3686 51.8579C98.8211 52.0527 99.613 52.4831 100.117 52.8008C100.631 53.1185 101.762 53.9384 102.647 54.6353C103.521 55.3322 104.704 56.2033 105.269 56.5825C105.825 56.9514 106.843 57.5561 107.522 57.925C108.2 58.294 109.311 58.8474 111.224 59.6877L112.869 59.6775C113.929 59.6775 114.916 59.616 115.646 59.493C116.273 59.3905 117.24 59.1958 117.806 59.0523C118.371 58.9191 119.184 58.6834 119.606 58.5399C120.027 58.3964 120.932 58.0173 121.611 57.6893C122.29 57.3716 123.226 56.8182 123.699 56.48C124.223 56.0803 124.655 55.6601 124.85 55.3527C125.049 55.0315 125.121 54.8197 125.066 54.7173C125.015 54.6353 124.758 54.461 124.48 54.3483C124.203 54.2253 123.586 54.0716 123.102 54.0101C122.619 53.9486 121.076 53.7539 119.657 53.5797C117.456 53.303 116.89 53.2722 115.749 53.3235C114.988 53.3645 113.887 53.344 113.178 53.2825C112.499 53.221 111.574 53.0878 111.121 52.975C110.669 52.8725 109.794 52.6061 109.167 52.3806C108.55 52.1654 107.666 51.7965 107.213 51.5607C106.761 51.325 106.071 50.8741 105.681 50.5461C105.29 50.2182 104.817 49.7468 104.642 49.4906C104.467 49.2343 104.292 48.8347 104.251 48.5887C104.2 48.271 104.22 48.0763 104.364 47.8406C104.457 47.6561 104.673 47.4204 104.827 47.2974C105.074 47.1129 105.259 47.0822 106.01 47.0924C106.709 47.0924 107.079 47.1642 107.727 47.3896C108.18 47.5434 108.879 47.8303 109.27 48.0353C109.661 48.23 110.658 48.7732 111.481 49.2343C112.304 49.6955 113.322 50.2284 113.744 50.4129C114.165 50.5974 114.957 50.8946 115.492 51.0791C116.027 51.2635 116.654 51.4378 116.88 51.4788C117.137 51.5197 117.549 51.489 117.96 51.3968C118.33 51.3045 118.958 51.1303 119.348 50.9868C119.739 50.8536 120.459 50.5666 120.942 50.3617C121.426 50.1567 122.29 49.7058 122.876 49.3573C123.452 49.0089 124.408 48.3735 124.984 47.943C125.56 47.5126 126.537 46.6825 127.164 46.0983C127.781 45.5142 128.635 44.6635 129.057 44.2126C129.478 43.7617 130.178 42.9213 130.599 42.3474C131.031 41.7735 131.679 40.8306 132.039 40.2465C132.409 39.6623 132.903 38.8014 133.14 38.3198C133.376 37.8381 133.695 37.1514 133.839 36.7825C133.993 36.4136 134.178 35.7679 134.271 35.3477C134.353 34.9275 134.415 34.3536 134.394 34.0667C134.363 33.6362 134.322 33.5337 134.055 33.3493C133.88 33.2365 133.469 33.0726 133.129 33.0008C132.553 32.8676 132.461 32.8778 131.792 33.0828C131.402 33.2058 130.61 33.5645 130.044 33.8924C129.478 34.2204 128.419 34.8353 127.679 35.2657C126.938 35.6859 126.064 36.1778 125.725 36.3418C125.385 36.516 124.46 36.9157 123.668 37.2232C122.876 37.5409 121.693 37.9508 121.045 38.1455C120.397 38.3403 119.4 38.6067 118.834 38.7194C118.269 38.8424 117.209 38.9859 116.469 39.0474C115.728 39.1089 114.463 39.1294 113.641 39.0884C112.818 39.0576 111.759 38.9552 111.275 38.8732C110.792 38.7809 109.753 38.576 108.961 38.412C108.169 38.248 106.411 37.8073 105.053 37.4384C103.696 37.0695 102.328 36.6903 102.019 36.6083C101.711 36.5365 101.042 36.3521 100.528 36.2188C100.024 36.0856 98.9342 35.8396 98.1115 35.6757C97.2887 35.5014 96.1163 35.2862 95.489 35.1837C94.656 35.0505 93.7818 34.9993 92.1981 34.9993C90.3983 35.0095 89.8738 35.0403 89.0614 35.2145C88.5266 35.3375 87.7861 35.5322 87.4159 35.6654C87.0457 35.7884 86.3772 36.0754 85.9247 36.3008C85.4722 36.5263 84.67 37.0182 84.1558 37.4076C83.5079 37.8893 83.1068 38.1148 82.9217 38.1148C82.7571 38.1148 82.5515 38.0328 82.4486 37.9303C82.3458 37.8278 82.2738 37.6126 82.2738 37.3974C82.2738 37.0899 82.3766 36.9465 82.9217 36.4238C83.2714 36.0856 83.9296 35.5937 84.382 35.3272C84.8346 35.0608 85.5339 34.7021 85.9247 34.5278C86.3258 34.3434 87.2514 34.0462 87.9815 33.8617C89.1334 33.5645 89.5653 33.5132 91.0668 33.4518C92.0849 33.4108 93.4527 33.4313 94.3577 33.4927C95.2113 33.5542 96.5791 33.749 97.4224 33.9129C98.2555 34.0872 99.8495 34.4561 100.971 34.7431C102.081 35.0198 103.994 35.5219 105.208 35.8601C106.421 36.1881 107.933 36.5673 108.55 36.7108C109.177 36.8542 109.918 37.0182 110.195 37.0797C110.483 37.1412 111.234 37.2539 111.872 37.3462C112.499 37.4281 113.774 37.4999 114.7 37.4999C115.615 37.4999 116.757 37.4486 117.24 37.3871C117.724 37.3257 118.577 37.1617 119.143 37.0285C119.708 36.885 120.593 36.639 121.097 36.475C121.611 36.3111 122.413 36.0344 122.896 35.8499C123.38 35.6654 124.47 35.1632 125.313 34.7328C126.167 34.3024 127.206 33.7387 127.627 33.4825C128.049 33.2263 128.841 32.7754 129.376 32.4782C129.91 32.1912 130.682 31.812 131.072 31.648C131.751 31.3611 131.844 31.3508 132.718 31.4123ZM106.473 49.2548C106.719 49.4701 107.223 49.8083 107.583 50.003C107.943 50.1977 108.632 50.5256 109.116 50.7306C109.599 50.9356 110.35 51.202 110.792 51.325C111.224 51.4378 111.718 51.5402 111.892 51.5402C112.067 51.5402 112.18 51.4992 112.149 51.4378C112.119 51.3865 111.666 51.0893 111.152 50.7819C110.627 50.4846 109.753 50.003 109.218 49.716C108.684 49.4291 107.81 49.0499 107.295 48.8859C106.771 48.7117 106.267 48.5682 106.185 48.5682C106.102 48.5682 106.03 48.6399 106.03 48.7219C106.03 48.8039 106.236 49.0499 106.473 49.2548ZM96.9597 53.9486C97.1756 54.2868 97.6796 54.8607 98.0704 55.2194C98.4612 55.5884 99.2222 56.1725 99.757 56.521C100.292 56.8797 101.217 57.3921 101.814 57.6688C102.41 57.9558 103.449 58.3657 104.128 58.5912C104.807 58.8064 105.526 59.0318 105.722 59.0728C106.01 59.1446 106.071 59.1343 106.02 59.0113C105.989 58.9294 105.454 58.5194 104.827 58.0992C104.21 57.6791 103.089 56.8694 102.338 56.3058C101.588 55.7421 100.549 54.9735 100.035 54.5943C99.5101 54.2151 98.7183 53.7129 98.2658 53.4874C97.8132 53.262 97.2579 53.0468 97.0214 53.0058C96.6614 52.9545 96.5997 52.975 96.5791 53.139C96.5689 53.2517 96.7437 53.6104 96.9597 53.9486ZM0 38.7297H2.64305C4.1034 38.7297 5.70774 38.7809 6.22196 38.8322C6.73617 38.8937 7.33265 39.0269 7.5589 39.1294C7.78516 39.2421 8.19653 39.5598 8.4742 39.8263C8.75187 40.0927 9.07069 40.5232 9.18381 40.7794C9.29694 41.0356 9.41006 41.5173 9.44092 41.8555C9.47177 42.2449 9.43063 42.6753 9.32779 43.034C9.23523 43.3415 9.01926 43.7822 8.83415 44.0076C8.65932 44.2331 8.31994 44.5713 8.0834 44.7558C7.85715 44.9402 7.42521 45.1555 7.14754 45.2375C6.80816 45.3399 5.91343 45.4219 2.46821 45.5449V48.7732H0V38.7297ZM2.46821 43.444C5.33751 43.444 5.96485 43.403 6.1911 43.3107C6.37622 43.2288 6.62304 43.034 6.72588 42.8701C6.83901 42.6958 6.92128 42.3884 6.92128 42.1117C6.92128 41.8555 6.84929 41.5275 6.75673 41.3738C6.66418 41.2098 6.41736 41.0151 6.22196 40.9331C5.95457 40.8204 5.44035 40.7794 4.16511 40.7794H2.46821V43.444ZM15.1178 40.9536C15.4263 40.9741 15.9405 41.0458 16.2491 41.1073C16.5576 41.1688 17.041 41.3123 17.3289 41.4455C17.6066 41.5685 18.0899 41.8965 18.3985 42.1732C18.7481 42.5011 19.0567 42.9111 19.2726 43.3415C19.5503 43.9257 19.5914 44.1101 19.5914 44.8788C19.5914 45.4834 19.5297 45.9241 19.3858 46.3135C19.2521 46.6927 19.0052 47.0719 18.6144 47.4716C18.2648 47.8508 17.8123 48.189 17.4318 48.3735C17.0924 48.5374 16.5576 48.7219 16.2491 48.7732C15.9405 48.8347 15.2207 48.8859 14.655 48.8859C13.9763 48.8859 13.4518 48.8347 13.1124 48.7219C12.8244 48.6194 12.3308 48.4042 11.9914 48.2197C11.6623 48.0455 11.1995 47.6971 10.9733 47.4409C10.7367 47.1847 10.4488 46.7542 10.3151 46.4673C10.1197 46.0573 10.0785 45.7704 10.0683 44.9812C10.058 44.1921 10.0991 43.9154 10.2739 43.4952C10.3973 43.2185 10.6236 42.8188 10.7779 42.6241C10.9321 42.4294 11.2612 42.1117 11.5183 41.9067C11.7754 41.7017 12.2485 41.4353 12.5673 41.3123C12.8964 41.1893 13.4723 41.0458 13.8528 40.9946C14.2436 40.9434 14.8093 40.9229 15.1178 40.9536ZM12.7833 43.7514C12.5673 44.1511 12.5365 44.3253 12.5673 45.0427C12.5879 45.7191 12.6393 45.9343 12.8553 46.2418C12.9993 46.4468 13.2975 46.7132 13.5238 46.8362C13.8426 47.0104 14.11 47.0617 14.7579 47.0617C15.3955 47.0719 15.6937 47.0207 16.064 46.8465C16.4342 46.6825 16.6296 46.498 16.8353 46.1393C17.0718 45.7294 17.1232 45.5244 17.1232 44.93C17.1232 44.3561 17.0718 44.1204 16.8661 43.7617C16.6913 43.4542 16.465 43.2288 16.1462 43.0648C15.7657 42.8701 15.5292 42.8291 14.8093 42.8291C14.0997 42.8291 13.8426 42.8701 13.4826 43.0648C13.1638 43.2185 12.9581 43.4337 12.7833 43.7514ZM25.1449 40.9229C25.5974 40.9536 26.2659 41.0458 26.6361 41.1381C27.0064 41.2406 27.5514 41.466 27.8394 41.6608C28.1376 41.8555 28.4564 42.1117 28.5387 42.2449C28.621 42.3679 28.7341 42.6139 28.7855 42.7778C28.8472 42.9828 28.8472 43.2288 28.7753 43.4952C28.7136 43.7207 28.5387 44.0179 28.3947 44.1614C28.2405 44.3048 27.9834 44.5098 27.5103 44.8378L28.0142 45.094C28.3125 45.2375 28.621 45.4937 28.765 45.6986C28.9192 45.9343 29.0015 46.2111 29.0015 46.498C29.0015 46.7337 28.9192 47.1027 28.8164 47.3076C28.7238 47.5126 28.4359 47.8406 28.1788 48.0353C27.9217 48.2197 27.572 48.4452 27.4075 48.517C27.2429 48.5887 26.6156 48.7322 26.0191 48.8347C25.0729 48.9986 24.8158 49.0089 23.9314 48.8961C23.3863 48.8244 22.6664 48.6707 22.3373 48.5477C22.0185 48.4247 21.566 48.1788 21.35 48.0045C21.1238 47.8406 20.8358 47.4921 20.7124 47.2359C20.589 46.9797 20.4553 46.6517 20.3628 46.2111L22.6767 46.2213L23.0367 46.6107C23.3041 46.8977 23.5406 47.0309 23.9622 47.1232C24.3119 47.2154 24.7541 47.2359 25.1141 47.1949C25.4432 47.1642 25.8751 47.0617 26.0705 46.9797C26.2762 46.8875 26.4613 46.7337 26.4922 46.6005C26.523 46.4673 26.5024 46.2623 26.4407 46.1393C26.379 46.0061 26.2042 45.8524 26.0397 45.7909C25.8854 45.7396 25.2375 45.6576 23.448 45.5449V44.3151L24.497 44.2536C25.1552 44.2126 25.6797 44.1306 25.8854 44.0179C26.0705 43.9257 26.2453 43.7719 26.2762 43.6797C26.307 43.5772 26.2865 43.3722 26.2248 43.2185C26.1733 43.0545 26.0294 42.8906 25.9162 42.8291C25.8031 42.7676 25.2889 42.7266 24.785 42.7266C24.2708 42.7266 23.7566 42.7778 23.6229 42.8393C23.4995 42.8906 23.2835 43.1058 22.8824 43.6387L21.7203 43.6489C20.589 43.6489 20.5684 43.6489 20.5684 43.4235C20.5684 43.2902 20.6713 42.9828 20.805 42.7368C20.9284 42.4806 21.1649 42.1732 21.3398 42.0297C21.5043 41.8965 21.8334 41.671 22.0597 41.5378C22.2859 41.4045 22.8824 41.1996 23.3966 41.0868C24.0548 40.9434 24.569 40.8921 25.1449 40.9229ZM46.4333 40.8921C46.4847 40.8921 46.8344 40.9434 47.2046 41.0253C47.5748 41.0971 48.0582 41.2611 48.2844 41.3738C48.5107 41.4865 48.8706 41.753 49.0866 41.9785C49.3129 42.1937 49.6008 42.5524 49.7242 42.7778C49.8579 43.0033 50.043 43.5055 50.1459 43.9052C50.259 44.3868 50.2898 44.8275 50.2487 45.2375C50.2179 45.5756 50.0842 46.1496 49.9608 46.5185C49.7962 47.0002 49.5905 47.3384 49.1997 47.7483C48.8501 48.1241 48.4558 48.4145 48.017 48.6194C47.4617 48.8654 47.2354 48.9166 46.5875 48.9064C46.1453 48.9064 45.5591 48.8244 45.1992 48.7117C44.7364 48.5579 44.4381 48.3735 43.9651 47.9328C43.6257 47.6151 43.3172 47.3486 43.2657 47.3384C43.2246 47.3384 43.1937 48.148 43.1937 50.9253H40.7255V41.0868L43.1423 41.1381L43.1937 42.6241L43.7285 42.1014C44.0268 41.8145 44.5307 41.4558 44.8392 41.3123C45.1477 41.1688 45.6105 41.0253 45.8676 40.9844C46.1247 40.9434 46.3716 40.9024 46.4333 40.8921ZM43.8519 43.6592C43.6771 43.8539 43.4406 44.1716 43.3172 44.3663C43.1937 44.5611 43.0909 44.807 43.0909 44.9095C43.0909 45.0017 43.1835 45.2579 43.2863 45.4732C43.3994 45.6781 43.6668 46.0163 43.8828 46.2316C44.0988 46.4365 44.4587 46.6927 44.685 46.8157C44.9626 46.9592 45.2814 47.0309 45.6825 47.0309C46.0116 47.0309 46.4333 46.9694 46.6081 46.8875C46.7932 46.8157 47.0709 46.621 47.2252 46.457C47.3794 46.293 47.5542 46.0368 47.6057 45.8831C47.6674 45.7191 47.7188 45.2887 47.7188 44.9095C47.7188 44.3048 47.6777 44.1409 47.4103 43.7309C47.2149 43.4235 46.9475 43.1673 46.6904 43.034C46.4333 42.9111 46.0733 42.8291 45.7339 42.8291C45.3843 42.8291 45.0243 42.9111 44.685 43.075C44.397 43.2083 44.0268 43.4747 43.8519 43.6592ZM55.2263 40.9434C55.4834 40.9741 55.9153 41.0663 56.2033 41.1483C56.481 41.2303 56.882 41.425 57.0774 41.5685C57.2728 41.712 57.6122 41.9989 57.8179 42.2039C58.0339 42.4089 58.2293 42.5524 58.2498 42.5216C58.2807 42.4909 58.3321 42.1732 58.4658 41.1381L59.6691 41.1176C60.7489 41.0868 60.8929 41.1073 60.9443 41.2713C60.9854 41.3635 60.9237 42.2244 60.5946 44.93L60.79 46.7235C60.9032 47.7073 60.9752 48.5784 60.9443 48.6502C60.8929 48.7424 60.5638 48.7629 58.4658 48.7219L58.3115 47.2359L57.6636 47.8098C57.314 48.1275 56.9026 48.4555 56.7381 48.5272C56.5838 48.6092 56.1519 48.7424 55.7611 48.8347C55.288 48.9474 54.8972 48.9679 54.5064 48.9166C54.1979 48.8756 53.6425 48.7014 53.2723 48.517C52.8918 48.3222 52.429 47.984 52.2027 47.7381C51.9867 47.4921 51.6885 47.0309 51.5445 46.7235C51.308 46.2213 51.2771 46.0266 51.2771 44.93C51.2668 43.7719 51.2874 43.6694 51.5651 43.0853C51.7399 42.7471 52.0999 42.2552 52.3673 41.9785C52.6347 41.712 53.0357 41.4148 53.2414 41.3225C53.4574 41.2303 53.8893 41.0971 54.1979 41.0253C54.5064 40.9536 54.9692 40.9126 55.2263 40.9434ZM53.9613 43.8539C53.7556 44.2741 53.6836 44.5611 53.6836 44.9812C53.6836 45.3194 53.7659 45.7191 53.8893 45.9856C54.023 46.252 54.2596 46.5185 54.527 46.703C54.8252 46.8977 55.1234 46.9899 55.5245 47.0207C55.8433 47.0412 56.265 47.0104 56.4604 46.9489C56.6558 46.8875 57.0363 46.6722 57.3037 46.4673C57.5814 46.2725 57.9105 45.9138 58.0544 45.6781C58.1881 45.4322 58.3115 45.094 58.3115 44.93C58.3115 44.766 58.1984 44.4483 58.0544 44.2434C57.9105 44.0281 57.6328 43.7002 57.4271 43.526C57.2214 43.3415 56.8923 43.1058 56.6866 43.0135C56.4707 42.9111 56.0593 42.8291 55.7405 42.8291C55.3497 42.8291 55.0309 42.9008 54.7121 43.0545C54.3418 43.239 54.1876 43.403 53.9613 43.8539ZM30.3385 41.0868H39.08V48.7732H36.6118V43.034H32.8067V48.7732H30.3385V41.0868ZM62.3224 41.0868H65.6648C68.8015 41.0868 69.0277 41.0971 69.4185 41.2918C69.6448 41.4045 69.9841 41.63 70.159 41.7837C70.3544 41.958 70.5601 42.2654 70.632 42.5319C70.7452 42.8803 70.7452 43.0853 70.6629 43.4235C70.5909 43.6797 70.3852 44.0281 70.1384 44.2946C69.9224 44.5303 69.7373 44.7558 69.727 44.807C69.727 44.848 69.7887 44.8788 69.8504 44.8788C69.9224 44.8788 70.1795 45.012 70.4161 45.1862C70.6629 45.3502 70.9303 45.6576 71.0126 45.8524C71.0948 46.0471 71.1668 46.4058 71.1668 46.6517C71.1668 46.8977 71.0743 47.2769 70.9406 47.5434C70.7863 47.8508 70.5498 48.0968 70.2412 48.2812C69.9636 48.4555 69.5111 48.6092 69.11 48.6809C68.7295 48.7322 67.1663 48.7732 65.4385 48.7527C63.793 48.7322 62.4047 48.6809 62.3532 48.6399C62.3121 48.5989 62.3738 47.7381 62.7338 44.93L62.5281 43.239C62.415 42.3064 62.3224 41.4455 62.3224 41.3225V41.0868ZM64.8317 43.2595C64.8729 43.5567 64.9243 43.9052 64.9552 44.0281C64.9963 44.2536 65.0374 44.2639 66.1584 44.2639C66.7857 44.2639 67.4748 44.2126 67.6702 44.1511C67.8656 44.0999 68.061 43.9974 68.1021 43.9257C68.1433 43.8539 68.1844 43.6387 68.1844 43.444C68.1947 43.2288 68.1227 43.0135 68.0096 42.9008C67.8553 42.7573 67.5982 42.7266 66.2921 42.7266H64.7598L64.8317 43.2595ZM64.8523 46.4365L64.7906 47.1232H68.3901C68.6266 46.6517 68.6986 46.4058 68.6986 46.2828C68.6986 46.1496 68.5958 45.9446 68.4724 45.8216C68.2461 45.6064 68.1535 45.5859 66.6212 45.5859C65.7368 45.5859 64.986 45.6166 64.9654 45.6679C64.9346 45.7089 64.8934 46.0471 64.8523 46.4365ZM46.7418 51.694C47.0812 51.7247 47.5954 51.8374 47.8731 51.9399C48.1919 52.0629 48.6032 52.3396 48.9529 52.6778C49.282 52.9853 49.6522 53.4772 49.8271 53.8359C50.115 54.4098 50.1356 54.5225 50.1356 55.6806C50.1356 56.8387 50.115 56.9514 49.8271 57.5663C49.6419 57.9455 49.3231 58.3964 49.0557 58.6527C48.7986 58.8884 48.4078 59.1753 48.1816 59.2881C47.9553 59.4008 47.4925 59.5545 47.1532 59.6263C46.7932 59.698 46.3201 59.7185 46.0219 59.6775C45.7442 59.6365 45.2814 59.5135 44.9935 59.411C44.7158 59.3086 44.1913 58.9601 43.1937 58.089V61.6759H40.6227L40.6741 51.8887H43.1423L43.1937 53.2722L43.7388 52.8008C44.0268 52.5343 44.4176 52.2576 44.5821 52.1654C44.7569 52.0732 45.1683 51.9194 45.5077 51.8169C45.9499 51.694 46.2996 51.653 46.7418 51.694ZM43.5845 54.666C43.3686 54.9427 43.1629 55.3117 43.132 55.4756C43.0909 55.6806 43.132 55.9266 43.2554 56.1828C43.3686 56.4082 43.6257 56.7669 43.8416 56.9822C44.0473 57.1974 44.4176 57.4638 44.6644 57.5766C44.9318 57.6996 45.3226 57.7815 45.7134 57.7815C46.1864 57.7815 46.4127 57.7303 46.6801 57.5561C46.8755 57.4228 47.1737 57.1461 47.3486 56.9309C47.616 56.5927 47.6777 56.4287 47.7085 55.8548C47.7394 55.2809 47.7085 55.076 47.5028 54.6558C47.328 54.2971 47.1223 54.0716 46.7932 53.8666C46.4127 53.6309 46.2173 53.5797 45.7031 53.5797C45.2197 53.5797 44.9523 53.6412 44.5204 53.8666C44.1707 54.0511 43.8314 54.3381 43.5845 54.666ZM76.8232 51.6427C77.0185 51.6427 77.4608 51.7042 77.8001 51.7965C78.1395 51.8887 78.5612 52.0322 78.7257 52.1244C78.9006 52.2064 79.3017 52.5343 80.2067 53.426L80.2684 52.9648C80.3095 52.7086 80.3506 52.3499 80.4226 51.8374H83.0451L82.9731 52.2679C82.932 52.5138 82.8189 53.4055 82.7263 54.2458C82.5617 55.6909 82.5617 55.8651 82.7263 57.2179C82.8189 58.007 82.932 58.8474 83.0451 59.5238H81.811C80.9471 59.5238 80.5358 59.4828 80.4432 59.4008C80.3712 59.3291 80.3198 59.0318 80.3198 58.7346C80.3198 58.4374 80.2889 58.171 80.2478 58.1402C80.1964 58.1197 79.8878 58.3247 79.5485 58.6117C79.2091 58.9089 78.8183 59.1958 78.6743 59.2676C78.5303 59.3393 78.119 59.4828 77.7487 59.575C77.2757 59.698 76.9157 59.7287 76.5146 59.6775C76.2061 59.6365 75.7433 59.5238 75.4862 59.4315C75.2291 59.3393 74.7972 59.0728 74.5092 58.8474C74.2007 58.5912 73.8613 58.1812 73.6659 57.8225C73.4808 57.4741 73.2854 56.9104 73.2134 56.5005C73.1517 56.1008 73.1208 55.5166 73.162 55.1989C73.1928 54.871 73.3162 54.3586 73.4191 54.0716C73.5322 53.7744 73.7996 53.3132 74.0156 53.0468C74.2315 52.7803 74.5915 52.4319 74.8177 52.2884C75.044 52.1346 75.5068 51.9297 75.8461 51.8272C76.1855 51.7247 76.6277 51.6427 76.8232 51.6427ZM76.0518 54.3483C75.7742 54.6865 75.7433 54.8095 75.7125 55.5576C75.6816 56.275 75.7125 56.4697 75.9181 56.8592C76.093 57.1974 76.2781 57.3818 76.6175 57.5561C76.9466 57.72 77.2551 57.7815 77.6973 57.7815C78.0675 57.7815 78.4789 57.6995 78.7257 57.5868C78.952 57.4843 79.3633 57.1564 79.6307 56.8489C79.8981 56.5415 80.1655 56.1418 80.2272 55.9676C80.2992 55.7114 80.2786 55.5474 80.1552 55.3014C80.0627 55.1169 79.8261 54.7685 79.641 54.5328C79.4456 54.2868 79.096 53.9896 78.8594 53.8769C78.592 53.7334 78.1498 53.6309 77.7487 53.6104C77.2242 53.5797 77.0083 53.6104 76.7203 53.7642C76.5249 53.8769 76.2267 54.1331 76.0518 54.3483ZM30.9658 51.8272L33.3723 51.8887L33.4237 53.9691C33.4546 55.1067 33.506 56.0393 33.5574 56.0393C33.5986 56.0393 34.4007 55.1067 37.0746 51.8887L38.2059 51.8579C38.8332 51.8477 39.3989 51.8579 39.4708 51.8887C39.5531 51.9194 39.5017 52.0527 39.296 52.3294C39.1315 52.5343 38.5761 53.1902 37.1363 54.8607L37.4551 55.4244C37.63 55.7318 38.2265 56.7259 38.7818 57.6278C39.3372 58.5297 39.7999 59.3291 39.7999 59.4008C39.7999 59.493 39.4606 59.5238 38.463 59.5238C37.1878 59.5238 37.1158 59.5135 36.9821 59.2983C36.9101 59.1651 36.5501 58.5707 36.1902 57.966C35.5526 56.9002 35.5217 56.8694 35.3366 57.0436C35.2337 57.1359 34.6887 57.7405 33.1152 59.5238H30.9555L30.9658 51.8272ZM51.524 51.8374H53.8893V54.2971C53.8893 55.8343 53.9305 56.7772 53.9922 56.8079C54.0539 56.8284 54.3418 56.521 54.6401 56.1213C54.9383 55.7216 55.7405 54.6045 57.6534 51.8887H60.8312L60.8826 59.5238H58.4144V57.0846C58.4041 55.7523 58.3733 54.5738 58.3321 54.4713C58.2807 54.3278 57.8282 54.9017 54.5578 59.5135L51.524 59.5238V51.8374ZM71.8353 51.8887L71.8867 59.5238H69.4185V53.7846H66.2818L66.2098 55.3936C66.1687 56.3468 66.0761 57.2589 65.9733 57.6278C65.8807 57.966 65.6853 58.4169 65.5311 58.6322C65.3768 58.8576 65.0683 59.1446 64.842 59.2676C64.5746 59.4315 64.1941 59.534 63.7108 59.575C63.2583 59.616 62.8058 59.5853 62.4767 59.5033C62.0344 59.3803 61.9624 59.3291 61.9007 59.0626C61.8699 58.8884 61.8288 58.4682 61.8082 57.4741L62.1476 57.5356C62.3327 57.5663 62.5281 57.6073 62.5795 57.6278C62.6412 57.6483 62.8572 57.6176 63.0731 57.5663C63.3817 57.4843 63.5051 57.3818 63.6799 57.0334C63.8445 56.6952 63.9062 56.3468 63.9473 55.4244C63.9679 54.7685 63.9473 53.7334 63.8856 53.1185C63.8342 52.4933 63.8136 51.9502 63.8342 51.9092C63.865 51.8682 65.675 51.8477 71.8353 51.8887Z" fill="white"/>
</svg>
